<?xml version="1.0" standalone="no"?>
<!DOCTYPE svg PUBLIC "-//W3C//DTD SVG 1.1//EN" "http://www.w3.org/Graphics/SVG/1.1/DTD/svg11.dtd" >
<svg>
<metadata>
Created by FontForge 1853326994 at Wed Nov 27 17:56:07 2013
 By U-zoghal-god\zoghal,S-1-5-21-2758449068-1321902542-3097588897-1003
Typeface (c) The scict.ir Corporation plc. Data (c) The scict.ir Corporation plc/Type Solutions Inc. 2007-2008. All Rights Reserved.Design by Hossein Zahedi.Calligraphy by Amir Falsafi

Edition and Optimtions for web by Mohammad Saleh Souzanchi
</metadata>
<defs>
<font id="WebNastaliq" horiz-adv-x="0" >
  <font-face 
    font-family="WebNastaliq"
    font-weight="400"
    font-stretch="normal"
    units-per-em="2048"
    panose-1="2 0 5 3 0 0 0 2 0 3"
    ascent="1638"
    descent="-410"
    x-height="928"
    cap-height="1232"
    bbox="-638 -2444 5827 3011"
    underline-thickness="60"
    underline-position="-40"
    unicode-range="U+0020-FFFC"
  />
<missing-glyph horiz-adv-x="2048" 
 />
    <glyph glyph-name="afii64184" unicode="&#xfedf;&#xfee0;&#x651;&#x670;&#xfeea;" horiz-adv-x="1437" arabic-form="isolated" 
d="M1026 583l-9 -81v-4q0 -59 34.5 -88.5t89.5 -29.5h29q26 0 64 23q75 48 86 103q2 30 2 81t2 67t38 84t58 102t26 33q3 0 3 -6q0 -120 -31 -271q-59 -280 -220 -434q-79 -61 -162 -61h-4q-84 3 -124 49q-24 30 -31 58q-121 -155 -250 -155q-12 0 -24 1q-124 18 -181 126
q-17 32 -23 69q-30 -19 -178 -128.5t-204 -109.5q-14 0 -14 6q1 5 44 36t238.5 213.5t268.5 283.5q11 9 18.5 4.5t9.5 -12.5q-3 -20 -3 -38q1 -93 87 -132q40 -18 66 -18q24 0 56 5q63 10 118.5 71.5t83.5 150.5q6 17 16 17h1q19 -2 19 -15z" />
    <glyph glyph-name="afii62834" unicode="&#xfedf;&#xfe82;" horiz-adv-x="663" arabic-form="isolated" 
d="M483 581l-1 245q0 52 4 126q9 167 122 437q6 12 9.5 12t3.5 -16t-11.5 -107.5t-11.5 -144.5l-15 -447q0 -59 -18 -159t-31 -142t-35.5 -102.5t-63.5 -124t-105.5 -112.5t-121 -49t-82.5 21q-28 22 -46 59q-20 41 -20 62t9 24q91 27 91 329v87q0 45 2 133q6 249 122 524
q12 25 19.5 24t5.5 -14q-34 -116 -36.5 -373t-10.5 -341q-18 -202 -123 -363q218 0 291 139q51 98 53 273zM-20 1540q-8 -2 -15 -2t-7 7.5t14.5 38.5t61.5 87q48 56 124 114q126 96 259 97h7q36 -3 73 -3t81 1q142 3 302 141q12 10 46 46t43.5 36t9.5 -17t-16 -49
q-61 -121 -157 -217.5t-182 -143.5t-151 -48.5t-87 -1.5h-30q-6 -1 -54 1q-21 1 -40 1q-26 0 -48 -1q-116 -6 -234 -87z" />
    <glyph glyph-name="afii62835" unicode="&#xfee0;&#xfe82;" horiz-adv-x="636" arabic-form="final" 
d="M506 581l-1 241q0 52 6 130q11 139 135 437q6 12 9.5 12t3.5 -16l-21 -211q0 -32 1 -41l-5 -447q-2 -59 -20 -159t-31.5 -142t-41 -102.5t-68.5 -124t-105.5 -112.5t-121 -49t-83.5 21.5t-46 60.5t-19 60t9 24q91 27 91 329v87q0 45 2 133q6 249 122 524q12 25 19.5 24
t5.5 -14q-34 -116 -36.5 -370t-10.5 -344q-18 -202 -123 -363h64q36 0 83 19q95 39 138 127t44 266zM8 1578q-8 -2 -15 -2t-7 7.5t14.5 38.5t61.5 87q48 56 124 114q126 96 259 97h7q36 -3 73 -3t81 1q142 3 302 141q12 10 46 46t43.5 36t9.5 -17t-16 -49
q-61 -121 -157 -217.5t-182 -143.5t-151 -48.5t-87 -1.5h-30q-6 -1 -54 1q-21 1 -40 1q-26 0 -48 -1q-116 -6 -234 -87z" />
    <glyph glyph-name="afii62836" unicode="&#xfedf;&#xfe84;" horiz-adv-x="663" arabic-form="isolated" 
d="M483 581l-1 245q0 52 4 126q9 167 122 437q6 12 9.5 12t3.5 -16t-11.5 -107.5t-11.5 -144.5l-15 -447q0 -59 -18 -159t-31 -142t-35.5 -102.5t-63.5 -124t-105.5 -112.5t-121 -49t-82.5 21q-28 22 -46 59q-20 41 -20 62t9 24q91 27 91 329v87q0 45 2 133q6 249 122 524
q12 25 19.5 24t5.5 -14q-34 -116 -36.5 -373t-10.5 -341q-18 -202 -123 -363q218 0 291 139q51 98 53 273zM127 1384q0 24 79 103v3q-68 27 -68 44v2q1 23 75 96q61 68 82 68l1 -1q35 -1 48.5 -13t13.5 -19v-9q-2 -15 -11.5 -24t-16.5 -9h-1q-7 0 -20.5 9.5t-29 9.5
t-33.5 -12t-18 -25.5t24.5 -27.5t54 -14t70 21t43.5 21h4q2 0 2 -4v-8q-2 -10 -77 -55t-129.5 -95t-60.5 -50q-21 -15 -26.5 -15t-5.5 4z" />
    <glyph glyph-name="afii62837" unicode="&#xfee0;&#xfe84;" horiz-adv-x="636" arabic-form="final" 
d="M506 581l-1 241q0 52 6 130q11 139 135 437q6 12 9.5 12t3.5 -16l-21 -211q0 -32 1 -41l-5 -447q-2 -59 -20 -159t-31.5 -142t-41 -102.5t-68.5 -124t-105.5 -112.5t-121 -49t-83.5 21.5t-46 60.5t-19 60t9 24q91 27 91 329v87q0 45 2 133q6 249 122 524q12 25 19.5 24
t5.5 -14q-34 -116 -36.5 -370t-10.5 -344q-18 -202 -123 -363h64q36 0 83 19q95 39 138 127t44 266zM220 1418q0 24 79 103v3q-68 27 -68 44v2q1 23 75 96q61 68 82 68l1 -1q35 -1 48.5 -13t13.5 -19v-9q-2 -15 -11.5 -24t-16.5 -9h-1q-7 0 -20.5 9.5t-29 9.5t-33.5 -12
t-18 -25.5t24.5 -27.5t54 -14t70 21t43.5 21h4q2 0 2 -4v-8q-2 -10 -77 -55t-129.5 -95t-60.5 -50q-21 -15 -26.5 -15t-5.5 4z" />
    <glyph glyph-name="afii62838" unicode="&#xfedf;&#xfe88;" horiz-adv-x="646" arabic-form="isolated" 
d="M483 581l-1 245q0 52 4 126q9 167 122 437q6 12 9.5 12t3.5 -16t-11.5 -107.5t-11.5 -144.5l-15 -447q0 -59 -18 -159t-31 -142t-35.5 -102.5t-63.5 -124t-105.5 -112.5t-121 -49t-82.5 21q-28 22 -46 59q-20 41 -20 62t9 24q91 27 91 329v87q0 45 2 133q6 249 122 524
q12 25 19.5 24t5.5 -14q-34 -116 -36.5 -373t-10.5 -341q-18 -202 -123 -363q218 0 291 139q51 98 53 273zM23 -437q0 24 79 103v3q-68 27 -68 44v2q1 23 75 96q61 68 82 68l1 -1q35 -1 48.5 -13t13.5 -19v-9q-2 -15 -11.5 -24t-16.5 -9h-1q-7 0 -20.5 9.5t-29 9.5
t-33.5 -12t-18 -25.5t24.5 -27.5t54 -14t70 21t43.5 21h4q2 0 2 -4v-8q-2 -10 -77 -55t-129.5 -95t-60.5 -50q-21 -15 -26.5 -15t-5.5 4z" />
    <glyph glyph-name="afii62839" unicode="&#xfee0;&#xfe88;" horiz-adv-x="636" arabic-form="final" 
d="M506 581l-1 241q0 52 6 130q11 139 135 437q6 12 9.5 12t3.5 -16l-21 -211q0 -32 1 -41l-5 -447q-2 -59 -20 -159t-31.5 -142t-41 -102.5t-68.5 -124t-105.5 -112.5t-121 -49t-83.5 21.5t-46 60.5t-19 60t9 24q91 27 91 329v87q0 45 2 133q6 249 122 524q12 25 19.5 24
t5.5 -14q-34 -116 -36.5 -370t-10.5 -344q-18 -202 -123 -363h64q36 0 83 19q95 39 138 127t44 266zM81 -417q0 24 79 103v3q-68 27 -68 44v2q1 23 75 96q61 68 82 68l1 -1q35 -1 48.5 -13t13.5 -19v-9q-2 -15 -11.5 -24t-16.5 -9h-1q-7 0 -20.5 9.5t-29 9.5t-33.5 -12
t-18 -25.5t24.5 -27.5t54 -14t70 21t43.5 21h4q2 0 2 -4v-8q-2 -10 -77 -55t-129.5 -95t-60.5 -50q-21 -15 -26.5 -15t-5.5 4z" />
    <glyph glyph-name="afii62840" unicode="&#xfedf;&#xfe8e;" horiz-adv-x="663" arabic-form="isolated" 
d="M483 581l-1 245q0 52 4 126q9 167 122 437q6 12 9.5 12t3.5 -16t-11.5 -107.5t-11.5 -144.5l-15 -447q0 -59 -18 -159t-31 -142t-35.5 -102.5t-63.5 -124t-105.5 -112.5t-121 -49t-82.5 21q-28 22 -46 59q-20 41 -20 62t9 24q91 27 91 329v87q0 45 2 133q6 249 122 524
q12 25 19.5 24t5.5 -14q-34 -116 -36.5 -373t-10.5 -341q-18 -202 -123 -363q218 0 291 139q51 98 53 273z" />
    <glyph glyph-name="afii62841" unicode="&#xfee0;&#xfe8e;" horiz-adv-x="636" arabic-form="final" 
d="M506 581l-1 241q0 52 6 130q11 139 135 437q6 12 9.5 12t3.5 -16l-21 -211q0 -32 1 -41l-5 -447q-2 -59 -20 -159t-31.5 -142t-41 -102.5t-68.5 -124t-105.5 -112.5t-121 -49t-83.5 21.5t-46 60.5t-19 60t9 24q91 27 91 329v87q0 45 2 133q6 249 122 524q12 25 19.5 24
t5.5 -14q-34 -116 -36.5 -370t-10.5 -344q-18 -202 -123 -363h64q36 0 83 19q95 39 138 127t44 266z" />
    <glyph glyph-name="LamHa" unicode="&#xfedf;&#xfeea;" horiz-adv-x="876" 
d="M64 -72q-12 -10 -26 -10q-2 0 -4 1q-16 2 -15.5 18.5t38.5 74.5q28 57 65.5 103.5t55 69.5t29.5 38q33 44 90.5 76t90.5 32t73 -10.5t56 -10.5q72 6 113 41q62 56 70 130q3 20 3 50v79q-3 18 -3 29l-3 285q0 228 17.5 267t53.5 141t58 150q11 13 15 13h5q9 -4 9 -25
l-6 -33l-14 -231q-12 -312 -12 -447q-1 -135 -29 -247q-63 -250 -185 -398q-99 -117 -212 -117q-28 0 -71 15.5t-79 15.5t-68 -17t-74 -47z" />
    <glyph glyph-name="TaHa" unicode="&#xfec3;&#xfeea;" horiz-adv-x="1227" 
d="M72 -80q0 12 8 32.5t72 100t118.5 137t108.5 99.5t100 54t70 12t58 -6l45 -6q12 15 22 33l18 30q80 137 91 282q4 68 4 125q0 189 38 292l123 291q7 11 12.5 11.5t8.5 3.5q9 0 9 -26.5t-17 -96.5t-24.5 -156.5t-19 -196.5t-17.5 -137t-30 -102t-24 -80q84 108 108 129
q73 68 156 68q49 0 84 -32q33 -33 33 -111q0 -152 -206 -423q-96 -126 -210.5 -186.5t-222.5 -60.5q-17 0 -87.5 15.5t-132 15.5t-130.5 -37q-4 -6 -71 -46t-81 -40t-14 12zM1125 556q0 18 -49 30q-48 12 -88 12q-84 0 -142 -79l-129 -185q178 0 313 111q41 35 95 111z" />
    <glyph glyph-name="SinHa" unicode="&#xfeb3;&#xfeea;" horiz-adv-x="1345" 
d="M975 211h-24l-59 6q-48 0 -93 -30q0 -1 -84.5 -73t-89.5 -74q-61 -40 -126.5 -40t-126 27.5t-109.5 27.5t-143.5 -45.5t-103.5 -45.5h-1q-4 3 -4 9q0 22 62.5 95.5t135.5 130t152.5 94.5t122 38t97.5 -24.5t103 -24.5q90 0 162 61q22 27 53.5 50.5t57.5 23.5l73 -21
q56 0 90.5 53t44.5 67q20 -6 39.5 -6t35 8t45.5 66t39 58q17 0 17 -21t-32.5 -114.5t-76.5 -139.5t-72 -57.5t-62 -18.5q-49 -34 -78.5 -57t-44.5 -23z" />
    <glyph glyph-name="HeHa" unicode="&#xfea3;&#xfeea;" horiz-adv-x="1132" 
d="M1090 654q18 0 18 -25t-21 -64q-16 -39 -31 -52.5t-33 -23.5q-47 -36 -77 -62q-75 -81 -150 -181.5t-132 -149.5q-108 -96 -228 -96q-28 0 -83 20t-71 21t-21 2q-59 0 -173 -87q-60 -45 -72 -45t-13 16q1 16 29 60t46 69t34 49q42 52 90 101t120 91.5t126 42.5
q18 0 58.5 -13.5t70.5 -13.5q102 0 188.5 75t86.5 104q-32 16 -56.5 27.5t-51 24t-58.5 12.5t-56 -17t-57 -55q-27 -36 -44 -27q-6 1 -6 13t33 70q33 57 56 79q58 62 120 62q31 0 118 -35.5t119.5 -35.5t45 6t38 22t37.5 16z" />
    <glyph glyph-name="BeHa" unicode="&#xfe91;&#xfeea;" horiz-adv-x="684" 
d="M422 -707q-40 -62 -98 -101q-19 -13 -27.5 -13t-28 16.5t-54.5 46.5q-36 30 -60 46q-24 15 -24 19t6 14l160 244q6 8 15 8q7 -1 15 -5q136 -80 136 -163q0 -50 -40 -112zM360 307q75 -12 112 -12q85 0 123 68q9 13 19 27.5t25.5 36t27.5 21.5t12 -24q0 -57 -67 -187
q-83 -177 -219 -225q-21 -9 -65 -9l-112 12q-65 0 -125 -51q-11 -12 -35 -31t-32 -19h-9q-7 2 -7 14q0 43 71 152t120 150q92 77 154 77h7z" />
    <glyph glyph-name="ZadHa" unicode="&#xfebf;&#xfeea;" horiz-adv-x="1579" 
d="M1355 1331q-40 -61 -84 -91q-32 -21 -46 -22q-5 0 -7 3q-36 29 -71 59t-59 46q-24 15 -25 19q0 4 6 14l160 244q6 9 16 9t43 -23t70 -59.5t37 -86.5t-40 -112zM1299 327q-105 -74 -224.5 -74t-207.5 65q-33 0 -80 -74q-57 -81 -99 -126q-87 -102 -211 -102q-51 0 -105 31
t-102 31t-113.5 -39t-158.5 -99q-7 4 -7 22t37 75q62 86 145 173.5t122 116.5q84 61 167 61q42 0 73 -12q83 -37 107 -37q63 0 104 24.5t84.5 78.5t51.5 59q40 40 63.5 40t56.5 -16.5t61 -16.5l104 144q81 108 99 126q94 107 161 107t106 -39q27 -32 27 -71q0 -114 -85 -252
t-176 -196zM1468 670q2 15 -43 32.5t-81 17.5t-87 -47q-23 -18 -135 -168q0 -7 33.5 -7t76.5 5t94 28.5t93 64t49 74.5z" />
    <glyph glyph-name="GheinHa" unicode="&#xfecf;&#xfeea;" horiz-adv-x="1137" 
d="M1000 1333q0 -43 -40 -105t-84 -92q-32 -21 -46 -21q-5 0 -7 3q-36 29 -71 59q-36 29 -60 45q-24 15 -24 20q0 4 6 14l160 244q6 9 14 9q8 -1 22 -9q106 -64 127 -144q3 -11 3 -23zM868 172q-193 -163 -337 -163q-59 0 -125 30.5t-129 30.5t-141 -43t-88 -43t-10 16
q0 49 226 243q37 36 116 82.5t132 46.5t96 -17.5t49 -17.5q43 114 131.5 265.5t202.5 151.5q51 0 83 -24q30 -25 30 -52q0 -65 -51 -65q-8 0 -35 14.5t-77 14.5t-92 -39t-42 -87q-1 -8 -1 -15q0 -33 41 -57.5t78 -24.5q63 0 128 83q63 87 75 87h1q7 -4 7 -26t-50 -112
q-113 -193 -218 -279z" />
    <glyph glyph-name="ShinHa" unicode="&#xfeb7;&#xfeea;" horiz-adv-x="1345" 
d="M1008 1166q0 -25 -6 -37.5t-6.5 -15.5t-2.5 -5l-6 -12l-29 -44q-10 -16 -24 -32q-51 -62 -78 -62h-1q-8 0 -14 6l-93 76q-44 31 -49 35t-5 8.5t5 12.5l153 233q5 7 11.5 7t12.5 -3q132 -68 132 -167zM1110 1408q-51 -62 -79 -70h-9q-8 0 -61 45.5t-93 70.5q-5 7 -5 10.5
t5 11.5l152 234q6 8 13.5 8t40 -20.5t62 -50t42.5 -81.5q2 -7 2 -16q0 -52 -70 -142zM1248 1048q-55 -67 -88 -71q-9 0 -61.5 45.5t-92.5 70.5q-5 7 -5 10.5t5 11.5l152 234q6 8 13.5 8t40 -20.5t62 -50t42.5 -81.5q2 -7 2 -16q0 -51 -70 -141zM975 211h-24l-59 6
q-48 0 -93 -30q0 -1 -84.5 -73t-89.5 -74q-61 -40 -126.5 -40t-126 27.5t-109.5 27.5t-143.5 -45.5t-103.5 -45.5h-1q-4 3 -4 9q0 22 62.5 95.5t135.5 130t152.5 94.5t122 38t97.5 -24.5t103 -24.5q90 0 162 61q22 27 53.5 50.5t57.5 23.5l73 -21q56 0 90.5 53t44.5 67
q20 -6 39.5 -6t35 8t45.5 66t39 58q17 0 17 -21t-32.5 -114.5t-76.5 -139.5t-72 -57.5t-62 -18.5q-49 -34 -78.5 -57t-44.5 -23z" />
    <glyph glyph-name="ZaHa" unicode="&#xfec7;&#xfeea;" horiz-adv-x="1161" 
d="M1328 1507q-40 -61 -84 -91q-32 -21 -46 -22q-5 0 -7 3q-36 29 -71 59q-36 30 -60 46q-24 15 -24 19t6 14l160 244q6 9 16 9t43 -23t70 -59.5t37 -86.5t-40 -112zM6 -80q0 12 8 32.5t72 100t118.5 137t108.5 99.5t100 54t70 12t58 -6l45 -6q12 15 22 33l18 30
q80 137 91 282q4 68 4 125q0 189 38 292l123 291q7 11 12.5 11.5t8.5 3.5q9 0 9 -26t-7 -54.5t-13 -57t-11 -61t-15.5 -136.5t-18 -177.5t-13.5 -100.5t-30 -102t-24 -80q84 108 108 129q73 68 156 68q49 0 84 -32q33 -33 33 -111q0 -152 -206 -423q-96 -126 -210.5 -186.5
t-222.5 -60.5q-17 0 -87.5 15.5t-132 15.5t-130.5 -37q-4 -6 -71 -46t-81 -40t-14 12zM1059 556q0 18 -49 30q-48 12 -88 12q-84 0 -142 -79l-129 -185q178 0 313 111q41 35 95 111z" />
    <glyph glyph-name="GhafHa" unicode="&#xfed7;&#xfeea;" horiz-adv-x="943" 
d="M728 1570l5 -30v-14l-1 -9l-3 -12l-1 -6l-8 -20q-9 -24 -15 -30.5t-6 -8.5l-12 -18q-8 -12 -10 -15.5t-9 -10.5l-16 -20q-2 -2 -8 -11t-18 -16q-23 -23 -40 -28h-8q-11 0 -57.5 41.5t-72 58t-28 19.5t-2.5 7t5 12l153 233q0 1 4.5 6t8 5t7.5 -4l7 -3q2 -2 4 -2.5t4 -2
t6 -3.5t31 -18.5t53.5 -53t26.5 -46.5zM972 1410q-51 -62 -79 -70h-9q-8 0 -61 45.5t-93 70.5q-5 7 -5 10.5t5 11.5l152 234q6 8 13.5 8t40 -20.5t62 -50t42.5 -81.5q2 -7 2 -16q0 -52 -70 -142zM56 -77q-34 0 -34 30q0 18 57 105.5t113 146.5q133 155 267 155q40 0 80 -10
t49 -10q75 0 143 43t68 77q0 19 -61 68q-45 -27 -91.5 -27t-80.5 27t-34 85q0 6 49.5 123t79 154t59.5 37q78 0 151 -75q72 -77 72 -192q0 -101 -55 -230q-100 -231 -242 -354q-94 -76 -190 -76q-38 0 -89 18.5t-97 18.5q-80 0 -170 -85q-32 -29 -44 -29z" />
    <glyph glyph-name="TeHa" unicode="&#xfe97;&#xfeea;" horiz-adv-x="684" 
d="M603 1119l2 -14v-14l-1 -9l-3 -12l-1 -6l-8 -20q-9 -24 -15 -30.5t-6 -8.5l-12 -18q-8 -12 -10 -15.5t-9 -10.5l-16 -20q-2 -1 -8 -10l-28 -27q-17 -14 -30 -18h-7q-9 0 -57 41.5t-73.5 58t-28 19.5t-2.5 7t5 12l153 233q0 1 4.5 6t8 5t7.5 -4l7 -3q2 -2 4 -2.5t4 -2
t5 -3t10 -6.5t28 -17.5t47.5 -48t26.5 -46t3 -16.5zM844 976q-55 -67 -88 -71q-9 0 -61.5 45.5t-92.5 70.5q-5 7 -5 10.5t5 11.5l152 234q6 8 13.5 8t40 -20.5t62 -50t42.5 -81.5q2 -7 2 -16q0 -51 -70 -141zM15 -85q-10 3 -10 24t63 125q150 242 282 242h11
q69 -10 108.5 -10t72 15t58.5 54.5t40.5 61t26.5 21.5t12 -40.5t-51.5 -144t-103.5 -163.5t-96 -78.5t-100 -18.5l-112 12q-64 0 -123.5 -50t-77.5 -50z" />
    <glyph glyph-name="SeHa" unicode="&#xfe9b;&#xfeea;" horiz-adv-x="684" 
d="M509 1246q132 -69 132 -181q0 -12 -6 -24t-6.5 -15t-2.5 -5l-6 -12l-29 -44q-8 -12 -24 -31q-52 -63 -79 -63q-8 0 -14 6l-93 76q-44 31 -49 35t-5 8.5t5 12.5l153 233q5 7 11 7t13 -3zM813 1463q-1 -71 -105 -181q-29 -30 -53 -31q-9 0 -61.5 45.5t-92.5 70.5
q-5 7 -5 10.5t5 11.5l152 234q6 8 13.5 8t40 -20.5t62 -50t42.5 -81.5q2 -7 2 -16zM802 890h-9q-8 0 -61 45.5t-93 70.5q-5 7 -5 10.5t5 11.5l152 234q6 8 13.5 8t40 -20.5t62 -50t42.5 -81.5q2 -7 2 -16q-1 -52 -61.5 -128t-87.5 -84zM15 -85q-10 3 -10 24t63 125
q150 242 282 242h11q69 -10 108.5 -10t72 15t58.5 54.5t40.5 61t26.5 21.5t12 -40.5t-51.5 -144t-103.5 -163.5t-96 -78.5t-100 -18.5l-112 12q-64 0 -123.5 -50t-77.5 -50z" />
    <glyph glyph-name="PeHa" unicode="&#xfb58;&#xfeea;" horiz-adv-x="684" 
d="M509 -681v-15q-4 -31 -22 -67l-12 -19q-1 -2 -3 -4t-7.5 -11t-10 -15t-6.5 -9l-20 -25q-18 -20 -20 -21.5t-12.5 -12t-16.5 -14t-7.5 -4t-9.5 -4.5q-2 -1 -5 0q-7 0 -18 8l-98 81q-12 9 -29.5 21t-17.5 16.5t5 12.5l153 233q7 10 12 10h2q5 -2 6 -2l23 -13q16 -10 36 -25
l22 -18l17 -18q29 -33 39 -85zM496 -1270h-9q-8 0 -61 45.5t-93 70.5q-5 7 -5 10.5t5 11.5l152 234q11 14 29 2q56 -34 86 -64t43 -82q2 -7 2 -16q-1 -52 -61.5 -128t-87.5 -84zM748 -812q-51 -62 -79 -70h-9q-8 0 -61 45.5t-93 70.5q-5 7 -5 10.5t5 11.5l152 234q6 8 14 8
t16 -6q56 -34 85.5 -64t42.5 -82q2 -7 2 -16q0 -52 -70 -142zM15 -85q-10 3 -10 24t63 125q150 242 282 242h11q69 -10 108.5 -10t72 15t58.5 54.5t40.5 61t26.5 21.5t12 -40.5t-51.5 -144t-103.5 -163.5t-96 -78.5t-100 -18.5l-112 12q-64 0 -123.5 -50t-77.5 -50z" />
    <glyph glyph-name="NeHa" unicode="&#xfee7;&#xfeea;" horiz-adv-x="684" 
d="M669 917q-40 -61 -84 -91q-32 -21 -46 -22q-5 0 -7 3q-36 29 -71 59t-59 46q-24 15 -25 19q0 4 6 14l160 244q6 9 16 9t43 -23t70 -59.5t37 -86.5t-40 -112zM15 -85q-10 3 -10 24t63 125q150 242 282 242h11q69 -10 108.5 -10t72 15t58.5 54.5t40.5 61t26.5 21.5
t12 -40.5t-51.5 -144t-103.5 -163.5t-96 -78.5t-100 -18.5l-112 12q-64 0 -123.5 -50t-77.5 -50z" />
    <glyph glyph-name="YeHa" unicode="&#xfbfe;&#xfeea;" horiz-adv-x="684" 
d="M421 -764l2 -14v-14l-1 -9l-3 -12l-1 -6l-8 -20q-9 -24 -15 -30.5t-6 -8.5l-12 -18q-8 -12 -10 -15.5t-9 -10.5l-16 -20q-2 -2 -8 -11t-18 -16q-23 -23 -40 -28h-7h-6t-52 41.5t-72.5 58t-28 19.5t-2.5 7t5 12l153 233q0 1 6 8q3 3 6 3q4 0 8 -4l7 -3q2 -2 4 -2.5t4 -2
t6 -3.5t31 -18.5t53.5 -52.5t26.5 -46.5t3 -16.5zM662 -908q-51 -62 -79 -70h-9q-8 0 -61 45.5t-93 70.5q-5 7 -5 10.5t5 11.5l152 234q6 8 14 8t16 -6q56 -34 85.5 -64t42.5 -82q2 -7 2 -16q0 -52 -70 -142zM15 -85q-10 3 -10 24t63 125q150 242 282 242h11
q69 -10 108.5 -10t72 15t58.5 54.5t40.5 61t26.5 21.5t12 -40.5t-51.5 -144t-103.5 -163.5t-96 -78.5t-100 -18.5l-112 12q-64 0 -123.5 -50t-77.5 -50z" />
    <glyph glyph-name="EeHa" unicode="&#xfe8b;&#xfeea;" horiz-adv-x="684" 
d="M584 1062q38 21 43 21t5 -4.5t-1 -10.5t-76.5 -51.5t-130 -95.5t-60.5 -50q-21 -15 -26.5 -15t-5.5 4q0 24 79 103v3q-68 27 -68 44q0 24 75 98q62 68 82 68h14q22 -2 35.5 -13.5t13.5 -27t-10.5 -25t-14.5 -9.5h-4q-7 1 -20.5 10t-29 9t-33.5 -12.5t-18 -26t23.5 -27
t56.5 -13.5t71 21zM15 -85q-10 3 -10 24t63 125q150 242 282 242h11q69 -10 108.5 -10t72 15t58.5 54.5t40.5 61t26.5 21.5t12 -40.5t-51.5 -144t-103.5 -163.5t-96 -78.5t-100 -18.5l-112 12q-64 0 -123.5 -50t-77.5 -50z" />
    <glyph glyph-name="KheHa" unicode="&#xfea7;&#xfeea;" horiz-adv-x="1132" 
d="M847 1235q-40 -61 -84 -91q-32 -21 -46 -22q-5 0 -7 3q-36 29 -71 59t-59 46q-24 15 -25 19q0 4 6 14l160 244q6 9 16 9t43 -23t70 -59.5t37 -86.5t-40 -112zM1090 654q18 0 18 -25t-21 -64q-16 -39 -31 -52.5t-33 -23.5q-47 -36 -77 -62q-75 -81 -150 -181.5
t-132 -149.5q-108 -96 -228 -96q-28 0 -83 20t-71.5 21t-20.5 2q-59 0 -173 -87q-60 -45 -72.5 -45t-12.5 16t28.5 60t46.5 69t34 49q42 52 90 101t120 91.5t126 42.5q18 0 58.5 -13.5t70.5 -13.5q102 0 188.5 75t86.5 104q-32 16 -56.5 27.5t-51 24t-58.5 12.5t-56 -17
t-57 -55q-27 -36 -44 -27q-6 1 -6 13.5t33 69.5t56 79q58 62 120 62q31 0 118 -35.5t119.5 -35.5t45 6t38 22t37.5 16z" />
    <glyph glyph-name="JimHa" unicode="&#xfe9f;&#xfeea;" horiz-adv-x="1132" 
d="M726 -841q-40 -62 -98 -101q-19 -13 -27.5 -13t-28 16.5t-54.5 46.5q-36 30 -60 46q-24 15 -24 19t6 14l160 244q6 8 15 8q7 -1 15 -5q136 -80 136 -163q0 -50 -40 -112zM1090 654q18 0 18 -25t-21 -64q-16 -39 -31 -52.5t-33 -23.5q-47 -36 -77 -62q-75 -81 -150 -181.5
t-132 -149.5q-108 -96 -228 -96q-28 0 -83 20t-71.5 21t-20.5 2q-59 0 -173 -87q-60 -45 -72.5 -45t-12.5 16t28.5 60t46.5 69t34 49q42 52 90 101t120 91.5t126 42.5q18 0 58.5 -13.5t70.5 -13.5q102 0 188.5 75t86.5 104q-32 16 -56.5 27.5t-51 24t-58.5 12.5t-56 -17
t-57 -55q-27 -36 -44 -27q-6 1 -6 13.5t33 69.5t56 79q58 62 120 62q31 0 118 -35.5t119.5 -35.5t45 6t38 22t37.5 16z" />
    <glyph glyph-name="CheHa" unicode="&#xfb7c;&#xfeea;" horiz-adv-x="1132" 
d="M705 -870l-14 -5q-7 0 -18 8l-98 81q-12 9 -29.5 21t-17.5 16.5t5 12.5l153 233q7 10 10 10h4q5 -2 6 -2l23 -13q16 -10 36 -25l22 -18l17 -18q29 -33 39 -85v-15q-4 -31 -22 -67l-12 -19q-3 -3 -9.5 -14.5t-11 -16.5t-6.5 -8l-20 -25q-18 -20 -20 -21.5t-12 -11.5
q-18 -18 -25 -18zM979 -1031q-1 -71 -105 -181q-29 -30 -53 -31q-9 0 -61.5 45.5t-92.5 70.5q-5 7 -5 10.5t5 11.5l152 234q6 8 13.5 8t39.5 -19q85 -52 105 -133q2 -7 2 -16zM1082 -784q-55 -67 -88 -71q-9 0 -61.5 45.5t-92.5 70.5q-5 7 -5 10.5t5 11.5l152 234q6 8 16 8
q50 -19 90 -59q54 -56 54 -108t-70 -142zM573 484q-22 -29 -36 -29t-14 14t33 71t56 79q58 62 120 62q31 0 118 -35.5t119.5 -35.5t45 6t38 22t37.5 16q18 0 18 -25t-21 -64q-16 -39 -31 -52.5t-33 -23.5q-47 -36 -77 -62q-75 -81 -150 -181.5t-132 -149.5
q-108 -96 -228 -96q-28 0 -83 20t-71.5 21t-20.5 2q-59 0 -173 -87q-60 -45 -72.5 -45t-12.5 16t28.5 60t46.5 69t34 49q42 52 90 101t120 91.5t126 42.5q18 0 58.5 -13.5t70.5 -13.5q102 0 188.5 75t86.5 104q-32 16 -56.5 27.5t-51 24t-58.5 12.5t-56 -17t-57 -55z" />
    <glyph glyph-name="GafHa" unicode="&#xfb94;&#xfeea;" horiz-adv-x="886" 
d="M899.5 1583.5q54.5 71.5 106 111.5t113.5 79t530 354.5t615.5 430.5t154.5 124q9 7 17 7q2 0 3 -4q0 -9 -10 -35q-15 -39 -145 -198q-398 -360 -1296 -890q-50 -34 -97 -61q-24 -14 -35 -14t-11 12t54.5 83.5zM2124 2549q-71 -67 -405 -289q-7 -1 3.5 19t37.5 51
q88 69 245 176.5t160 107.5t3 -6.5t-44 -58.5zM58 -72q-11 -10 -24 -10q-2 0 -4 1q-16 2 -16 13.5t8 29.5t35 64t66.5 103t75.5 98t84 72.5t91 31.5t82.5 -10.5t53.5 -10.5q73 6 114.5 41.5t57.5 81.5q15 29 15 98q0 468 5 553.5t18 115.5t41 120.5t59 161.5q12 13 20.5 13
t8.5 -15.5t-8 -42.5q-12 -133 -17 -328.5t-7 -258t-2.5 -144.5t-26.5 -194q-58 -246 -185 -398q-99 -117 -212 -117q-27 0 -69.5 15.5t-78.5 15.5q-78 0 -144 -64z" />
    <glyph glyph-name="HaHa" unicode="&#x6be;&#xfeea;" horiz-adv-x="1300" 
d="M990.5 651.5q41.5 42.5 79 42.5t98.5 -52q15 22 32.5 61t23.5 39q34 0 55 -34.5t21 -82.5t-43.5 -123t-115.5 -75q-21 0 -50 18t-58 18q-61 0 -111 -91q-22 -47 -47 -92t-47 -90q-125 -190 -288 -190q-32 0 -88 20t-102 20t-103.5 -28.5t-99 -64.5t-56.5 -40
q-9 -5 -19 -5q-7 0 -15 3q-2 3 -2 17.5t53 85.5q124 168 271 283q99 72 164 72l147 -20q103 0 165 87q61 109 77.5 144t58 77.5zM1145 24q-150 -278 -150 -365q0 -9 48 -30.5t48 -74t-26.5 -90t-64.5 -37.5t-56 36q-17 39 -17 82q1 109 92 294t124 185h2z" />
    <glyph glyph-name="Ein_Re" unicode="&#xfecb;&#xfeae;" horiz-adv-x="1177" 
d="M379 414l-199 -287q-154 -209 -346 -324q-126 -77 -167 -77q-10 0 -15 4q6 12 8 24q74 49 121 84q112 92 159 141q97 99 191 248l186 277q76 110 138.5 162.5t125.5 85.5q-8 12 -24.5 34.5t-16.5 52t33 81t110 138.5t122 118.5t81.5 31.5t61.5 -25.5t25 -57t-16.5 -56.5
t-45.5 -25q-24 13 -34.5 23t-50.5 10t-80 -35.5t-40 -64.5q0 -21 48.5 -41.5t118 -20.5t138.5 31q72 41 84 47q27 19 39 1q4 -6 4 -18t-20 -40t-102 -100t-121 -95t-187 -91t-213 -116.5t-116 -119.5z" />
    <glyph glyph-name="Ein_Ze" unicode="&#xfecb;&#xfeb0;" horiz-adv-x="1167" 
d="M450 1523q-40 -61 -84 -91q-32 -21 -46 -22q-5 0 -7 3q-36 29 -71 59q-36 30 -60 46q-24 15 -24 19t6 14l160 244q6 9 16 9t43 -23t70 -59.5t37 -86.5t-40 -112zM379 414l-199 -287q-154 -209 -346 -324q-126 -77 -167 -77q-10 0 -15 4q6 12 8 24q74 49 121 84
q112 92 159 141q97 99 191 248l186 277q76 110 138.5 162.5t125.5 85.5q-8 12 -24.5 34.5t-16.5 52t33 81t110 138.5t122 118.5t81.5 31.5t61.5 -25.5t25 -57t-16.5 -56.5t-45.5 -25q-24 13 -34.5 23t-50.5 10t-80 -35.5t-40 -64.5q0 -21 48.5 -41.5t118 -20.5t138.5 31
q72 41 84 47q27 19 39 1q4 -6 4 -17.5t-20 -40.5t-102 -100.5t-121 -94t-187.5 -91t-213 -117t-115.5 -119.5z" />
    <glyph glyph-name="Ghein_Re" unicode="&#xfecf;&#xfeae;" horiz-adv-x="1144" 
d="M976 1773q0 -43 -40 -105t-84 -92q-32 -21 -46 -21q-5 0 -7 3q-36 29 -71 59q-36 29 -60 45q-24 15 -24 20q0 4 6 14l160 244q6 9 14 9q8 -1 22 -9q106 -64 127 -144q3 -11 3 -23zM379 414l-199 -287q-154 -209 -346 -324q-126 -77 -167 -77q-10 0 -15 4q6 12 8 24
q74 49 121 84q112 92 159 141q97 99 191 248l186 277q76 110 138.5 162.5t125.5 85.5q-8 12 -24.5 34.5t-16.5 52t33 81t110 138.5t122 118.5t81.5 31.5t61.5 -25.5t25 -57t-16.5 -56.5t-45.5 -25q-24 13 -34.5 23t-50.5 10t-80 -35.5t-40 -64.5q0 -21 48.5 -41.5t118 -20.5
t138.5 31q72 41 84 47q27 19 39 1q4 -6 4 -17.5t-20 -40.5t-102 -100.5t-121 -94t-187.5 -91t-213 -117t-115.5 -119.5z" />
    <glyph glyph-name="Ghein_Ze" unicode="&#xfecf;&#xfeb0;" horiz-adv-x="1173" 
d="M980 1921q0 -43 -40 -105t-84 -92q-32 -21 -46 -21q-5 0 -7 3q-36 29 -71 59q-36 29 -60 45q-24 15 -24 20q0 4 6 14l160 244q6 9 14 9q8 -1 22 -9q106 -64 127 -144q3 -11 3 -23zM427 1545q0 -43 -40 -105t-84 -92q-32 -21 -46 -21q-5 0 -7 3q-36 29 -71 59
q-35 29 -59 45q-24 15 -25 20q0 4 6 14l160 244q6 9 14 9q8 -1 22 -9q106 -64 127 -144q3 -11 3 -23zM379 414l-199 -287q-154 -209 -346 -324q-126 -77 -167 -77q-10 0 -15 4q6 12 8 24q74 49 121 84q112 92 159 141q97 99 191 248l186 277q76 110 138.5 162.5t125.5 85.5
q-8 12 -24.5 34.5t-16.5 52t33 81t110 138.5t122 118.5t81.5 31.5t61.5 -25.5t25 -57t-16.5 -56.5t-45.5 -25q-24 13 -34.5 23t-50.5 10t-80 -35.5t-40 -64.5q0 -21 48.5 -41.5t118 -20.5t138.5 31q72 41 84 47q27 19 39 1q4 -6 4 -17.5t-20 -40.5t-102 -100.5t-121 -94
t-187.5 -91t-213 -117t-115.5 -119.5z" />
    <glyph glyph-name="He_Re" unicode="&#x6be;&#xfeae;" horiz-adv-x="1233" 
d="M-111 12q0 49 207 169q118 52 218 143q46 42 90 134t73 131q42 62 168 126q-24 17 -24 61q0 86 91 253q20 58 35 113.5t30 55.5q37 -31 98.5 -69.5t160 -57t132 -52.5t33.5 -101.5t-51 -130.5t-106 -63l-62 3q-73 0 -91 -16.5t-49 -50t-66.5 -56.5t-121.5 -60
t-135.5 -86.5t-84.5 -118.5q-100 -197 -130 -237q-34 -35 -132.5 -67t-215.5 -32q-8 -1 -24 -1t-43 10zM863 834.5q37 32.5 37 58t-38.5 51.5t-72 26t-70.5 -33.5t-37 -66t13.5 -50.5t72 -18t95.5 32.5zM1008 943h-2q-57 0 -57 -67v-2q0 -28 9 -42l102 -6q6 -1 12 -1
q53 3 53 43q0 24 -40.5 49.5t-76.5 25.5z" />
    <glyph glyph-name="He_Ze" unicode="&#x6be;&#xfeb0;" horiz-adv-x="1316" 
d="M772 1699q0 -50 -40 -111.5t-84 -91.5q-33 -22 -46 -22q-5 0 -7 3q-36 29 -71.5 59t-59.5 45.5t-24 19.5t6 14l160 244q6 9 16 9t43 -23t70 -59.5t37 -86.5zM-41 12q0 49 207 169q118 52 218 143q46 42 90.5 134t72.5 131q42 62 168 126q-24 17 -24 61q0 84 92 253
q19 58 34 113.5t30 55.5q38 -31 99.5 -69.5t159.5 -57t132 -52.5t34 -101.5t-51 -130.5t-107 -63l-61 3q-74 0 -92 -16.5t-48.5 -50t-68.5 -57.5t-121.5 -60t-133 -85.5t-85.5 -118.5q-105 -205 -129 -237q-35 -35 -133 -67t-215 -32q-7 -1 -23 -1t-45 10zM933.5 834.5
q36.5 32.5 36.5 58t-38 51.5t-72 26t-70.5 -33.5t-36.5 -66t13.5 -50.5t72 -18t95 32.5zM1079 943h-2q-57 0 -57 -69q0 -28 9 -42l102 -6q6 -1 12 -1q51 3 52 43q0 23 -40.5 49t-75.5 26z" />
    <glyph glyph-name="He_Zh" unicode="&#x6be;&#xfb8b;" horiz-adv-x="1342" 
d="M796 1759v-18q0 -12 -6 -24.5t-6.5 -15.5t-2.5 -5l-6 -12l-29 -44q-10 -16 -24 -32q-51 -62 -78 -62h-1q-8 0 -14 6l-93 76q-44 31 -49 35t-5 8.5t5 12.5l153 233q5 7 11 7t13 -3q125 -64 132 -162zM898 1996q-51 -62 -79 -70h-9q-8 0 -61 45.5t-93 70.5q-5 7 -5 10.5
t5 11.5l152 234q6 8 13.5 8t40 -20.5t62 -50t42.5 -81.5q2 -7 2 -16q0 -52 -70 -142zM1036 1636q-55 -67 -88 -71q-9 0 -61.5 45.5t-92.5 70.5q-5 7 -5 10.5t5 11.5l152 234q6 8 13.5 8t40 -20.5t62 -50t42.5 -81.5q2 -7 2 -16q0 -51 -70 -141zM-20 12q0 49 207 169
q117 52 217 143q46 42 91 134t73 131q42 62 168 126q-24 17 -24 61q0 84 92 253q19 58 34 113.5t30 55.5q38 -31 99.5 -69.5t159.5 -57t132 -52.5t34 -101.5t-51 -130.5t-107 -63l-61 3q-74 0 -92 -16.5t-49 -50.5t-69 -57.5t-121 -59t-132 -85.5t-85 -119
q-105 -205 -130 -237q-35 -35 -133 -67t-215 -32q-7 -1 -23 -1t-45 10zM954.5 834.5q36.5 32.5 36.5 58t-38 51.5t-72 26t-70.5 -33.5t-36.5 -66t13.5 -50.5t72 -18t95 32.5zM1100 943h-2q-57 0 -57 -69q0 -28 9 -42l102 -6q6 -1 12 -1q52 3 52 43q0 24 -40.5 49.5
t-75.5 25.5z" />
    <glyph glyph-name="Be_Re" unicode="&#xfe91;&#xfeae;" horiz-adv-x="958" 
d="M754 -511q0 -43 -40 -105t-98 -101q-20 -13 -28 -13q-9 0 -63.5 46t-78.5 61.5t-24 20t6 14.5l160 244q6 8 14 8t16 -4q111 -65 133 -148q3 -11 3 -23zM-2 5q-10 -1 -31.5 -1t-21.5 16v1q0 30 63 71q197 129 273.5 188t107.5 126q18 35 33 68q16 33 32 65q69 133 149 189
q44 30 111 64t88 93q33 77 63 80q15 -2 15 -16.5t-13 -55.5t-33.5 -114.5t-78.5 -136.5q-57 -57 -126 -84.5t-106 -72.5q-26 -28 -45 -77.5t-39.5 -104.5t-45 -107.5t-61.5 -86.5q-51 -54 -151 -73z" />
    <glyph glyph-name="Be_Ze" unicode="&#xfe91;&#xfeb0;" horiz-adv-x="924" 
d="M716 -617q-40 -62 -98 -101q-20 -13 -28 -13q-9 0 -63.5 46.5t-78.5 62t-24 19.5t6 14l160 244q6 7 14 7q7 0 16 -4q136 -80 136 -163q0 -50 -40 -112zM565 1213q-40 -62 -78 -87.5t-47.5 -25.5t-28.5 16t-54 46t-59 45.5t-25 19.5q0 4 6 14l160 244q6 9 16 9t43 -23
t70 -59.5t37 -86.5t-40 -112zM-2 5q-10 -1 -31.5 -1t-21.5 16v1q0 30 63 71q197 129 273.5 188t107.5 126q18 35 33 68q16 33 32 65q69 133 149 189q44 30 111 64t88 93q33 77 63 80q15 -2 15 -16.5t-13 -55.5t-33.5 -114.5t-78.5 -136.5q-57 -57 -126 -84.5t-106 -72.5
q-26 -28 -45 -77.5t-39.5 -104.5t-45 -107.5t-61.5 -86.5q-51 -54 -151 -73z" />
    <glyph glyph-name="Be_Zh" unicode="&#xfe91;&#xfb8b;" horiz-adv-x="1038" 
d="M828 -503q0 -43 -40 -105t-98 -101q-20 -13 -28 -13q-9 0 -63.5 46t-78.5 61.5t-24 20t6 14.5l160 244q6 8 14 8t16 -4q111 -65 133 -148q3 -11 3 -23zM390 1500q132 -68 132 -180q0 -12 -6 -24.5t-6.5 -15.5t-2.5 -5l-6 -12l-29 -44q-8 -12 -24 -31q-52 -63 -79 -63
q-8 0 -14 6l-93 76q-44 31 -49 35t-5 8.5t5 12.5l153 233q5 7 11 7t13 -3zM624 1576q-55 -67 -88 -71q-9 0 -61.5 45.5t-92.5 70.5q-5 7 -5 10.5t5 11.5l152 234q6 8 13.5 8t40 -20.5t62 -50t42.5 -81.5q2 -7 2 -16q0 -51 -70 -141zM762 1214q-51 -62 -79 -70h-9
q-8 0 -61 45.5t-93 70.5q-5 7 -5 10.5t5 11.5l152 234q6 8 13.5 8t40 -20.5t62 -50t42.5 -81.5q2 -7 2 -16q0 -52 -70 -142zM-2 5q-10 -1 -31.5 -1t-21.5 16v1q0 30 63 71q197 129 273.5 188t107.5 126q18 35 33 68q16 33 32 65q69 133 149 189q44 30 111 64t88 93
q33 77 63 80q15 -2 15 -16.5t-13 -55.5t-33.5 -114.5t-78.5 -136.5q-57 -57 -126 -84.5t-106 -72.5q-26 -28 -45 -77.5t-39.5 -104.5t-45 -107.5t-61.5 -86.5q-51 -54 -151 -73z" />
    <glyph glyph-name="Te_Re" unicode="&#xfe97;&#xfeae;" horiz-adv-x="1000" 
d="M878 1618l5 -30v-14l-1 -9l-3 -12l-1 -6l-8 -20q-9 -24 -15 -30.5t-6 -8.5l-12 -18q-8 -12 -10 -15.5t-9 -10.5l-16 -20q-2 -2 -8 -11t-18 -16q-23 -23 -40 -28h-8q-11 0 -57.5 41.5t-72 58t-28 19.5t-2.5 7t5 12l153 233q0 1 4.5 6t8 5t7.5 -4l7 -3q2 -2 4 -2.5t4 -2
t6 -3.5t31 -18.5t53.5 -53t26.5 -46.5zM1122 1458q-51 -62 -79 -70h-9q-8 0 -61 45.5t-93 70.5q-5 7 -5 10.5t5 11.5l152 234q6 8 13.5 8t40 -20.5t62 -50t42.5 -81.5q2 -7 2 -16q0 -52 -70 -142zM-2 5q-10 -1 -31.5 -1t-21.5 16v1q0 30 63 71q197 129 273.5 188t107.5 126
q18 35 33 68q16 33 32 65q69 133 149 189q44 30 111 64t88 93q33 77 63 80q15 -2 15 -16.5t-13 -55.5t-33.5 -114.5t-78.5 -136.5q-57 -57 -126 -84.5t-106 -72.5q-26 -28 -45 -77.5t-39.5 -104.5t-45 -107.5t-61.5 -86.5q-51 -54 -151 -73z" />
    <glyph glyph-name="Te_Ze" unicode="&#xfe97;&#xfeb0;" horiz-adv-x="1057" 
d="M977 1899l2 -14v-14l-1 -9l-3 -12l-1 -6l-8 -20q-9 -24 -15 -30.5t-6 -8.5l-12 -18q-8 -12 -10 -15.5t-9 -10.5l-16 -20q-2 -1 -8 -10l-28 -27q-17 -14 -30 -18h-7q-9 0 -57 41.5t-73.5 58t-28 19.5t-2.5 7t5 12l153 233q0 1 4.5 6t8 5t7.5 -4l7 -3q2 -2 4 -2.5t4 -2
t5 -3t10 -6.5t28 -17.5t47.5 -48t26.5 -46t3 -16.5zM1218 1756q-55 -67 -88 -71q-9 0 -61.5 45.5t-92.5 70.5q-5 7 -5 10.5t5 11.5l152 234q6 8 13.5 8t40 -20.5t62 -50t42.5 -81.5q2 -7 2 -16q0 -51 -70 -141zM665 1445q0 -50 -40 -111.5t-84 -91.5q-33 -22 -46 -22
q-5 0 -7 3q-36 29 -71 59t-59 45.5t-25 19.5q0 4 6 14l160 244q6 9 16 9t43 -23t70 -59.5t37 -86.5zM-2 5q-10 -1 -31.5 -1t-21.5 16v1q0 30 63 71q197 129 273.5 188t107.5 126q18 35 33 68q16 33 32 65q69 133 149 189q44 30 111 64t88 93q33 77 63 80q15 -2 15 -16.5
t-13 -55.5t-33.5 -114.5t-78.5 -136.5q-57 -57 -126 -84.5t-106 -72.5q-26 -28 -45 -77.5t-39.5 -104.5t-45 -107.5t-61.5 -86.5q-51 -54 -151 -73z" />
    <glyph glyph-name="Ne_Re" unicode="&#xfee7;&#xfeae;" horiz-adv-x="967" 
d="M950 1575q0 -50 -40 -111.5t-84 -91.5q-33 -22 -46 -22q-5 0 -7 3q-36 29 -71.5 59t-59.5 45.5t-24 19.5t6 14l160 244q6 9 16 9t43 -23t70 -59.5t37 -86.5zM-2 5q-10 -1 -31.5 -1t-21.5 16v1q0 30 63 71q197 129 273.5 188t107.5 126q18 35 33 68q16 33 32 65
q69 133 149 189q44 30 111 64t88 93q33 77 63 80q15 -2 15 -16.5t-13 -55.5t-33.5 -114.5t-78.5 -136.5q-57 -57 -126 -84.5t-106 -72.5q-26 -28 -45 -77.5t-39.5 -104.5t-45 -107.5t-61.5 -86.5q-51 -54 -151 -73z" />
    <glyph glyph-name="Ne_Ze" unicode="&#xfee7;&#xfeb0;" horiz-adv-x="1008" 
d="M998 1723q0 -50 -40 -111.5t-84 -91.5q-33 -22 -46 -22q-5 0 -7 3q-36 29 -71.5 59t-59.5 45.5t-24 19.5t6 14l160 244q6 9 16 9t43 -23t70 -59.5t37 -86.5zM523 1341q0 -43 -40 -105t-84 -92q-32 -21 -41.5 -21t-28.5 16t-54 45.5t-59 45t-25 20.5q0 4 6 14l160 244
q10 15 36 0q106 -64 127 -144q3 -11 3 -23zM-2 5q-10 -1 -31.5 -1t-21.5 16v1q0 30 63 71q197 129 273.5 188t107.5 126q18 35 33 68q16 33 32 65q69 133 149 189q44 30 111 64t88 93q33 77 63 80q15 -2 15 -16.5t-13 -55.5t-33.5 -114.5t-78.5 -136.5q-57 -57 -126 -84.5
t-106 -72.5q-26 -28 -45 -77.5t-39.5 -104.5t-45 -107.5t-61.5 -86.5q-51 -54 -151 -73z" />
    <glyph glyph-name="Ne_Zh" unicode="&#xfee7;&#xfb8b;" horiz-adv-x="982" 
d="M990 1949q0 -50 -40 -111.5t-84 -91.5q-33 -22 -46 -22q-5 0 -7 3q-36 29 -71.5 59t-59.5 45.5t-24 19.5t6 14l160 244q6 9 16 9t43 -23t70 -59.5t37 -86.5zM205 1438q131 -68 131 -181q0 -12 -5.5 -24t-6 -15t-2.5 -5l-6 -12l-29 -44q-8 -12 -24 -31q-52 -63 -79 -63
q-8 0 -14 6l-93 76q-44 31 -49 35t-5 8.5t5 12.5l153 233q5 7 11.5 7t12.5 -3zM509 1655q-1 -71 -105 -181q-29 -30 -53 -31q-9 0 -61.5 45.5t-92.5 70.5q-5 7 -5 10.5t5 11.5l152 234q6 8 13.5 8t40 -20.5t62 -50t42.5 -81.5q2 -7 2 -16zM498 1082h-9q-8 0 -61 45.5
t-93 70.5q-5 7 -5 10.5t5 11.5l152 234q6 8 13.5 8t40 -20.5t62 -50t42.5 -81.5q2 -7 2 -16q-1 -52 -61.5 -128t-87.5 -84zM-2 5q-10 -1 -31.5 -1t-21.5 16v1q0 30 63 71q197 129 273.5 188t107.5 126q18 35 33 68q16 33 32 65q69 133 149 189q44 30 111 64t88 93
q33 77 63 80q15 -2 15 -16.5t-13 -55.5t-33.5 -114.5t-78.5 -136.5q-57 -57 -126 -84.5t-106 -72.5q-26 -28 -45 -77.5t-39.5 -104.5t-45 -107.5t-61.5 -86.5q-51 -54 -151 -73z" />
    <glyph glyph-name="Se_Re" unicode="&#xfe9b;&#xfeae;" horiz-adv-x="939" 
d="M639 1742q132 -69 132 -181q0 -12 -6 -24t-6.5 -15t-2.5 -5l-6 -12l-29 -44q-8 -12 -24 -31q-52 -63 -79 -63q-8 0 -14 6l-93 76q-44 31 -49 35t-5 8.5t5 12.5l153 233q5 7 11 7t13 -3zM943 1959q-1 -71 -105 -181q-29 -30 -53 -31q-9 0 -61.5 45.5t-92.5 70.5
q-5 7 -5 10.5t5 11.5l152 234q6 8 13.5 8t40 -20.5t62 -50t42.5 -81.5q2 -7 2 -16zM932 1386h-9q-8 0 -61 45.5t-93 70.5q-5 7 -5 10.5t5 11.5l152 234q6 8 13.5 8t40 -20.5t62 -50t42.5 -81.5q2 -7 2 -16q-1 -52 -61.5 -128t-87.5 -84zM-2 5q-10 -1 -31.5 -1t-21.5 16v1
q0 30 63 71q197 129 273.5 188t107.5 126q18 35 33 68q16 33 32 65q69 133 149 189q44 30 111 64t88 93q33 77 63 80q15 -2 15 -16.5t-13 -55.5t-33.5 -114.5t-78.5 -136.5q-57 -57 -126 -84.5t-106 -72.5q-26 -28 -45 -77.5t-39.5 -104.5t-45 -107.5t-61.5 -86.5
q-51 -54 -151 -73z" />
    <glyph glyph-name="Ye_Re" unicode="&#xfef3;&#xfeae;" horiz-adv-x="851" 
d="M518 -534l5 -30v-14l-1 -9l-3 -12l-1 -6l-8 -20q-9 -24 -15 -30.5t-6 -8.5l-12 -18q-8 -12 -10 -15.5t-9 -10.5l-16 -20q-2 -2 -8 -11t-18 -16q-28 -28 -53 -28q-5 0 -52 41.5t-72.5 58t-28 19.5t-2.5 7t5 12l153 233q0 1 4.5 6t8 5t7.5 -4l7 -3q2 -2 4 -2.5t4 -2t6 -3.5
t31 -18.5t53.5 -53t26.5 -46.5zM762 -694q-51 -62 -79 -70h-9q-8 0 -61 45.5t-93 70.5q-5 7 -5 10.5t5 11.5l152 234q6 8 14 8t40 -20q84 -53 104 -132q2 -7 2 -16q0 -52 -70 -142zM-2 5q-10 -1 -31.5 -1t-21.5 16v1q0 30 63 71q197 129 273.5 188t107.5 126q18 35 33 68
q16 33 32 65q69 133 149 189q44 30 111 64t88 93q33 77 63 80q15 -2 15 -16.5t-13 -55.5t-33.5 -114.5t-78.5 -136.5q-57 -57 -126 -84.5t-106 -72.5q-26 -28 -45 -77.5t-39.5 -104.5t-45 -107.5t-61.5 -86.5q-51 -54 -151 -73z" />
    <glyph glyph-name="Ye_Ze" unicode="&#xfef3;&#xfeb0;" horiz-adv-x="873" 
d="M561 -523l2 -14v-14l-1 -9l-3 -12l-1 -6l-8 -20q-9 -24 -15 -30.5t-6 -8.5l-12 -18q-8 -12 -10 -15.5t-9 -10.5l-16 -20q-2 -1 -8 -10l-28 -27q-17 -14 -30 -18h-7q-9 0 -57 41.5t-73.5 58t-28 19.5t-2.5 7t5 12l153 233q0 1 4.5 6t8 5t7.5 -4l7 -3q2 -2 4 -2.5t4 -2
t5 -3t10 -6.5t28 -17.5t47.5 -48t26.5 -46t3 -16.5zM802 -666q-55 -67 -88 -71q-9 0 -61.5 45.5t-92.5 70.5q-5 7 -5 10.5t5 11.5l152 234q6 8 16 8q50 -19 90 -59q54 -56 54 -108t-70 -142zM594 1421q0 -43 -40 -105t-78 -87.5t-47.5 -25.5t-28.5 16t-54 46t-59.5 45.5
t-24.5 17.5v2q1 4 6 14l160 244q5 7 14 7t22 -7q106 -64 127 -144q3 -11 3 -23zM-2 5q-10 -1 -31.5 -1t-21.5 16v1q0 30 63 71q197 129 273.5 188t107.5 126q18 35 33 68q16 33 32 65q69 133 149 189q44 30 111 64t88 93q33 77 63 80q15 -2 15 -16.5t-13 -55.5t-33.5 -114.5
t-78.5 -136.5q-57 -57 -126 -84.5t-106 -72.5q-26 -28 -45 -77.5t-39.5 -104.5t-45 -107.5t-61.5 -86.5q-51 -54 -151 -73z" />
    <glyph glyph-name="Ye_Zh" unicode="&#xfef3;&#xfb8b;" horiz-adv-x="994" 
d="M518 -534l5 -30v-14l-1 -9l-3 -12l-1 -6l-8 -20q-9 -24 -15 -30.5t-6 -8.5l-12 -18q-8 -12 -10 -15.5t-9 -10.5l-16 -20q-2 -2 -8 -11t-18 -16q-28 -28 -53 -28q-5 0 -52 41.5t-72.5 58t-28 19.5t-2.5 7t5 12l153 233q0 1 4.5 6t8 5t7.5 -4l7 -3q2 -2 4 -2.5t4 -2t6 -3.5
t31 -18.5t53.5 -53t26.5 -46.5zM762 -694q-51 -62 -79 -70h-9q-8 0 -61 45.5t-93 70.5q-5 7 -5 10.5t5 11.5l152 234q6 8 14 8t40 -20q84 -53 104 -132q2 -7 2 -16q0 -52 -70 -142zM395 1524q131 -68 131 -181q0 -12 -5.5 -24t-6 -15t-2.5 -5l-6 -12l-29 -44q-8 -12 -24 -31
q-52 -63 -79 -63q-8 0 -14 6l-93 76q-44 31 -49 35t-5 8.5t5 12.5l153 233q5 7 11 7t13 -3zM699 1741q-1 -71 -105 -181q-29 -30 -53 -31q-9 0 -61.5 45.5t-92.5 70.5q-5 7 -5 10.5t5 11.5l152 234q6 8 13.5 8t40 -20.5t62 -50t42.5 -81.5q2 -7 2 -16zM688 1168h-9
q-8 0 -61 45.5t-93 70.5q-5 7 -5 10.5t5 11.5l152 234q6 8 13.5 8t40 -20.5t62 -50t42.5 -81.5q2 -7 2 -16q-1 -52 -61.5 -128t-87.5 -84zM-2 5q-10 -1 -31.5 -1t-21.5 16v1q0 30 63 71q197 129 273.5 188t107.5 126q18 35 33 68q16 33 32 65q69 133 149 189q44 30 111 64
t88 93q33 77 63 80q15 -2 15 -16.5t-13 -55.5t-33.5 -114.5t-78.5 -136.5q-57 -57 -126 -84.5t-106 -72.5q-26 -28 -45 -77.5t-39.5 -104.5t-45 -107.5t-61.5 -86.5q-51 -54 -151 -73z" />
    <glyph glyph-name="Pe_Re" unicode="&#xfb58;&#xfeae;" horiz-adv-x="895" 
d="M470 -670l-14 -5q-7 0 -18 8l-98 81q-12 9 -29.5 21t-17.5 16.5t5 12.5l153 233q7 10 10 10h4q5 -2 6 -2l23 -13q16 -10 36 -25l22 -18l17 -18q29 -33 39 -85v-15l-2 -15l-12 -36l-8 -16l-12 -19q-3 -3 -9.5 -14.5t-11.5 -16.5t-7 -8l-19 -25q-18 -19 -20.5 -21
t-16.5 -16t-20 -14zM674 -972q-55 -67 -88 -71q-9 0 -61.5 45.5t-92.5 70.5q-5 7 -5 10.5t5 11.5l152 234q7 8 14.5 8t39.5 -19q84 -51 104 -133q2 -7 2 -16q0 -51 -70 -141zM917 -443q-1 -71 -105 -181q-29 -30 -53 -31q-9 0 -61.5 45.5t-92.5 70.5q-5 7 -5 10.5t5 11.5
l152 234q6 8 11 8.5t43 -19.5q84 -53 104 -133q2 -7 2 -16zM-2 5q-10 -1 -31.5 -1t-21.5 16v1q0 30 63 71q197 129 273.5 188t107.5 126q18 35 33 68q16 33 32 65q69 133 149 189q44 30 111 64t88 93q33 77 63 80q15 -2 15 -16.5t-13 -55.5t-33.5 -114.5t-78.5 -136.5
q-57 -57 -126 -84.5t-106 -72.5q-26 -28 -45 -77.5t-39.5 -104.5t-45 -107.5t-61.5 -86.5q-51 -54 -151 -73z" />
    <glyph glyph-name="Pe_Ze" unicode="&#xfb58;&#xfeb0;" horiz-adv-x="907" 
d="M470 -670l-14 -5q-7 0 -18 8l-98 81q-12 9 -29.5 21t-17.5 16.5t5 12.5l153 233q7 10 10 10h4q5 -2 6 -2l23 -13q16 -10 36 -25l22 -18l17 -18q29 -33 39 -85v-15l-2 -15l-12 -36l-8 -16l-12 -19q-3 -3 -9.5 -14.5t-11.5 -16.5t-7 -8l-19 -25q-18 -19 -20.5 -21
t-16.5 -16t-20 -14zM674 -972q-55 -67 -88 -71q-9 0 -61.5 45.5t-92.5 70.5q-5 7 -5 10.5t5 11.5l152 234q7 8 14.5 8t39.5 -19q84 -51 104 -133q2 -7 2 -16q0 -51 -70 -141zM917 -443q-1 -71 -105 -181q-29 -30 -53 -31q-9 0 -61.5 45.5t-92.5 70.5q-5 7 -5 10.5t5 11.5
l152 234q6 8 11 8.5t43 -19.5q84 -53 104 -133q2 -7 2 -16zM658 1341q0 -43 -40 -105t-78 -87.5t-47.5 -25.5t-28.5 16t-54 46t-59.5 45.5t-24.5 17.5v2q1 4 6 14l160 244q5 7 14 7t22 -7q106 -64 127 -144q3 -11 3 -23zM-2 5q-10 -1 -31.5 -1t-21.5 16v1q0 30 63 71
q197 129 273.5 188t107.5 126q18 35 33 68q16 33 32 65q69 133 149 189q44 30 111 64t88 93q33 77 63 80q15 -2 15 -16.5t-13 -55.5t-33.5 -114.5t-78.5 -136.5q-57 -57 -126 -84.5t-106 -72.5q-26 -28 -45 -77.5t-39.5 -104.5t-45 -107.5t-61.5 -86.5q-51 -54 -151 -73z
" />
    <glyph glyph-name="Pe_Zh" unicode="&#xfb58;&#xfb8b;" horiz-adv-x="977" 
d="M683 -313v-15q-4 -31 -22 -67l-12 -19q-1 -2 -3 -4t-7.5 -11t-10 -15t-6.5 -9l-20 -25q-18 -20 -20 -21.5t-12.5 -12t-16.5 -14t-7.5 -4t-6 -2.5t-5.5 -2q-9 0 -21 8l-98 81q-12 9 -29.5 21t-17.5 16.5t5 12.5l153 233q7 10 10 10h4q5 -2 6 -2l23 -13q16 -10 36 -25
l22 -18l17 -18q29 -33 39 -85zM670 -902h-9q-8 0 -61 45.5t-93 70.5q-5 7 -5 10.5t5 11.5l152 234q6 8 13.5 8t39.5 -20q85 -52 105 -132q2 -7 2 -16q-1 -52 -61.5 -128t-87.5 -84zM922 -444q-51 -62 -79 -70h-9q-8 0 -61 45.5t-93 70.5q-5 7 -5 10.5t5 11.5l152 234
q6 8 14 8t40 -20q84 -53 104 -132q2 -7 2 -16q0 -52 -70 -142zM207 1548q131 -68 131 -181q0 -12 -5.5 -24t-6 -15t-2.5 -5l-6 -12l-29 -44q-8 -12 -24 -31q-52 -63 -79 -63q-8 0 -14 6l-93 76q-44 31 -49 35t-5 8.5t5 12.5l153 233q5 7 11 7t13 -3zM511 1765
q-1 -71 -105 -181q-29 -30 -53 -31q-9 0 -61.5 45.5t-92.5 70.5q-5 7 -5 10.5t5 11.5l152 234q6 8 13.5 8t40 -20.5t62 -50t42.5 -81.5q2 -7 2 -16zM500 1192h-9q-8 0 -61 45.5t-93 70.5q-5 7 -5 10.5t5 11.5l152 234q6 8 13.5 8t40 -20.5t62 -50t42.5 -81.5q2 -7 2 -16
q-1 -52 -61.5 -128t-87.5 -84zM-2 5q-10 -1 -31.5 -1t-21.5 16v1q0 30 63 71q197 129 273.5 188t107.5 126q18 35 33 68q16 33 32 65q69 133 149 189q44 30 111 64t88 93q33 77 63 80q15 -2 15 -16.5t-13 -55.5t-33.5 -114.5t-78.5 -136.5q-57 -57 -126 -84.5t-106 -72.5
q-26 -28 -45 -77.5t-39.5 -104.5t-45 -107.5t-61.5 -86.5q-51 -54 -151 -73z" />
    <glyph glyph-name="Tezh" unicode="&#xfe97;&#xfb8b;" horiz-adv-x="958" 
d="M175 2012q132 -69 132 -181q0 -12 -6 -24t-6.5 -15t-2.5 -5l-6 -12l-29 -44q-8 -12 -24 -31q-52 -63 -79 -63q-8 0 -14 6l-93 76q-44 31 -49 35t-5 8.5t5 12.5l153 233q5 7 11 7t13 -3zM479 2229q-1 -71 -105 -181q-29 -30 -53 -31q-9 0 -61.5 45.5t-92.5 70.5
q-5 7 -5 10.5t5 11.5l152 234q6 8 13.5 8t40 -20.5t62 -50t42.5 -81.5q2 -7 2 -16zM468 1656h-9q-8 0 -61 45.5t-93 70.5q-5 7 -5 10.5t5 11.5l152 234q6 8 13.5 8t40 -20.5t62 -50t42.5 -81.5q2 -7 2 -16q-1 -52 -61.5 -128t-87.5 -84zM904 1566l2 -14v-14l-1 -9l-3 -12
l-1 -6l-7 -20q-12 -26 -17 -31.5t-5 -7.5l-12 -18q-8 -12 -10 -15.5t-9 -10.5l-16 -20q-2 -2 -8 -11t-18 -16q-23 -23 -40 -28h-7q-10 0 -57 41.5t-73 58t-28.5 19.5t-2.5 7t5 12l153 233q0 1 4.5 6t8 5t7.5 -4l7 -3q2 -2 4 -2.5t4 -2t6 -3.5t31 -18.5t53.5 -52.5
t26.5 -46.5t3 -16.5zM1066 1352h-9q-8 0 -61 45.5t-93 70.5q-5 7 -5 10.5t5 11.5l152 234q6 8 13.5 8t40 -20.5t62 -50t42.5 -81.5q2 -7 2 -16q-1 -52 -61.5 -128t-87.5 -84zM-2 5q-10 -1 -31.5 -1t-21.5 16v1q0 30 63 71q197 129 273.5 188t107.5 126q18 35 33 68
q16 33 32 65q69 133 149 189q44 30 111 64t88 93q33 77 63 80q15 -2 15 -16.5t-13 -55.5t-33.5 -114.5t-78.5 -136.5q-57 -57 -126 -84.5t-106 -72.5q-26 -28 -45 -77.5t-39.5 -104.5t-45 -107.5t-61.5 -86.5q-51 -54 -151 -73z" />
    <glyph glyph-name="Ee_Re" unicode="&#xfe8b;&#xfeae;" horiz-adv-x="859" 
d="M727 1595q54 0 105.5 30t57.5 30t6 -9q0 -20 -105.5 -85t-181 -136t-83.5 -71q-28 -20 -36 -20t-8 6q0 36 109 145v4q-94 38 -94 62q0 35 103 139q56 62 57 62q42 34 73.5 34t50.5 -18t19 -39t-14.5 -34.5t-19.5 -13.5q-13 0 -33 13t-41 13t-45.5 -17t-24.5 -27v-3
q0 -26 33.5 -45.5t51.5 -19.5h20zM-29 0q-27 0 -27 28q0 7 21 22.5t60 44.5t140 92l73 50q87 69 120 108q11 13 71.5 149.5t92 178t78 70t106 58.5t81 48.5t53.5 77t47 58.5q8 0 8 -16.5t-4 -38.5q-75 -267 -168 -314q-131 -63 -159.5 -84.5t-48 -48.5t-58.5 -123t-69 -164
q-49 -103 -147 -147q-46 -18 -124 -33q-83 -16 -146 -16z" />
    <glyph glyph-name="Ee_Ze" unicode="&#xfe8b;&#xfeb0;" horiz-adv-x="859" 
d="M863 1803q54 0 105.5 30t57.5 30t6 -9q0 -20 -105.5 -85t-181 -136t-83.5 -71q-28 -20 -36 -20t-8 6q0 36 109 145v4q-94 38 -94 62q0 35 103 139q56 62 57 62q42 34 73.5 34t50.5 -18t19 -39t-14.5 -34.5t-19.5 -13.5q-13 0 -33 13t-41 13t-45.5 -17t-24.5 -27v-3
q0 -26 33.5 -45.5t51.5 -19.5h20zM523 1179q-40 -62 -98 -101q-19 -13 -27.5 -13t-28 16.5t-54.5 46.5t-59.5 45.5t-24.5 17.5v3q1 4 6 13l160 244q6 9 16 9t43 -23t70 -59.5t37 -86.5t-40 -112zM-29 0q-27 0 -27 28q0 7 21 22.5t60 44.5t140 92l73 50q87 69 120 108
q11 13 71.5 149.5t92 178t78 70t106 58.5t81 48.5t53.5 77t47 58.5q8 0 8 -16.5t-4 -38.5q-75 -267 -168 -314q-131 -63 -159.5 -84.5t-48 -48.5t-58.5 -123t-69 -164q-49 -103 -147 -147q-46 -18 -124 -33q-83 -16 -146 -16z" />
    <glyph glyph-name="Se_Zh" unicode="&#xfe9b;&#xfeb0;" horiz-adv-x="971" 
d="M514 1351q0 -43 -40 -105t-84 -92q-32 -21 -41.5 -21t-28.5 16t-54.5 45.5t-59.5 45t-24 20t6 14.5l160 244q6 8 14 8t16 -4q111 -65 133 -148q3 -11 3 -23zM749 1817q132 -69 132 -181q0 -12 -6 -24t-6.5 -15t-2.5 -5l-6 -12l-29 -44q-10 -16 -24 -32q-51 -62 -78 -62
h-1q-8 0 -14 6l-93 76q-44 31 -49 35t-5 8.5t5 12.5l153 233q5 7 11 7t13 -3zM904 1822h-9q-8 0 -61 45.5t-93 70.5q-5 7 -5 10.5t5 11.5l152 234q6 8 13.5 8t40 -20.5t62 -50t42.5 -81.5q2 -7 2 -16q-1 -52 -61.5 -128t-87.5 -84zM1191 1673q-1 -71 -105 -181
q-29 -30 -53 -31q-9 0 -61.5 45.5t-92.5 70.5q-5 7 -5 10.5t5 11.5l152 234q6 8 13.5 8t40 -20.5t62 -50t42.5 -81.5q2 -7 2 -16zM-2 5q-10 -1 -31.5 -1t-21.5 16v1q0 30 63 71q197 129 273.5 188t107.5 126q18 35 33 68q16 33 32 65q69 133 149 189q44 30 111 64t88 93
q33 77 63 80q15 -2 15 -16.5t-13 -55.5t-33.5 -114.5t-78.5 -136.5q-57 -57 -126 -84.5t-106 -72.5q-26 -28 -45 -77.5t-39.5 -104.5t-45 -107.5t-61.5 -86.5q-51 -54 -151 -73z" />
    <glyph glyph-name="Se_Zhe" unicode="&#xfe9b;&#xfb8b;" horiz-adv-x="982" 
d="M751 1864q132 -69 132 -181q0 -12 -6 -24t-6.5 -15t-2.5 -5l-6 -12l-29 -44q-8 -12 -24 -31q-52 -63 -79 -63q-8 0 -14 6l-93 76q-44 31 -49 35t-5 8.5t5 12.5l153 233q5 7 11 7t13 -3zM1055 2081q-1 -71 -105 -181q-29 -30 -53 -31q-9 0 -61.5 45.5t-92.5 70.5
q-5 7 -5 10.5t5 11.5l152 234q6 8 13.5 8t40 -20.5t62 -50t42.5 -81.5q2 -7 2 -16zM1044 1508h-9q-8 0 -61 45.5t-93 70.5q-5 7 -5 10.5t5 11.5l152 234q6 8 13.5 8t40 -20.5t62 -50t42.5 -81.5q2 -7 2 -16q-1 -52 -61.5 -128t-87.5 -84zM170 1365q132 -68 132 -180
q0 -12 -6 -24.5t-6.5 -15.5t-2.5 -5l-6 -12l-29 -44q-10 -16 -24 -32q-51 -62 -78 -62h-1q-8 0 -14 6l-93 76q-44 31 -49 35t-5 8.5t5 12.5l153 233q5 7 11.5 7t12.5 -3zM404 1440q-51 -62 -79 -70h-9q-8 0 -61 45.5t-93 70.5q-5 7 -5 10.5t5 11.5l152 234q6 8 13.5 8
t40 -20.5t62 -50t42.5 -81.5q2 -7 2 -16q0 -52 -70 -142zM542 1080q-55 -67 -88 -71q-9 0 -61.5 45.5t-92.5 70.5q-5 7 -5 10.5t5 11.5l152 234q6 8 13.5 8t40 -20.5t62 -50t42.5 -81.5q2 -7 2 -16q0 -51 -70 -141zM-2 5q-10 -1 -31.5 -1t-21.5 16v1q0 30 63 71
q197 129 273.5 188t107.5 126q18 35 33 68q16 33 32 65q69 133 149 189q44 30 111 64t88 93q33 77 63 80q15 -2 15 -16.5t-13 -55.5t-33.5 -114.5t-78.5 -136.5q-57 -57 -126 -84.5t-106 -72.5q-26 -28 -45 -77.5t-39.5 -104.5t-45 -107.5t-61.5 -86.5q-51 -54 -151 -73z
" />
    <glyph glyph-name="Ee_Zhe" unicode="&#xfe8b;&#xfb8b;" horiz-adv-x="982" 
d="M1025.5 1769q44.5 24 50 24t5.5 -6q0 -16 -88.5 -69.5t-151 -111t-69.5 -57.5q-23 -16 -29.5 -16t-6.5 5q0 27 90 117v4q-78 31 -78 50q0 28 86 113q46 50 64 64t32 14h15q26 -2 40.5 -16t14.5 -31t-12 -28t-20 -11h-1q-8 1 -23.5 11.5t-33 10.5t-38.5 -14.5t-21 -30
t27 -31t65 -15.5t82.5 24zM302 1198q0 -25 -6 -37.5t-6.5 -15.5t-2.5 -5l-6 -12l-29 -44q-10 -16 -24 -32q-51 -62 -78 -62h-1q-8 0 -14 6l-93 76q-44 31 -49 35t-5 8.5t5 12.5l153 233q5 7 11.5 7t12.5 -3q132 -68 132 -167zM404 1440q-51 -62 -79 -70h-9q-8 0 -61 45.5
t-93 70.5q-5 7 -5 10.5t5 11.5l152 234q6 8 13.5 8t40 -20.5t62 -50t42.5 -81.5q2 -7 2 -16q0 -52 -70 -142zM542 1080q-55 -67 -88 -71q-9 0 -61.5 45.5t-92.5 70.5q-5 7 -5 10.5t5 11.5l152 234q6 8 13.5 8t40 -20.5t62 -50t42.5 -81.5q2 -7 2 -16q0 -51 -70 -141zM-2 5
q-10 -1 -31.5 -1t-21.5 16v1q0 30 63 71q197 129 273.5 188t107.5 126q18 35 33 68q16 33 32 65q69 133 149 189q44 30 111 64t88 93q33 77 63 80q15 -2 15 -16.5t-13 -55.5t-33.5 -114.5t-78.5 -136.5q-57 -57 -126 -84.5t-106 -72.5q-26 -28 -45 -77.5t-39.5 -104.5
t-45 -107.5t-61.5 -86.5q-51 -54 -151 -73z" />
    <glyph glyph-name="Kar" unicode="&#xfb90;&#xfeae;" horiz-adv-x="1051" 
d="M967 1307q55 149 128 214q74 70 346.5 292.5t390.5 329.5t234 219.5t121 122.5q9 8 14 8t5 -8t-6 -38.5t-119 -210.5q-205 -213 -417.5 -394.5t-561.5 -443.5q-21 -21 -43.5 -37.5t-54.5 -42.5q-20 -16 -30 -16q-5 0 -7 5zM948 1285q4 3 8.5 3t4.5 -9.5t-8 -57.5
t-9.5 -76.5t-9.5 -275.5t-32 -418q-11 -105 -77 -246.5t-181 -202.5q-28 -19 -91.5 -50t-102.5 -69q-49 -53 -88 -161.5t-98.5 -165t-159.5 -68.5l-185 -21h-13q-33 0 -36 6.5t-3 10.5q1 4 3 11q18 43 211 149q80 44 124 74q81 54 115 112q18 29 57 105.5t97 145t161 115.5
q65 36 78 46q54 35 57 64q28 97 28 466q0 144 25 220t61 160q49 103 64 133z" />
    <glyph glyph-name="Kaz" unicode="&#xfb90;&#xfeb0;" horiz-adv-x="1040" 
d="M571 963q0 -43 -40 -105t-84 -92q-32 -21 -46 -21q-5 0 -7 3q-36 29 -71 59q-35 29 -59 45q-24 15 -25 20q0 4 6 14l160 244q6 8 15 8q8 0 16 -4q111 -65 132 -148q3 -11 3 -23zM956 1307q55 149 128 214q74 70 346.5 292.5t390.5 329.5t234 219.5t121 122.5q9 8 14 8
t5 -4.5t-6.5 -38.5t-118.5 -214q-205 -213 -417.5 -394.5t-561.5 -443.5q-21 -21 -43.5 -37.5t-54 -42t-37.5 -11.5zM937 1285q4 3 8.5 3t4.5 -9.5t-8 -57.5t-9.5 -76.5t-9.5 -275.5t-32 -418q-11 -105 -77 -246.5t-181 -202.5q-28 -19 -91.5 -50t-102.5 -69
q-49 -53 -88.5 -161.5t-99 -165t-158.5 -68.5l-185 -21h-13q-33 0 -36 6.5t-3 10.5q0 43 214 160q80 44 124 74q81 54 115 112q18 29 57 105.5t97 145t161 115.5q65 36 78 46q54 35 57 64q28 97 28 466q0 144 25 220t61 160q49 103 64 133z" />
    <glyph glyph-name="Kazh" unicode="&#xfb90;&#xfb8b;" horiz-adv-x="1062" 
d="M324 953v-18q0 -12 -6 -24.5t-6.5 -15.5t-2.5 -5l-6 -12l-29 -44q-10 -16 -24 -32q-51 -62 -78 -62h-1q-8 0 -14 6l-93 76q-44 31 -49 35t-5 8.5t5 12.5l153 233q5 7 11 7t13 -3q125 -64 132 -162zM426 1190q-51 -62 -79 -70h-9q-8 0 -61 45.5t-93 70.5q-5 7 -5 10.5
t5 11.5l152 234q6 8 14 8t40 -20q84 -53 104 -132q2 -7 2 -16q0 -52 -70 -142zM564 830q-55 -67 -88 -71q-9 0 -61.5 45.5t-92.5 70.5q-5 7 -5 10.5t5 11.5l152 234q7 8 14.5 8t39.5 -19q84 -51 104 -133q2 -7 2 -16q0 -51 -70 -141zM978 1307q55 149 128 214
q74 70 346.5 292.5t390.5 329.5t234 219.5t121 122.5q9 8 14 8t5 -4.5t-6.5 -38.5t-118.5 -214q-205 -213 -417.5 -394.5t-561.5 -443.5q-21 -21 -43.5 -37.5t-48.5 -37.5t-33.5 -21t-9.5 5zM959 1285q4 3 8.5 3t4.5 -9.5t-8 -57.5t-9.5 -76.5t-9.5 -275.5t-32 -418
q-11 -105 -77 -246.5t-181 -202.5q-28 -19 -91.5 -50t-102.5 -69q-49 -53 -88.5 -161.5t-99 -165t-158.5 -68.5l-185 -21h-13q-33 0 -36 6.5t-3 10.5q0 43 214 160q80 44 124 74q81 54 115 112q18 29 57 105.5t97 145t161 115.5q65 36 78 46q54 35 57 64q28 97 28 466
q0 144 25 220t61 160q49 103 64 133z" />
    <glyph glyph-name="Gar" unicode="&#xfb94;&#xfeae;" horiz-adv-x="1062" 
d="M1940 2358q-64 -70 -380 -322h-1q-2 0 -2 4q0 16 38 70q102 93 372 313q6 3 8.5 3t2.5 -7t-38 -61zM978 1307q55 149 128 214q74 70 346.5 292.5t390.5 329.5t234 219.5t121 122.5q9 8 14 8t5 -4.5t-6.5 -38.5t-118.5 -214q-205 -213 -417.5 -394.5t-561.5 -443.5
q-21 -21 -43 -37.5t-48 -37.5t-34 -21t-10 5zM959 1285q4 3 8.5 3t4.5 -9.5t-8 -57.5t-9.5 -76.5t-9.5 -275.5t-32 -418q-11 -105 -77 -246.5t-181 -202.5q-28 -19 -91.5 -50t-102.5 -69q-49 -53 -88.5 -161.5t-99 -165t-158.5 -68.5l-185 -21h-13q-33 0 -36 6.5t-3 10.5
q0 43 214 160q80 44 124 74q81 54 115 112q18 29 57 105.5t97 145t161 115.5q65 36 78 46q54 35 57 64q28 97 28 466q0 144 25 220t61 160q49 103 64 133z" />
    <glyph glyph-name="Gaz" unicode="&#xfb94;&#xfeb0;" horiz-adv-x="1034" 
d="M538 869q0 -43 -40 -105t-84 -92q-32 -21 -46 -21q-5 0 -7 3q-36 29 -71 59q-36 29 -60 45q-24 15 -24 20q0 4 6 14l160 244q6 8 15 8q7 0 15 -4q111 -65 133 -148q3 -11 3 -23zM1912 2358q-64 -70 -380 -322q-7 -1 2 19.5t33 54.5q102 93 372 313q6 3 8.5 3t2.5 -7
t-38 -61zM950 1307q55 149 128 214q74 70 346.5 292.5t390.5 329.5t234 219.5t121 122.5q9 8 14 8t5 -4.5t-6.5 -38.5t-118.5 -214q-205 -213 -417.5 -394.5t-561.5 -443.5q-21 -21 -43.5 -37.5t-54 -42t-37.5 -11.5zM931 1285q4 3 8.5 3t4.5 -9.5t-8 -57.5t-9.5 -76.5
t-9.5 -275.5t-32 -418q-11 -105 -77 -246.5t-181 -202.5q-28 -19 -91.5 -50t-102.5 -69q-49 -53 -88.5 -161.5t-99 -165t-158.5 -68.5l-185 -21h-13q-33 0 -36 6.5t-3 10.5q0 43 214 160q80 44 124 74q81 54 115 112q18 29 57 105.5t97 145t161 115.5q65 36 78 46
q54 35 57 64q28 97 28 466q0 144 25 220t61 160q49 103 64 133z" />
    <glyph glyph-name="Gazh" unicode="&#xfb94;&#xfb8b;" horiz-adv-x="1045" 
d="M346 970v-18q0 -12 -6 -24.5t-6.5 -15.5t-2.5 -5l-6 -12l-29 -44q-8 -12 -24 -31q-52 -63 -79 -63q-8 0 -14 6l-93 76q-44 31 -49 35t-5 8.5t5 12.5l153 233q5 7 11 7t13 -3q125 -64 132 -162zM448 1208q-55 -67 -88 -71q-9 0 -61.5 45.5t-92.5 70.5q-5 7 -5 10.5t5 11.5
l152 234q6 8 16 8q50 -19 97 -67t47 -100t-70 -142zM586 846q-51 -62 -79 -70h-9q-8 0 -61 45.5t-93 70.5q-5 7 -5 10.5t5 11.5l152 234q6 8 14 8t40 -20q84 -52 104 -132q2 -7 2 -16q0 -52 -70 -142zM1923 2358q-64 -70 -380 -322h-1q-2 0 -2 4q0 16 38 70q102 93 372 313
q6 3 8.5 3t2.5 -7t-38 -61zM961 1307q55 149 128 214q74 70 346.5 292.5t390.5 329.5t234 219.5t121 122.5q9 8 14 8t5 -8t-6 -38.5t-119 -210.5q-205 -213 -417.5 -394.5t-561.5 -443.5q-21 -21 -43.5 -37.5t-48.5 -37.5t-33.5 -21t-9.5 5zM942 1285q4 3 8.5 3t4.5 -9.5
t-8 -57.5t-9.5 -76.5t-9.5 -275.5t-32 -418q-11 -105 -77 -246.5t-181 -202.5q-28 -19 -91.5 -50t-102.5 -69q-49 -53 -88 -161.5t-98.5 -165t-159.5 -68.5l-185 -21h-13q-33 0 -36 6.5t-3 10.5q1 4 3 11q18 43 211 149q80 44 124 74q81 54 115 112q18 29 57 105.5t97 145
t161 115.5q65 36 78 46q54 35 57 64q28 97 28 466q0 144 25 220t61 160q49 103 64 133z" />
    <glyph glyph-name="Lar" unicode="&#xfedf;&#xfeae;" horiz-adv-x="1068" 
d="M965 1285q4 3 8.5 3t4.5 -9.5t-8 -57.5t-9.5 -76.5t-9.5 -275.5t-32 -418q-11 -105 -77 -246.5t-181 -202.5q-28 -19 -91.5 -50t-102.5 -69q-49 -53 -89 -162t-99 -165t-158 -68l-185 -21h-13q-33 0 -36 6.5t-3 10.5q0 43 214 160q80 44 124 74q81 54 115 112
q18 29 57 106t97 145t161 115q65 36 78 46q54 35 57 64q28 97 28 466q0 144 25 220t61 160q49 103 64 133z" />
    <glyph glyph-name="Laz" unicode="&#xfedf;&#xfeb0;" horiz-adv-x="1062" 
d="M574 829q0 -43 -40 -105t-84 -92q-32 -21 -46 -21q-5 0 -7 3q-36 29 -71 59q-36 29 -60 45q-24 15 -24 20q0 4 6 14l160 244q6 8 15 8q7 0 15 -4q111 -65 133 -148q3 -11 3 -23zM959 1285q4 3 8.5 3t4.5 -9.5t-8 -57.5t-9.5 -76.5t-9.5 -275.5t-32 -418
q-11 -105 -77 -246.5t-181 -202.5q-28 -19 -91.5 -50t-102.5 -69q-49 -53 -88.5 -161.5t-99 -165t-158.5 -68.5l-185 -21h-13q-33 0 -36 6.5t-3 10.5q0 43 214 160q80 44 124 74q81 54 115 112q18 29 57 105.5t97 145t161 115.5q65 36 78 46q54 35 57 64q28 97 28 466
q0 144 25 220t61 160q49 103 64 133z" />
    <glyph glyph-name="Lazh" unicode="&#xfedf;&#xfb8b;" horiz-adv-x="1071" 
d="M412 859v-18q0 -12 -6 -24.5t-6.5 -15.5t-2.5 -5l-6 -12l-29 -44q-10 -16 -24 -32q-51 -62 -78 -62h-1q-8 0 -14 6l-93 76q-44 31 -49 35t-5 8.5t5 12.5l153 233q5 7 11 7t13 -3q125 -64 132 -162zM514 1096q-51 -62 -79 -70h-9q-8 0 -61 45.5t-93 70.5q-5 7 -5 10.5
t5 11.5l152 234q6 8 13.5 8t40 -20.5t62 -50t42.5 -81.5q2 -7 2 -16q0 -52 -70 -142zM652 736q-55 -67 -88 -71q-9 0 -61.5 45.5t-92.5 70.5q-5 7 -5 10.5t5 11.5l152 234q7 8 14.5 8t39.5 -19q84 -51 104 -133q2 -7 2 -16q0 -51 -70 -141zM968 1285q4 3 8.5 3t4.5 -9.5
t-8 -57.5t-9.5 -76.5t-9.5 -275.5t-32 -418q-11 -105 -77 -246.5t-181 -202.5q-28 -19 -91.5 -50t-102.5 -69q-49 -53 -88 -161.5t-98.5 -165t-159.5 -68.5l-185 -21h-13q-33 0 -36 6.5t-3 10.5q1 4 3 11q18 43 211 149q80 44 124 74q81 54 115 112q18 29 57 105.5t97 145
t161 115.5q65 36 78 46q54 35 57 64q28 97 28 466q0 144 25 220t61 160q49 103 64 133z" />
    <glyph glyph-name="Har" unicode="&#xfea3;&#xfeae;" horiz-adv-x="1152" 
d="M582 949q-7 0 -7 15t22 66q69 159 197 159q49 0 109 -20t93 -20q69 0 137 49q12 0 12 -12t-20.5 -73.5t-29.5 -69t-42 -31.5t-54.5 -53t-76.5 -133.5t-112 -171t-131 -95.5t-110 -74q-26 -28 -45 -77.5t-39.5 -104.5t-45 -107.5t-61.5 -86.5q-51 -54 -151 -73l-183 -31
q-10 -1 -31.5 -1t-21.5 16v1q0 30 63 71q197 129 273.5 188t107.5 126q18 35 33 68q16 33 32 65q69 133 149 189q44 30 89.5 52.5t91 68t102.5 150.5q-12 12 -73 35t-108 23t-75 -18.5t-52.5 -54t-41.5 -35.5z" />
    <glyph glyph-name="Haz" unicode="&#xfea3;&#xfeb0;" horiz-adv-x="1152" 
d="M455 1597q0 -50 -40 -111.5t-84 -91.5q-33 -22 -46 -22q-5 0 -7 3q-36 29 -71 59t-59 45.5t-25 19.5q0 4 6 14l160 244q6 9 16 9t43 -23t70 -59.5t37 -86.5zM582 949q-7 0 -7 15t22 66q69 159 197 159q49 0 109 -20t93 -20q69 0 137 49q12 0 12 -12t-20.5 -73.5
t-29.5 -69t-42 -31.5t-54.5 -53t-76.5 -133.5t-112 -171t-131 -95.5t-110 -74q-26 -28 -45 -77.5t-39.5 -104.5t-45 -107.5t-61.5 -86.5q-51 -54 -151 -73l-183 -31q-10 -1 -31.5 -1t-21.5 16v1q0 30 63 71q197 129 273.5 188t107.5 126q18 35 33 68q16 33 32 65
q69 133 149 189q44 30 89.5 52.5t91 68t102.5 150.5q-12 12 -73 35t-108 23t-75 -18.5t-52.5 -54t-41.5 -35.5z" />
    <glyph glyph-name="Hazh" unicode="&#xfea3;&#xfb8b;" horiz-adv-x="1152" 
d="M277 1819q132 -69 132 -181q0 -12 -6 -24t-6.5 -15t-2.5 -5l-6 -12l-29 -44q-10 -16 -24 -32q-51 -62 -78 -62h-1q-8 0 -14 6l-93 76q-44 31 -49 35t-5 8.5t5 12.5l153 233q5 7 11 7t13 -3zM432 1824h-9q-8 0 -61 45.5t-93 70.5q-5 7 -5 10.5t5 11.5l152 234q6 8 13.5 8
t40 -20.5t62 -50t42.5 -81.5q2 -7 2 -16q-1 -52 -61.5 -128t-87.5 -84zM719 1675q-1 -71 -105 -181q-29 -30 -53 -31q-9 0 -61.5 45.5t-92.5 70.5q-5 7 -5 10.5t5 11.5l152 234q6 8 13.5 8t40 -20.5t62 -50t42.5 -81.5q2 -7 2 -16zM582 949q-7 0 -7 15t22 66q69 159 197 159
q49 0 109 -20t93 -20q69 0 137 49q12 0 12 -12.5t-20.5 -73.5t-29.5 -68.5t-42 -31.5t-54.5 -53t-76.5 -133.5t-112 -171t-131 -95.5t-110 -74q-26 -28 -45 -77.5t-39.5 -104.5t-45 -107.5t-61.5 -86.5q-51 -54 -151 -73l-183 -31q-10 -1 -31.5 -1t-21.5 16v1q0 30 63 71
q197 129 273.5 188t107.5 126q18 35 33 68q16 33 32 65q69 133 149 189q44 30 89.5 52.5t91 68t102.5 150.5q-12 12 -73 35t-108 23t-75 -18.5t-52.5 -54t-41.5 -35.5z" />
    <glyph glyph-name="Khar" unicode="&#xfea7;&#xfeae;" horiz-adv-x="1152" 
d="M1025 1865q0 -50 -40 -111.5t-84 -91.5q-33 -22 -46 -22q-5 0 -7 3q-36 29 -71 59t-59 45.5t-25 19.5q0 4 6 14l160 244q6 9 16 9t43 -23t70 -59.5t37 -86.5zM582 949q-7 0 -7 15t22 66q69 159 197 159q49 0 109 -20t93 -20q69 0 137 49q12 0 12 -12t-20.5 -73.5
t-29.5 -69t-42 -31.5t-54.5 -53t-76.5 -133.5t-112 -171t-131 -95.5t-110 -74q-26 -28 -45 -77.5t-39.5 -104.5t-45 -107.5t-61.5 -86.5q-51 -54 -151 -73l-183 -31q-10 -1 -31.5 -1t-21.5 16v1q0 30 63 71q197 129 273.5 188t107.5 126q18 35 33 68q16 33 32 65
q69 133 149 189q44 30 89.5 52.5t91 68t102.5 150.5q-12 12 -73 35t-108 23t-75 -18.5t-52.5 -54t-41.5 -35.5z" />
    <glyph glyph-name="Khaz" unicode="&#xfea7;&#xfeb0;" horiz-adv-x="1152" 
d="M502 1599q0 -50 -40 -111.5t-84 -91.5q-33 -22 -46 -22q-5 0 -7 3q-36 29 -71.5 59t-59.5 45.5t-24 19.5t6 14l160 244q6 7 14 7q7 0 16 -4q136 -80 136 -163zM975 1849q-40 -62 -78 -87.5t-47.5 -25.5t-28.5 16t-54 46t-59.5 45.5t-24.5 19.5v1q1 4 6 13l160 244
q6 9 16 9t43 -23t70 -59.5t37 -86.5t-40 -112zM582 949q-7 0 -7 15t22 66q69 159 197 159q49 0 109 -20t93 -20q69 0 137 49q12 0 12 -12t-20.5 -73.5t-29.5 -69t-42 -31.5t-54.5 -53t-76.5 -133.5t-112 -171t-131 -95.5t-110 -74q-26 -28 -45 -77.5t-39.5 -104.5
t-45 -107.5t-61.5 -86.5q-51 -54 -151 -73l-183 -31q-10 -1 -31.5 -1t-21.5 16v1q0 30 63 71q197 129 273.5 188t107.5 126q18 35 33 68q16 33 32 65q69 133 149 189q44 30 89.5 52.5t91 68t102.5 150.5q-12 12 -73 35t-108 23t-75 -18.5t-52.5 -54t-41.5 -35.5z" />
    <glyph glyph-name="Khazh" unicode="&#xfea7;&#xfb8b;" horiz-adv-x="1152" 
d="M1090 1969q0 -43 -40 -105t-84 -92q-32 -21 -41.5 -21t-28.5 16t-54.5 45.5t-59.5 45t-24 20t6 14.5l160 244q5 7 14 7t22 -7q106 -64 127 -144q3 -11 3 -23zM149 1730q131 -68 131 -181q0 -12 -5.5 -24t-6 -15t-2.5 -5l-6 -12l-29 -44q-8 -12 -24 -31q-52 -63 -79 -63
q-8 0 -14 6l-93 76q-44 31 -49 35t-5 8.5t5 12.5l153 233q5 7 11.5 7t12.5 -3zM453 1947q-1 -71 -105 -181q-29 -30 -53 -31q-9 0 -61.5 45.5t-92.5 70.5q-5 7 -5 10.5t5 11.5l152 234q6 8 13.5 8t40 -20.5t62 -50t42.5 -81.5q2 -7 2 -16zM442 1374h-9q-8 0 -61 45.5
t-93 70.5q-5 7 -5 10.5t5 11.5l152 234q6 8 13.5 8t40 -20.5t62 -50t42.5 -81.5q2 -7 2 -16q-1 -52 -61.5 -128t-87.5 -84zM582 949q-7 0 -7 15t22 66q69 159 197 159q49 0 109 -20t93 -20q69 0 137 49q12 0 12 -12t-20.5 -73.5t-29.5 -69t-42 -31.5t-54.5 -53t-76.5 -133.5
t-112 -171t-131 -95.5t-110 -74q-26 -28 -45 -77.5t-39.5 -104.5t-45 -107.5t-61.5 -86.5q-51 -54 -151 -73l-183 -31q-10 -1 -31.5 -1t-21.5 16v1q0 30 63 71q197 129 273.5 188t107.5 126q18 35 33 68q16 33 32 65q69 133 149 189q44 30 89.5 52.5t91 68t102.5 150.5
q-12 12 -73 35t-108 23t-75 -18.5t-52.5 -54t-41.5 -35.5z" />
    <glyph glyph-name="Jar" unicode="&#xfe9f;&#xfeae;" horiz-adv-x="1152" 
d="M1016 -173q0 -43 -40 -105t-98 -101q-20 -13 -28 -13q-9 0 -63.5 46t-78.5 61.5t-24 20t6 14.5l160 244q6 8 14 8t16 -4q111 -65 133 -148q3 -11 3 -23zM582 949q-7 0 -7 15t22 66q69 159 197 159q49 0 109 -20t93 -20q69 0 137 49q12 0 12 -12t-20.5 -73.5t-29.5 -69
t-42 -31.5t-54.5 -53t-76.5 -133.5t-112 -171t-131 -95.5t-110 -74q-26 -28 -45 -77.5t-39.5 -104.5t-45 -107.5t-61.5 -86.5q-51 -54 -151 -73l-183 -31q-10 -1 -31.5 -1t-21.5 16v1q0 30 63 71q197 129 273.5 188t107.5 126q18 35 33 68q16 33 32 65q69 133 149 189
q44 30 89.5 52.5t91 68t102.5 150.5q-12 12 -73 35t-108 23t-75 -18.5t-52.5 -54t-41.5 -35.5z" />
    <glyph glyph-name="Jaz" unicode="&#xfe9f;&#xfeb0;" horiz-adv-x="1152" 
d="M1016 -173q0 -43 -40 -105t-98 -101q-20 -13 -28 -13q-9 0 -63.5 46t-78.5 61.5t-24 20t6 14.5l160 244q6 8 14 8t16 -4q111 -65 133 -148q3 -11 3 -23zM531 1545q-40 -62 -78 -87.5t-47.5 -25.5t-28.5 16t-54 46t-59 45.5t-25 19.5q0 4 6 14l160 244q6 9 16 9t43 -23
t70 -59.5t37 -86.5t-40 -112zM582 949q-7 0 -7 15t22 66q69 159 197 159q49 0 109 -20t93 -20q69 0 137 49q12 0 12 -12t-20.5 -73.5t-29.5 -69t-42 -31.5t-54.5 -53t-76.5 -133.5t-112 -171t-131 -95.5t-110 -74q-26 -28 -45 -77.5t-39.5 -104.5t-45 -107.5t-61.5 -86.5
q-51 -54 -151 -73l-183 -31q-10 -1 -31.5 -1t-21.5 16v1q0 30 63 71q197 129 273.5 188t107.5 126q18 35 33 68q16 33 32 65q69 133 149 189q44 30 89.5 52.5t91 68t102.5 150.5q-12 12 -73 35t-108 23t-75 -18.5t-52.5 -54t-41.5 -35.5z" />
    <glyph glyph-name="Jazh" unicode="&#xfe9f;&#xfb8b;" horiz-adv-x="1152" 
d="M1016 -173q0 -43 -40 -105t-98 -101q-20 -13 -28 -13q-9 0 -63.5 46t-78.5 61.5t-24 20t6 14.5l160 244q6 8 14 8t16 -4q111 -65 133 -148q3 -11 3 -23zM327 1814q131 -68 131 -181q0 -12 -5.5 -24t-6 -15t-2.5 -5l-6 -12l-29 -44q-8 -12 -24 -31q-52 -63 -79 -63
q-8 0 -14 6l-93 76q-44 31 -49 35t-5 8.5t5 12.5l153 233q5 7 11 7t13 -3zM631 2031q-1 -71 -105 -181q-29 -30 -53 -31q-9 0 -61.5 45.5t-92.5 70.5q-5 7 -5 10.5t5 11.5l152 234q6 8 13.5 8t40 -20.5t62 -50t42.5 -81.5q2 -7 2 -16zM620 1458h-9q-8 0 -61 45.5t-93 70.5
q-5 7 -5 10.5t5 11.5l152 234q6 8 13.5 8t40 -20.5t62 -50t42.5 -81.5q2 -7 2 -16q-1 -52 -61.5 -128t-87.5 -84zM582 949q-7 0 -7 15t22 66q69 159 197 159q49 0 109 -20t93 -20q69 0 137 49q12 0 12 -12t-20.5 -73.5t-29.5 -69t-42 -31.5t-54.5 -53t-76.5 -133.5
t-112 -171t-131 -95.5t-110 -74q-26 -28 -45 -77.5t-39.5 -104.5t-45 -107.5t-61.5 -86.5q-51 -54 -151 -73l-183 -31q-10 -1 -31.5 -1t-21.5 16v1q0 30 63 71q197 129 273.5 188t107.5 126q18 35 33 68q16 33 32 65q69 133 149 189q44 30 89.5 52.5t91 68t102.5 150.5
q-12 12 -73 35t-108 23t-75 -18.5t-52.5 -54t-41.5 -35.5z" />
    <glyph glyph-name="Char" unicode="&#xfb7c;&#xfeae;" horiz-adv-x="1152" 
d="M791 -135v-15q-4 -31 -22 -67l-12 -19q-1 -2 -3 -4t-7.5 -11t-10 -15t-6.5 -9l-20 -25q-18 -20 -20 -21.5t-12.5 -12t-16.5 -14t-7.5 -4t-6 -2.5t-5.5 -2q-9 0 -21 8l-98 81q-12 9 -29.5 21t-17.5 16.5t5 12.5l153 233q7 10 10 10h4q5 -2 6 -2l23 -13q16 -10 36 -25
l22 -18l17 -18q29 -33 39 -85zM778 -724h-9q-8 0 -61 45.5t-93 70.5q-5 7 -5 10.5t5 11.5l152 234q6 8 13.5 8t39.5 -20q85 -52 105 -132q2 -7 2 -16q-1 -52 -61.5 -128t-87.5 -84zM1030 -266q-51 -62 -79 -70h-9q-8 0 -61 45.5t-93 70.5q-5 7 -5 10.5t5 11.5l152 234
q6 8 14 8t40 -20q84 -53 104 -132q2 -7 2 -16q0 -52 -70 -142zM582 949q-7 0 -7 15t22 66q69 159 197 159q49 0 109 -20t93 -20q69 0 137 49q12 0 12 -12t-20.5 -73.5t-29.5 -69t-42 -31.5t-54.5 -53t-76.5 -133.5t-112 -171t-131 -95.5t-110 -74q-26 -28 -45 -77.5
t-39.5 -104.5t-45 -107.5t-61.5 -86.5q-51 -54 -151 -73l-183 -31q-10 -1 -31.5 -1t-21.5 16v1q0 30 63 71q197 129 273.5 188t107.5 126q18 35 33 68q16 33 32 65q69 133 149 189q44 30 89.5 52.5t91 68t102.5 150.5q-12 12 -73 35t-108 23t-75 -18.5t-52.5 -54
t-41.5 -35.5z" />
    <glyph glyph-name="Chaz" unicode="&#xfb7c;&#xfeb0;" horiz-adv-x="1152" 
d="M791 -135v-15q-4 -31 -22 -67l-12 -19q-1 -2 -3 -4t-7.5 -11t-10 -15t-6.5 -9l-20 -25q-18 -20 -20 -21.5t-12.5 -12t-16.5 -14t-7.5 -4t-6 -2.5t-5.5 -2q-9 0 -21 8l-98 81q-12 9 -29.5 21t-17.5 16.5t5 12.5l153 233q7 10 10 10h4q5 -2 6 -2l23 -13q16 -10 36 -25
l22 -18l17 -18q29 -33 39 -85zM778 -724h-9q-8 0 -61 45.5t-93 70.5q-5 7 -5 10.5t5 11.5l152 234q6 8 13.5 8t39.5 -20q85 -52 105 -132q2 -7 2 -16q-1 -52 -61.5 -128t-87.5 -84zM1030 -266q-51 -62 -79 -70h-9q-8 0 -61 45.5t-93 70.5q-5 7 -5 10.5t5 11.5l152 234
q6 8 14 8t40 -20q84 -53 104 -132q2 -7 2 -16q0 -52 -70 -142zM531 1401q-40 -62 -78 -87.5t-47.5 -25.5t-28.5 16t-54 46t-59 45.5t-25 19.5q0 4 6 14l160 244q6 9 16 9t43 -23t70 -59.5t37 -86.5t-40 -112zM582 949q-7 0 -7 15t22 66q69 159 197 159q49 0 109 -20t93 -20
q69 0 137 49q12 0 12 -12t-20.5 -73.5t-29.5 -69t-42 -31.5t-54.5 -53t-76.5 -133.5t-112 -171t-131 -95.5t-110 -74q-26 -28 -45 -77.5t-39.5 -104.5t-45 -107.5t-61.5 -86.5q-51 -54 -151 -73l-183 -31q-10 -1 -31.5 -1t-21.5 16v1q0 30 63 71q197 129 273.5 188
t107.5 126q18 35 33 68q16 33 32 65q69 133 149 189q44 30 89.5 52.5t91 68t102.5 150.5q-12 12 -73 35t-108 23t-75 -18.5t-52.5 -54t-41.5 -35.5z" />
    <glyph glyph-name="Chazh" unicode="&#xfb7c;&#xfb8b;" horiz-adv-x="1152" 
d="M791 -135v-15q-4 -31 -22 -67l-12 -19q-1 -2 -3 -4t-7.5 -11t-10 -15t-6.5 -9l-20 -25q-18 -20 -20 -21.5t-12.5 -12t-16.5 -14t-7.5 -4t-6 -2.5t-5.5 -2q-9 0 -21 8l-98 81q-12 9 -29.5 21t-17.5 16.5t5 12.5l153 233q7 10 10 10h4q5 -2 6 -2l23 -13q16 -10 36 -25
l22 -18l17 -18q29 -33 39 -85zM778 -724h-9q-8 0 -61 45.5t-93 70.5q-5 7 -5 10.5t5 11.5l152 234q6 8 13.5 8t39.5 -20q85 -52 105 -132q2 -7 2 -16q-1 -52 -61.5 -128t-87.5 -84zM1030 -266q-51 -62 -79 -70h-9q-8 0 -61 45.5t-93 70.5q-5 7 -5 10.5t5 11.5l152 234
q6 8 14 8t40 -20q84 -53 104 -132q2 -7 2 -16q0 -52 -70 -142zM327 1814q131 -68 131 -181q0 -12 -5.5 -24t-6 -15t-2.5 -5l-6 -12l-29 -44q-8 -12 -24 -31q-52 -63 -79 -63q-8 0 -14 6l-93 76q-44 31 -49 35t-5 8.5t5 12.5l153 233q5 7 11 7t13 -3zM631 2031
q-1 -71 -105 -181q-29 -30 -53 -31q-9 0 -61.5 45.5t-92.5 70.5q-5 7 -5 10.5t5 11.5l152 234q6 8 13.5 8t40 -20.5t62 -50t42.5 -81.5q2 -7 2 -16zM620 1458h-9q-8 0 -61 45.5t-93 70.5q-5 7 -5 10.5t5 11.5l152 234q6 8 13.5 8t40 -20.5t62 -50t42.5 -81.5q2 -7 2 -16
q-1 -52 -61.5 -128t-87.5 -84zM582 949q-7 0 -7 15t22 66q69 159 197 159q49 0 109 -20t93 -20q69 0 137 49q12 0 12 -12t-20.5 -73.5t-29.5 -69t-42 -31.5t-54.5 -53t-76.5 -133.5t-112 -171t-131 -95.5t-110 -74q-26 -28 -45 -77.5t-39.5 -104.5t-45 -107.5t-61.5 -86.5
q-51 -54 -151 -73l-183 -31q-10 -1 -31.5 -1t-21.5 16v1q0 30 63 71q197 129 273.5 188t107.5 126q18 35 33 68q16 33 32 65q69 133 149 189q44 30 89.5 52.5t91 68t102.5 150.5q-12 12 -73 35t-108 23t-75 -18.5t-52.5 -54t-41.5 -35.5z" />
    <glyph glyph-name="Far" unicode="&#xfed3;&#xfeae;" horiz-adv-x="943" 
d="M780 1605q-40 -62 -98 -101q-19 -13 -27.5 -13t-28 16.5t-54.5 46.5t-59.5 45.5t-24.5 17.5v3q1 4 6 13l160 244q6 9 16 9t43 -23t70 -59.5t37 -86.5t-40 -112zM-397 -470q-15 0 -15 7t7 13q12 8 131 96q123 97 147 123q69 64 98 100q48 41 175 208.5t179 226
t112.5 106.5t116 75t141.5 60t86 75q-3 17 -24 50q-23 33 -41 33q-34 -17 -74.5 -17t-71 27t-30.5 57.5t19.5 82.5t77 146.5t88.5 94.5q84 0 142 -75q58 -74 58 -185q0 -113 -35 -204q-71 -188 -169 -260q-37 -28 -120.5 -59t-102.5 -38q-82 -42 -178.5 -148.5
t-170.5 -196.5q-165 -181 -274 -250.5t-152.5 -91.5t-74 -39t-45.5 -17z" />
    <glyph glyph-name="Faz" unicode="&#xfed3;&#xfeb0;" horiz-adv-x="943" 
d="M320 1105q-40 -62 -98 -101q-19 -13 -27.5 -13t-28 16.5t-54.5 46.5t-59.5 45.5t-24.5 17.5v3q1 4 6 13l160 244q6 8 16.5 8t43 -22.5t69.5 -59t37 -86.5t-40 -112zM780 1605q-40 -62 -98 -101q-19 -13 -27.5 -13t-28 16.5t-54.5 46.5t-59.5 45.5t-24.5 17.5v3q1 4 6 13
l160 244q6 9 16 9t43 -23t70 -59.5t37 -86.5t-40 -112zM-397 -470q-15 0 -15 7t7 13q12 8 131 96q123 97 147 123q69 64 98 100q48 41 175 208.5t179 226t112.5 106.5t116 75t141.5 60t86 75q-3 17 -24 50q-23 33 -41 33q-34 -17 -74.5 -17t-71 27t-30.5 57.5t19.5 82.5
t77 146.5t88.5 94.5q84 0 142 -75q58 -74 58 -185q0 -113 -35 -204q-71 -188 -169 -260q-37 -28 -120.5 -59t-102.5 -38q-82 -42 -178.5 -148.5t-170.5 -196.5q-165 -181 -274 -250.5t-152.5 -91.5t-74 -39t-45.5 -17z" />
    <glyph glyph-name="Fazh" unicode="&#xfed3;&#xfb8b;" horiz-adv-x="1201" 
d="M407 1051q0 -24 -6 -36.5t-6.5 -15.5t-2.5 -5l-6 -12l-29 -44q-10 -16 -24 -32q-51 -62 -78 -62h-1q-8 0 -14 6l-93 76q-44 31 -49 35t-5 8.5t5 12.5l153 233q5 7 11.5 7t12.5 -3q132 -68 132 -168zM430 1224h-9q-8 0 -61 45.5t-93 70.5q-5 7 -5 10.5t5 11.5l152 234
q6 8 13.5 8t39.5 -20q85 -53 105 -132q2 -7 2 -16q-1 -52 -61.5 -128t-87.5 -84zM717 1075q-1 -71 -105 -181q-29 -30 -53 -31q-9 0 -61.5 45.5t-92.5 70.5q-5 7 -5 10.5t5 11.5l152 234q6 8 13.5 8t39.5 -20q85 -53 105 -132q2 -7 2 -16zM1071 1839q0 -43 -40 -105
t-98 -101q-19 -13 -27.5 -13t-28 16.5t-54.5 46.5t-59.5 45.5t-24.5 19.5q1 4 6 14l160 244q5 7 14 7t22 -7q106 -64 127 -144q3 -11 3 -23zM-139 -470q-15 0 -15 7t7 13q12 8 131 96q123 97 147 123q69 64 98 100q48 41 175 208.5t179 226t112.5 106.5t116 75t141.5 60
t86 75q-3 17 -24 50q-23 33 -41 33q-34 -17 -74.5 -17t-71 27t-30.5 57.5t19.5 82.5t77 146.5t88.5 94.5q84 0 142 -74.5t58 -186.5t-35 -203q-71 -188 -169 -260q-37 -28 -120.5 -59t-102.5 -38q-82 -42 -178.5 -148.5t-170.5 -196.5q-165 -181 -274 -250.5t-152.5 -91.5
t-74 -39t-45.5 -17z" />
    <glyph glyph-name="Ghar" unicode="&#xfed7;&#xfeae;" horiz-adv-x="943" 
d="M695 1821q8 -12 8 -15.5t6 -31.5v-15l-1 -9l-4 -12l-1 -6l-7 -20q-2 -4 -6 -13t-11 -16t-7 -10l-18 -25q-2 -2 -4 -5t-4 -5t-3.5 -5t-4.5 -5l-17 -20q-2 -2 -23.5 -24t-47.5 -31h-8q-9 0 -46 29.5t-62 46.5q-10 11 -35 26t-28 18t-3 7t6 12l165 235q0 1 4 5t8 4l6 -1h2
l23 -11q13 -7 25 -16q56 -32 88 -87zM944 1924q96 -63 96 -122t-37 -112.5t-72.5 -85.5t-49.5 -32t-37 17t-59 46t-80 54q-5 7 -5 10.5t5 11.5l165 236q6 8 16 8t58 -31zM-397 -470q-15 0 -15 7t7 13q12 8 131 96q123 97 147 123q69 64 98 100q48 41 175 208.5t179 226
t112.5 106.5t116 75t141.5 60t86 75q-3 17 -24 50q-23 33 -41 33q-34 -17 -74.5 -17t-71 27t-30.5 57.5t19.5 82.5t77 146.5t88.5 94.5q84 0 142 -75q58 -74 58 -185q0 -113 -35 -204q-71 -188 -169 -260q-37 -28 -120.5 -59t-102.5 -38q-82 -42 -178.5 -148.5
t-170.5 -196.5q-165 -181 -274 -250.5t-152.5 -91.5t-74 -39t-45.5 -17z" />
    <glyph glyph-name="Ghaz" unicode="&#xfed7;&#xfeb0;" horiz-adv-x="943" 
d="M695 1821q8 -12 8 -15.5t6 -31.5v-15l-1 -9l-4 -12l-1 -6l-7 -20q-2 -4 -6 -13t-11 -16t-7 -10l-18 -25q-2 -2 -4 -5t-4 -5t-3.5 -5t-4.5 -5l-17 -20q-2 -2 -23.5 -24t-47.5 -31h-8q-9 0 -46 29.5t-62 46.5q-10 11 -35 26t-28 18t-3 7t6 12l165 235q0 1 4 5t8 4l6 -1h2
l23 -11q13 -7 25 -16q56 -32 88 -87zM944 1924q96 -63 96 -122t-37 -112.5t-72.5 -85.5t-49.5 -32t-37 17t-59 46t-80 54q-5 7 -5 10.5t5 11.5l165 236q6 8 16 8t58 -31zM320 1251q0 -43 -40 -105t-98 -101q-19 -13 -27.5 -13t-28 16.5t-54.5 46.5t-59.5 45.5t-24.5 17.5v2
q1 4 6 14l160 244q6 9 14 9q8 -1 22 -9q106 -64 127 -144q3 -11 3 -23zM-397 -470q-15 0 -15 7t7 13q12 8 131 96q123 97 147 123q69 64 98 100q48 41 175 208.5t179 226t112.5 106.5t116 75t141.5 60t86 75q-3 17 -24 50q-23 33 -41 33q-34 -17 -74.5 -17t-71 27
t-30.5 57.5t19.5 82.5t77 146.5t88.5 94.5q84 0 142 -75q58 -74 58 -185q0 -113 -35 -204q-71 -188 -169 -260q-37 -28 -120.5 -59t-102.5 -38q-82 -42 -178.5 -148.5t-170.5 -196.5q-165 -181 -274 -250.5t-152.5 -91.5t-74 -39t-45.5 -17z" />
    <glyph glyph-name="Ghazh" unicode="&#xfed7;&#xfb8b;" horiz-adv-x="943" 
d="M28 1118q0 -25 -6 -37.5t-6.5 -15.5t-2.5 -5l-6 -12l-29 -44q-10 -16 -24 -32q-51 -62 -78 -62h-1q-8 0 -14 6l-93 76q-44 31 -49 35t-5 8.5t5 12.5l153 233q5 7 11.5 7t12.5 -3q132 -68 132 -167zM130 1360q-51 -62 -79 -70h-9q-8 0 -61 45.5t-93 70.5q-5 7 -5 10.5
t5 11.5l152 234q6 8 13.5 8t39.5 -20q85 -53 105 -132q2 -7 2 -16q0 -52 -70 -142zM268 1000q-55 -67 -88 -71q-9 0 -61.5 45.5t-92.5 70.5q-5 7 -5 10.5t5 11.5l152 234q6 8 13.5 8t39.5 -20q85 -53 105 -132q2 -7 2 -16q0 -51 -70 -141zM587 1924q8 -12 8 -15t6 -32v-15
l-1 -9l-4 -12l-1 -6l-7 -20q-2 -4 -6 -12.5t-11 -16t-7 -10.5l-18 -25q-2 -2 -4 -5t-4 -5t-3.5 -5t-4.5 -5l-17 -20q-2 -2 -23.5 -24.5t-47.5 -30.5h-8q-9 0 -46 29.5t-62 46.5q-10 11 -35 26t-28 18t-3 7t6 12l165 235q0 1 4 5t8 4l6 -1h2l13 -6h2q2 0 4 -2t5 -3.5t10.5 -7
t13.5 -9.5q56 -32 88 -86zM836 2027q96 -65 96 -123t-37 -112q-80 -116 -123 -116h-1q-17 0 -73.5 45.5t-100.5 70.5q-5 7 -5 10.5t5 11.5l165 236q6 8 15.5 8t58.5 -31zM-397 -470q-15 0 -15 7t7 13q12 8 131 96q123 97 147 123q69 64 98 100q48 41 175 208.5t179 226
t112.5 106.5t116 75t141.5 60t86 75q-3 17 -24 50q-23 33 -41 33q-34 -17 -74.5 -17t-71 27t-30.5 57.5t19.5 82.5t77 146.5t88.5 94.5q84 0 142 -74.5t58 -186.5t-35 -203q-71 -188 -169 -260q-37 -28 -120.5 -59t-102.5 -38q-82 -42 -178.5 -148.5t-170.5 -196.5
q-165 -181 -274 -250.5t-152.5 -91.5t-74 -39t-45.5 -17z" />
    <glyph glyph-name="Sar" unicode="&#xfebb;&#xfeae;" horiz-adv-x="1463" 
d="M999 868h18q137 0 255 97q44 37 83 91q-30 42 -92 45q-6 0 -12 1q-54 0 -93 -30q-48 -45 -84.5 -98t-74.5 -106zM-239 -310q-23 -9 -32.5 -9t-9.5 6.5t23.5 21.5t112 71.5t157.5 113t154.5 152.5t214.5 280t163 231q185 247 403 317q17 20 39 58q104 173 183.5 250
t157.5 77h3q114 -5 114 -110q0 -36 -13 -84q-41 -109 -151 -251t-226 -208q-62 -34 -126 -36q-188 -28 -334 -168q-84 -80 -176 -204.5t-175.5 -208t-227 -172.5t-254.5 -127z" />
    <glyph glyph-name="Saz" unicode="&#xfebb;&#xfeb0;" horiz-adv-x="1505" 
d="M837 1459q-40 -61 -84 -91q-32 -21 -46 -22q-5 0 -7 3q-36 29 -71 59t-59 46q-24 15 -25 19q0 4 6 14l160 244q6 9 16 9t43 -23t70 -59.5t37 -86.5t-40 -112zM1041 868h18q137 0 255 97q44 37 83 91q-30 42 -92 45q-6 0 -12 1q-54 0 -93 -30q-48 -45 -84.5 -98
t-74.5 -106zM-197 -310q-23 -9 -32.5 -9t-9.5 6.5t23.5 21.5t112 71.5t157.5 113t154.5 152.5t214.5 280t163 231q185 247 403 317q17 20 39 58q104 173 183.5 250t157.5 77h3q114 -5 114 -110q0 -36 -13 -84q-41 -109 -151 -251t-226 -208q-62 -34 -126 -36
q-188 -28 -334 -168q-84 -80 -176 -204.5t-175.5 -208t-227 -172.5t-254.5 -127z" />
    <glyph glyph-name="Sazh" unicode="&#xfebb;&#xfb8b;" horiz-adv-x="1390" 
d="M454 1238v-18q0 -12 -6 -24.5t-6.5 -15.5t-2.5 -5l-6 -12l-29 -44q-8 -12 -24 -31q-52 -63 -79 -63q-8 0 -14 6l-93 76q-44 31 -49 35t-5 8.5t5 12.5l153 233q5 7 11 7t13 -3q125 -64 132 -162zM556 1476q-55 -67 -88 -71q-9 0 -61.5 45.5t-92.5 70.5q-5 7 -5 10.5
t5 11.5l152 234q6 8 13.5 8t40 -20.5t62 -50t42.5 -81.5q2 -7 2 -16q0 -51 -70 -141zM694 1114q-51 -62 -79 -70h-9q-8 0 -61 45.5t-93 70.5q-5 7 -5 10.5t5 11.5l152 234q6 8 13.5 8t40 -20.5t62 -50t42.5 -81.5q2 -7 2 -16q0 -52 -70 -142zM926 868h18q138 0 256 97
q44 37 82 91q-30 42 -92 45q-6 0 -12 1q-54 0 -93 -30q-48 -45 -84.5 -98t-74.5 -106zM-312 -310q-23 -9 -32.5 -9t-9.5 6t24 21.5t112 72t157 113t154.5 152.5t214.5 280t163 231q185 247 403 317q18 20 40 58q106 177 184 252t156 75h3q114 -5 114 -110q0 -36 -13 -84
q-42 -109 -152 -251t-226 -208q-62 -34 -125 -36q-187 -28 -333 -168q-84 -80 -176.5 -204.5t-176 -208t-227 -172.5t-254.5 -127z" />
    <glyph glyph-name="Zaar" unicode="&#xfebf;&#xfeae;" horiz-adv-x="1390" 
d="M1215 1799q0 -43 -40 -105t-84 -92q-32 -21 -46 -21q-5 0 -7 3q-36 29 -71 59q-35 29 -59 45q-24 15 -25 20q0 4 6 14l160 244q6 9 14 9q8 -1 22 -9q106 -64 127 -144q3 -11 3 -23zM926 868h18q138 0 256 97q44 37 82 91q-30 42 -92 45q-6 0 -12 1q-54 0 -93 -30
q-48 -45 -84.5 -98t-74.5 -106zM-312 -310q-23 -9 -32.5 -9t-9.5 6t24 21.5t112 72t157 113t154.5 152.5t214.5 280t163 231q185 247 403 317q18 20 40 58q106 177 184 252t156 75h3q114 -5 114 -110q0 -36 -13 -84q-42 -109 -152 -251t-226 -208q-62 -34 -125 -36
q-187 -28 -333 -168q-84 -80 -176.5 -204.5t-176 -208t-227 -172.5t-254.5 -127z" />
    <glyph glyph-name="Zaz" unicode="&#xfebf;&#xfeb0;" horiz-adv-x="1390" 
d="M1234 1789q-40 -61 -84 -91q-32 -21 -46 -22q-5 0 -7 3q-36 29 -71 59q-36 30 -60 46q-24 15 -24 19t6 14l160 244q6 9 16 9t43 -23t70 -59.5t37 -86.5t-40 -112zM642 1431q-40 -61 -84 -91q-32 -21 -46 -22q-5 0 -7 3q-36 29 -71 59q-36 30 -60 46q-24 15 -24 19t6 14
l160 244q6 9 16 9t43 -23t70 -59.5t37 -86.5t-40 -112zM926 868h18q138 0 256 97q44 37 82 91q-30 42 -92 45q-6 0 -12 1q-54 0 -93 -30q-48 -45 -84.5 -98t-74.5 -106zM-312 -310q-23 -9 -32.5 -9t-9.5 6t24 21.5t112 72t157 113t154.5 152.5t214.5 280t163 231
q185 247 403 317q18 20 40 58q106 177 184 252t156 75h3q114 -5 114 -110q0 -36 -13 -84q-42 -109 -152 -251t-226 -208q-62 -34 -125 -36q-187 -28 -333 -168q-84 -80 -176.5 -204.5t-176 -208t-227 -172.5t-254.5 -127z" />
    <glyph glyph-name="Zazh" unicode="&#xfebf;&#xfb8b;" horiz-adv-x="1390" 
d="M1271 2001q0 -43 -40 -105t-84 -92q-32 -21 -41.5 -21t-28.5 16t-54 45.5t-59 45t-25 20.5q0 4 6 14l160 244q5 7 14 7t22 -7q106 -64 127 -144q3 -11 3 -23zM284 1562q132 -68 132 -180q0 -12 -6 -24.5t-6.5 -15.5t-2.5 -5l-6 -12l-29 -44q-8 -12 -24 -31
q-52 -63 -79 -63q-8 0 -14 6l-93 76q-44 31 -49 35t-5 8.5t5 12.5l153 233q5 7 11.5 7t12.5 -3zM518 1638q-55 -67 -88 -71q-9 0 -61.5 45.5t-92.5 70.5q-5 7 -5 10.5t5 11.5l152 234q6 8 13.5 8t40 -20.5t62 -50t42.5 -81.5q2 -7 2 -16q0 -51 -70 -141zM656 1276
q-51 -62 -79 -70h-9q-8 0 -61 45.5t-93 70.5q-5 7 -5 10.5t5 11.5l152 234q6 8 13.5 8t40 -20.5t62 -50t42.5 -81.5q2 -7 2 -16q0 -52 -70 -142zM926 868h18q138 0 256 97q44 37 82 91q-30 42 -92 45q-6 0 -12 1q-54 0 -93 -30q-48 -45 -84.5 -98t-74.5 -106zM-312 -310
q-23 -9 -32.5 -9t-9.5 6t24 21.5t112 72t157 113t154.5 152.5t214.5 280t163 231q185 247 403 317q18 20 40 58q106 177 184 252t156 75h3q114 -5 114 -110q0 -36 -13 -84q-42 -109 -152 -251t-226 -208q-62 -34 -125 -36q-187 -28 -333 -168q-84 -80 -176.5 -204.5
t-176 -208t-227 -172.5t-254.5 -127z" />
    <glyph glyph-name="Tar" unicode="&#xfec3;&#xfeae;" horiz-adv-x="1212" 
d="M898 528q-92 -72 -198 -99q-193 -48 -255 -155q-12 -12 -72 -103.5t-142 -205.5q-146 -185 -371 -302q-69 -34 -91 -45t-35.5 -11t-13.5 11q0 26 130 119t199 163q101 94 193 245.5t146.5 231t118 140.5t234.5 135t187 85q108 51 141 120q-16 21 -55 38t-65 17
q-89 0 -187 -132q-67 -91 -113 -132q-17 -12 -26 -5.5t-8.5 18t40 67.5t66.5 100q27 30 39 89q18 61 26 135l27 211q9 74 24.5 120.5t51 121.5t48.5 112q36 73 43 73t7 -23q0 -37 -18 -135l-47 -258l-63 -279q66 60 107.5 87.5t88 27.5t86.5 -34q39 -38 39 -98.5t-70.5 -203
t-211.5 -246.5z" />
    <glyph glyph-name="Taz" unicode="&#xfec3;&#xfeb0;" horiz-adv-x="1212" 
d="M615 1305q0 -43 -40 -105t-84 -92q-32 -21 -46 -21q-5 0 -7 3q-36 29 -71 59q-35 29 -59 45q-24 15 -25 20q0 4 6 14l160 244q6 8 15 8q8 0 16 -4q111 -65 132 -148q3 -11 3 -23zM898 528q-92 -72 -198 -99q-193 -48 -255 -155q-12 -12 -72 -103.5t-142 -205.5
q-146 -185 -371 -302q-69 -34 -91 -45t-35.5 -11t-13.5 11q0 26 130 119t199 163q101 94 193 245.5t146.5 231t118 140.5t234.5 135t187 85q108 51 141 120q-16 21 -55 38t-65 17q-89 0 -187 -132q-67 -91 -113 -132q-17 -12 -26 -5.5t-8.5 18t40 67.5t66.5 100q27 30 39 89
q18 61 26 135l27 211q9 74 24.5 120.5t51 121.5t48.5 112q36 73 43 73t7 -23q0 -37 -18 -135l-47 -258l-63 -279q66 60 107.5 87.5t88 27.5t86.5 -34q39 -38 39 -98.5t-70.5 -203t-211.5 -246.5z" />
    <glyph glyph-name="Tazh" unicode="&#xfec3;&#xfb8b;" horiz-adv-x="1212" 
d="M318 1341v-18q0 -12 -6 -24.5t-6.5 -15.5t-2.5 -5l-6 -12l-29 -44q-10 -16 -24 -32q-51 -62 -78 -62h-1q-8 0 -14 6l-93 76q-44 31 -49 35t-5 8.5t5 12.5l153 233q5 7 11 7t13 -3q125 -64 132 -162zM420 1578q-51 -62 -79 -70h-9q-8 0 -61 45.5t-93 70.5q-5 7 -5 10.5
t5 11.5l152 234q6 8 13.5 8t40 -20.5t62 -50t42.5 -81.5q2 -7 2 -16q0 -52 -70 -142zM558 1218q-55 -67 -88 -71q-9 0 -61.5 45.5t-92.5 70.5q-5 7 -5 10.5t5 11.5l152 234q7 8 14.5 8t39.5 -19q84 -51 104 -133q2 -7 2 -16q0 -51 -70 -141zM630 640q-16 0 -16 19v1
q1 12 40.5 68t66.5 100q27 30 39 89q18 61 26 135l27 211q9 74 24.5 120.5t51 121.5t48.5 112q36 73 43 73t7 -30t-18 -128l-47 -258l-63 -279q66 60 107.5 87.5t88 27.5t86.5 -34q39 -38 39 -98.5t-70.5 -203t-211.5 -246.5q-92 -72 -198 -99q-193 -48 -255 -155
q-12 -12 -72 -103.5t-142 -205.5q-146 -185 -371 -302q-69 -34 -91 -45t-35.5 -11t-13.5 11q0 26 130 119t199 163q101 94 193 245.5t146.5 231t118 140.5t234.5 135t187 85q108 51 141 120q-16 21 -55 38t-65 17q-89 0 -187 -132q-103 -140 -132 -140z" />
    <glyph glyph-name="Zare" unicode="&#xfec7;&#xfeae;" horiz-adv-x="1212" 
d="M1438 1665q0 -43 -40 -105t-84 -92q-32 -21 -46 -21q-5 0 -7 3q-36 29 -71 59q-36 29 -60 45q-24 15 -24 20q0 4 6 14l160 244q6 9 14 9q8 -1 22 -9q106 -64 127 -144q3 -11 3 -23zM898 528q-92 -72 -198 -99q-193 -48 -255 -155q-12 -12 -72 -103.5t-142 -205.5
q-146 -185 -371 -302q-69 -34 -91 -45t-35.5 -11t-13.5 11q0 26 130 119t199 163q101 94 193 245.5t146.5 231t118 140.5t234.5 135t187 85q108 51 141 120q-16 21 -55 38t-65 17q-89 0 -187 -132q-67 -91 -113 -132q-17 -12 -26 -5.5t-8.5 18t40 67.5t66.5 100q27 30 39 89
q18 61 26 135l27 211q9 74 24.5 120.5t51 121.5t48.5 112q36 73 43 73t7 -23q0 -37 -18 -135l-47 -258l-63 -279q66 60 107.5 87.5t88 27.5t86.5 -34q39 -38 39 -98.5t-70.5 -203t-211.5 -246.5z" />
    <glyph glyph-name="Zaaz" unicode="&#xfec7;&#xfeb0;" horiz-adv-x="1212" 
d="M573 1393q0 -43 -40 -105t-84 -92q-32 -21 -46 -21q-5 0 -7 3q-36 29 -71 59q-35 29 -59 45q-24 15 -25 20q0 4 6 14l160 244q6 8 15 8q8 0 16 -4q111 -65 132 -148q3 -11 3 -23zM1438 1665q0 -43 -40 -105t-84 -91.5t-53 -18.5q-36 29 -71 59t-59.5 45.5t-24 20
t5.5 13.5l160 244q6 9 14 9q8 -1 22 -9q106 -64 127 -144q3 -11 3 -23zM898 528q-92 -72 -198 -99q-193 -48 -255 -155q-12 -12 -72 -103.5t-142 -205.5q-146 -185 -371 -302q-69 -34 -91 -45t-35.5 -11t-13.5 11q0 26 130 119t199 163q101 94 193 245.5t146.5 231
t118 140.5t234.5 135t187 85q108 51 141 120q-16 21 -55 38t-65 17q-89 0 -187 -132q-67 -91 -113 -132q-17 -12 -26 -5.5t-8.5 18t40 67.5t66.5 100q27 30 39 89q18 61 26 135l27 211q9 74 24.5 120.5t51 121.5t48.5 112q36 73 43 73t7 -23q0 -37 -18 -135l-47 -258
l-63 -279q66 60 107.5 87.5t88 27.5t86.5 -34q39 -38 39 -98.5t-70.5 -203t-211.5 -246.5z" />
    <glyph glyph-name="Zaazh" unicode="&#xfec7;&#xfb8b;" horiz-adv-x="1212" 
d="M1465 1861q0 -50 -40 -111.5t-84 -91.5q-33 -22 -46 -22q-5 0 -7 3q-36 29 -71 59t-59 45.5t-25 19.5q0 4 6 14l160 244q6 9 16 9t43 -23t70 -59.5t37 -86.5zM251 1491q131 -68 131 -181q0 -12 -5.5 -24t-6 -15t-2.5 -5l-6 -12l-29 -44q-10 -16 -24 -32q-51 -62 -78 -62
h-1q-8 0 -14 6l-93 76q-44 31 -49 35t-5 8.5t5 12.5l153 233q5 7 11.5 7t12.5 -3zM406 1496h-9q-8 0 -61 45.5t-93 70.5q-5 7 -5 10.5t5 11.5l152 234q6 8 13.5 8t40 -20.5t62 -50t42.5 -81.5q2 -7 2 -16q-1 -52 -61.5 -128t-87.5 -84zM693 1347q-1 -71 -105 -181
q-29 -30 -53 -31q-9 0 -61.5 45.5t-92.5 70.5q-5 7 -5 10.5t5 11.5l152 234q6 8 13.5 8t39.5 -19q85 -52 105 -133q2 -7 2 -16zM630 640q-16 0 -16 19v1q1 12 40.5 68t66.5 100q27 30 39 89q18 61 26 135l27 211q9 74 24.5 120.5t51 121.5t48.5 112q36 73 43 73t7 -30
t-18 -128l-47 -258l-63 -279q66 60 107.5 87.5t88 27.5t86.5 -34q39 -38 39 -98.5t-70.5 -203t-211.5 -246.5q-92 -72 -198 -99q-193 -48 -255 -155q-12 -12 -72 -103.5t-142 -205.5q-146 -185 -371 -302q-69 -34 -91 -45t-35.5 -11t-13.5 11q0 26 130 119t199 163
q101 94 193 245.5t146.5 231t118 140.5t234.5 135t187 85q108 51 141 120q-16 21 -55 38t-65 17q-89 0 -187 -132q-103 -140 -132 -140z" />
    <glyph glyph-name="Mar" unicode="&#xfee3;&#xfeae;" horiz-adv-x="1025" 
d="M447 276q-14 -14 -74 -105.5t-142 -205.5q-146 -185 -371 -302q-69 -34 -91 -45q-21 -11 -35 -11t-14 11q0 26 130 119t199 163q101 94 193 245.5t153 237.5t146 171t124 112q160 276 165.5 276t68.5 -65t103 -134q9 -18 9 -34t-18.5 -63t-48.5 -95q-27 -50 -65 -87
q-12 -12 -39 -12h-46q-91 0 -135.5 -17.5t-104.5 -58.5t-107 -100z" />
    <glyph glyph-name="Maz" unicode="&#xfee3;&#xfeb0;" horiz-adv-x="1025" 
d="M559 1327q-40 -61 -84 -91q-32 -21 -46 -22q-5 0 -7 3q-36 29 -71 59t-59 46q-24 15 -25 19q0 4 6 14l160 244q6 9 16 9t43 -23t70 -59.5t37 -86.5t-40 -112zM447 276q-14 -14 -74 -105.5t-142 -205.5q-146 -185 -371 -302q-69 -34 -91 -45t-35.5 -11t-13.5 11
q0 26 130 119t199 163q101 94 193 245.5t153 237.5t146 171t124 112q160 276 165.5 276t68.5 -65t103 -134q9 -18 9 -34t-18.5 -63t-48.5 -95q-27 -50 -65 -87q-12 -12 -39 -12h-46q-91 0 -135.5 -17.5t-104.5 -58.5t-107 -100z" />
    <glyph glyph-name="Mazh" unicode="&#xfee3;&#xfb8b;" horiz-adv-x="1025" 
d="M273 1540q132 -69 132 -181q0 -12 -6 -24t-6.5 -15t-2.5 -5l-6 -12l-29 -44q-8 -12 -24 -31q-52 -63 -79 -63q-8 0 -14 6l-93 76q-44 31 -49 35t-5 8.5t5 12.5l153 233q5 7 11 7t13 -3zM577 1757q-1 -71 -105 -181q-29 -30 -53 -31q-9 0 -61.5 45.5t-92.5 70.5
q-5 7 -5 10.5t5 11.5l152 234q6 8 13.5 8t40 -20.5t62 -50t42.5 -81.5q2 -7 2 -16zM566 1184h-9q-8 0 -61 45.5t-93 70.5q-5 7 -5 10.5t5 11.5l152 234q6 8 13.5 8t40 -20.5t62 -50t42.5 -81.5q2 -7 2 -16q-1 -52 -61.5 -128t-87.5 -84zM447 276q-14 -14 -74 -105.5
t-142 -205.5q-146 -185 -371 -302q-69 -34 -91 -45t-35.5 -11t-13.5 11q0 26 130 119t199 163q101 94 193 245.5t153 237.5t146 171t124 112q160 276 165.5 276t68.5 -65t103 -134q9 -18 9 -34t-18.5 -63t-48.5 -95q-27 -50 -65 -87q-12 -12 -39 -12h-46q-91 0 -135.5 -17.5
t-104.5 -58.5t-107 -100z" />
    <glyph glyph-name="Saar" unicode="&#xfeb3;&#xfeae;" horiz-adv-x="1758" 
d="M-312 -310q-23 -9 -32.5 -9t-9.5 6t24 21.5t112 72t157 113t154.5 152.5t214.5 280t193.5 271t185.5 181t277 118q85 13 160.5 17t97.5 11q42 13 120 133.5t158 148.5q51 15 87 15t45.5 4t22 19.5t24 31.5t19.5 28q8 11 16 11h2q8 -1 8 -24t-42 -103q-67 -127 -140 -132
q-92 -8 -150 -73.5t-117 -145.5q-164 -223 -254 -251q-50 0 -150.5 -15t-183 -52.5t-166 -117t-176 -204t-176 -208t-227 -172.5t-254.5 -127z" />
    <glyph glyph-name="Saaz" unicode="&#xfeb3;&#xfeb0;" horiz-adv-x="1758" 
d="M894 1605q0 -43 -40 -105t-84 -92q-32 -21 -46 -21q-5 0 -7 3q-36 29 -71 59q-36 29 -60 45q-24 15 -24 20q0 4 6 14l160 244q6 9 14 9q8 -1 22 -9q106 -64 127 -144q3 -11 3 -23zM-312 -310q-23 -9 -32.5 -9t-9.5 6t24 21.5t112 72t157 113t154.5 152.5t214.5 280
t193.5 271t185.5 181t277 118q85 13 160.5 17t97.5 11q42 13 120 133.5t158 148.5q51 15 87 15t45.5 4t22 19.5t24 31.5t20 28t17 11t8.5 -24t-42 -103q-67 -127 -140 -132q-92 -8 -150 -73.5t-117 -145.5q-164 -223 -254 -251q-50 0 -150.5 -15t-183 -52.5t-166 -117
t-176 -204t-176 -208t-227 -172.5t-254.5 -127z" />
    <glyph glyph-name="Saazh" unicode="&#xfeb3;&#xfb8b;" horiz-adv-x="1758" 
d="M695 1581v-18q0 -12 -6 -24.5t-6.5 -15.5t-2.5 -5l-6 -12l-29 -44q-6 -10 -24 -32q-51 -62 -78 -62h-1q-8 0 -14 6l-93 76q-44 31 -49 35t-5 8.5t5 12.5l153 233q5 7 11 7t13 -3q124 -64 132 -162zM867 1960q-1 -52 -61 -129t-88 -83h-9q-8 0 -61 45.5t-93 70.5
q-5 7 -5 10.5t5 11.5l152 234q6 8 13.5 8t39.5 -20q86 -53 105 -132q2 -7 2 -16zM1005 1599q-1 -51 -61 -128q-62 -80 -97 -84q-9 0 -61.5 45.5t-92.5 70.5q-5 7 -5 10.5t5 11.5l152 234q6 8 14.5 8t38.5 -19q86 -53 105 -133q2 -7 2 -16zM1678.5 1276q11.5 16 19.5 27.5
t18 11.5q9 0 9 -20q0 -24 -43 -105q-68 -128 -140 -134q-92 -8 -150 -73.5t-117 -145.5q-164 -222 -254 -251q-50 0 -150.5 -15t-183 -52.5t-166 -117t-176 -204t-176 -208t-227 -173t-254.5 -126.5q-23 -9 -32.5 -9t-9.5 6t24 21.5t112 72t157 113t154.5 152.5t214.5 280
t172 242q88 119 208 212q122 92 276 116q85 13 160.5 17t97.5 11q42 13 120 133.5t143.5 142t101.5 21.5t45.5 4t22 19.5t24 31.5z" />
    <glyph glyph-name="Shar" unicode="&#xfeb7;&#xfeae;" horiz-adv-x="1758" 
d="M1219 2055q132 -69 132 -181q0 -12 -6 -24t-6.5 -15t-2.5 -5l-6 -12l-29 -44q-10 -16 -24 -32q-51 -62 -78 -62h-1q-8 0 -14 6l-93 76q-44 31 -49 35t-5 8.5t5 12.5l153 233q5 7 11 7t13 -3zM1374 2060h-9q-8 0 -61 45.5t-93 70.5q-5 7 -5 10.5t5 11.5l152 234
q6 8 13.5 8t40 -20.5t62 -50t42.5 -81.5q2 -7 2 -16q-1 -52 -61.5 -128t-87.5 -84zM1661 1911q-1 -71 -105 -181q-29 -30 -53 -31q-9 0 -61.5 45.5t-92.5 70.5q-5 7 -5 10.5t5 11.5l152 234q6 8 13.5 8t40 -20.5t62 -50t42.5 -81.5q2 -7 2 -16zM1678.5 1276
q11.5 16 19.5 27.5t17 11.5t9 -23.5t-42 -103.5q-67 -127 -149.5 -133.5t-140.5 -72t-117 -145.5q-164 -223 -254 -251q-50 0 -150.5 -15t-183 -52.5t-166 -117t-176 -204t-176 -208t-227 -172.5t-254.5 -127q-23 -9 -32.5 -9t-9.5 6t24 21.5t112 72t157 113t154.5 152.5
t214.5 280t193.5 271t185.5 181t277 118q85 13 160.5 17t97.5 11q42 13 120 133.5t158 148.5q51 15 87 15t45.5 4t22 19.5t24 31.5z" />
    <glyph glyph-name="Shaz" unicode="&#xfeb7;&#xfeb0;" horiz-adv-x="1758" 
d="M1368 1957v-18q0 -12 -6 -24.5t-6.5 -15.5t-2.5 -5l-6 -12l-29 -44q-10 -16 -24 -32q-51 -62 -78 -62h-1q-8 0 -14 6l-93 76q-44 31 -49 35t-5 8.5t5 12.5l153 233q5 7 11 7t13 -3q125 -64 132 -162zM1470 2194q-51 -62 -79 -70h-9q-8 0 -61 45.5t-93 70.5q-5 7 -5 10.5
t5 11.5l152 234q6 8 13.5 8t40 -20.5t62 -50t42.5 -81.5q2 -7 2 -16q0 -52 -70 -142zM1608 1834q-55 -67 -88 -71q-9 0 -61.5 45.5t-92.5 70.5q-5 7 -5 10.5t5 11.5l152 234q6 8 13.5 8t40 -20.5t62 -50t42.5 -81.5q2 -7 2 -16q0 -51 -70 -141zM817 1669q0 -43 -40 -105
t-84 -92q-32 -21 -41.5 -21t-28.5 16t-54 45.5t-59 45t-25 20.5q0 4 6 14l160 244q10 15 36 0q106 -64 127 -144q3 -11 3 -23zM1678.5 1276q11.5 16 19.5 27.5t17 11.5t9 -23.5t-42 -103.5q-67 -127 -149.5 -133.5t-140.5 -72t-117 -145.5q-164 -223 -254 -251
q-50 0 -150.5 -15t-183 -52.5t-166 -117t-176 -204t-176 -208t-227 -172.5t-254.5 -127q-23 -9 -32.5 -9t-9.5 6t24 21.5t112 72t157 113t154.5 152.5t214.5 280t193.5 271t185.5 181t277 118q85 13 160.5 17t97.5 11q42 13 120 133.5t158 148.5q51 15 87 15t45.5 4t22 19.5
t24 31.5z" />
    <glyph glyph-name="Shazh" unicode="&#xfeb7;&#xfb8b;" horiz-adv-x="1758" 
d="M1484 2067v-18q0 -12 -6 -24.5t-6.5 -15.5t-2.5 -5l-6 -12l-29 -44q-10 -16 -24 -32q-51 -62 -78 -62h-1q-8 0 -14 6l-93 76q-44 31 -49 35t-5 8.5t5 12.5l153 233q5 7 11 7t13 -3q125 -64 132 -162zM1586 2304q-51 -62 -79 -70h-9q-8 0 -61 45.5t-93 70.5q-5 7 -5 10.5
t5 11.5l152 234q6 8 13.5 8t40 -20.5t62 -50t42.5 -81.5q2 -7 2 -16q0 -52 -70 -142zM1724 1944q-55 -67 -88 -71q-9 0 -61.5 45.5t-92.5 70.5q-5 7 -5 10.5t5 11.5l152 234q6 8 13.5 8t40 -20.5t62 -50t42.5 -81.5q2 -7 2 -16q0 -51 -70 -141zM563 1743q131 -68 131 -181
q0 -12 -5.5 -24t-6 -15t-2.5 -5l-6 -12l-29 -44q-10 -16 -24 -32q-51 -62 -78 -62h-1q-8 0 -14 6l-93 76q-44 31 -49 35t-5 8.5t5 12.5l153 233q5 7 11.5 7t12.5 -3zM718 1748h-9q-8 0 -61 45.5t-93 70.5q-5 7 -5 10.5t5 11.5l152 234q6 8 13.5 8t40 -20.5t62 -50
t42.5 -81.5q2 -7 2 -16q-1 -52 -61.5 -128t-87.5 -84zM1005 1599q-1 -71 -105 -181q-29 -30 -53 -31q-9 0 -61.5 45.5t-92.5 70.5q-5 7 -5 10.5t5 11.5l152 234q6 8 13.5 8t40 -20.5t62 -50t42.5 -81.5q2 -7 2 -16zM1678.5 1276q11.5 16 19.5 27.5t17 11.5t9 -23.5
t-42 -103.5q-67 -127 -149.5 -133.5t-140.5 -72t-117 -145.5q-164 -223 -254 -251q-50 0 -150.5 -15t-183 -52.5t-166 -117t-176 -204t-176 -208t-227 -172.5t-254.5 -127q-23 -9 -32.5 -9t-9.5 6t24 21.5t112 72t157 113t154.5 152.5t214.5 280t193.5 271t185.5 181
t277 118q85 13 160.5 17t97.5 11q42 13 120 133.5t158 148.5q51 15 87 15t45.5 4t22 19.5t24 31.5z" />
    <glyph glyph-name="Ha" unicode="&#x6be;&#xfe8e;" horiz-adv-x="546" 
d="M61 184q0 208 252 540q-61 26 -110 82t-49 147t26.5 200.5t49 181.5t90 225.5t89.5 153.5q9 0 9 -15t-16 -61q-86 -262 -86 -397q0 -67 28 -116.5t130 -58.5h33q15 0 15 -24q0 -51 -77 -195q-60 -102 -85 -135q-108 -153 -108 -264q0 -49 17 -81.5t32 -32.5t37 54t25 54
q30 0 53 -41t23 -79q0 -102 -64 -202q-74 -120 -170 -120q-61 0 -102.5 57t-41.5 127z" />
    <glyph glyph-name="Fik" unicode="&#xfed3;&#xfbff;&#xfb8f;" horiz-adv-x="2908" 
d="M2292 -613l2 -14v-14l-1 -9l-3 -12l-1 -6l-7 -20q-12 -26 -17 -31.5t-5 -7.5l-12 -18q-8 -12 -10 -15.5t-9 -10.5l-16 -20q-2 -1 -8 -10l-28 -27q-17 -14 -30 -18h-7q-10 0 -57 41.5t-73 58t-28.5 19.5t-2.5 7t5 12l153 233q0 1 4 6t8 5l8 -4l7 -3q2 -2 4 -2.5t4 -2t5 -3
t10 -6.5t28 -17.5t47.5 -48t26.5 -46t3 -16.5zM2603 -615q-1 -71 -105 -181q-29 -30 -53 -31q-9 0 -62 45q-52 46 -92 71q-5 7 -5 10.5t5 11.5l152 234q6 8 13.5 8t39.5 -20q85 -53 105 -132q2 -7 2 -16zM2940 1467q-40 -62 -98 -101q-19 -13 -27.5 -13t-28 16.5t-54.5 46.5
t-59.5 45.5t-24.5 19.5v1q1 4 6 13l160 244q6 8 16.5 8t43 -22.5t69.5 -59t37 -86.5t-40 -112zM2187 1450q-7 1 -7 18.5t44.5 86.5t104 127.5t272.5 237.5q97 76 417.5 345.5t514.5 463t201.5 198.5t12.5 5t5 -7.5t-2 -16.5q-30 -52 -81.5 -145t-185.5 -245
q-75 -81 -178 -176t-407.5 -344t-499 -398.5t-210.5 -149.5h-1zM2647 493h25q71 8 71 69q0 27 -21 54t-43 27l-24 -12q-9 -6 -50.5 -6t-84.5 17q-41 18 -41 61t71 186q25 59 57 107q28 46 52 46q66 0 129 -64q84 -80 84 -203q0 -212 -160 -406q-53 -60 -92 -60l-37 6
q-20 4 -37 4q-92 0 -191 -174q-89 -144 -198 -144q-111 9 -168 100.5t-59 225.5q3 127 29 312q0 12 -5 12l-10 -5q-29 -39 -59 -81t-66 -91q-90 -114 -229.5 -217t-295.5 -161q-376 -140 -766 -141h-45q-315 1 -395 97q-48 58 -51 173q6 309 50 309q3 0 6 -2q9 0 14 -60
t44 -106q84 -92 402 -92q698 0 1100 252q148 87 235 212q62 88 101 226l42 176q11 47 102 223l19 39q8 21 20 21t12 -19q0 -3 -8 -35.5t-61.5 -309t-53.5 -487.5v-7q0 -150 64.5 -208.5t137.5 -58.5q102 0 168 90q92 122 151 122h1q49 -17 64 -17z" />
    <glyph glyph-name="Piir" unicode="&#xfb58;&#xfbff;&#xfeae;" horiz-adv-x="1294" 
d="M99 -765q0 -38 -47 -106.5t-69 -81t-30 -12.5t-24 15t-50 44l-71 54q-4 4 -4 9t4 12l142 216q6 10 10 10h1q4 -1 20 -11q118 -70 118 -149zM393 -748q0 -38 -55.5 -119t-87.5 -81q-11 0 -27 15t-50 44l-71 54q-4 4 -4 9.5t4 11.5l142 216q6 10 10 10h1q4 0 20 -10
q118 -70 118 -150zM981 -665q0 -42 -36 -94.5t-62.5 -78.5t-39 -26t-29 15t-50.5 44l-71 54q-4 4 -4 9.5t4 11.5l142 216q7 11 11 11t20 -11q115 -68 115 -151zM852 -345q0 -43 -36 -95q-70 -103 -107 -103h-1q-10 0 -24 14.5t-49 43.5l-71 54q-4 4 -4 9.5t4 11.5l142 216
q7 11 11 11t20 -11q115 -68 115 -151zM1146 -328q0 -42 -53.5 -120.5t-88.5 -78.5q-9 0 -25 15t-50 44l-71 54q-4 4 -4 9t4 12l142 216q6 10 10 10h1q4 -1 20 -11q115 -68 115 -150zM860 519l-114 4q-121 0 -237.5 -79.5t-266.5 -295.5q-40 -56 -120 -170
q-169 -238 -558 -468q-138 -82 -183 -82q-19 0 -19 8q0 32 192 160q46 30 98 68q118 86 256 243q88 91 229 299.5t195 275.5q113 139 242 223q176 125 351 129h114q48 0 68 30l97 144q26 35 39.5 35t13.5 -13v-15q-6 -27 -18 -51.5t-25 -51.5t-38.5 -72t-69.5 -112.5
t-96 -122.5t-80 -70.5t-70 -15.5z" />
    <glyph glyph-name="Pich" unicode="&#xfb58;&#xfbff;&#xfb7b;" horiz-adv-x="1657" 
d="M1517 549q0 -43 -36 -95q-70 -103 -107 -103h-1q-11 0 -25 14.5t-48 43.5l-71 54q-4 4 -4 9.5t4 11.5l142 216q7 11 11 11t20 -11q115 -68 115 -151zM1388 869q0 -43 -36 -95q-70 -103 -107 -103h-1q-10 0 -24 14.5t-49 43.5l-71 54q-4 4 -4 9.5t4 11.5l142 216
q7 11 11 11t20 -11q115 -68 115 -151zM1682 886q0 -42 -53.5 -120.5t-88.5 -78.5q-9 0 -25 15t-50 44l-71 54q-4 4 -4 9t4 12l142 216q6 10 10 10h1q4 -1 20 -11q115 -68 115 -150zM1179 -872q0 -42 -45 -108t-68 -78.5t-30.5 -12.5t-23.5 15t-50 44l-71 54q-4 4 -4 9t4 12
l142 216q6 10 9 10q5 0 22 -11q115 -68 115 -150zM1443 -942q-78 -112 -112 -112q-9 0 -25 15t-50 44l-71 54q-4 4 -4 9.5t4 11.5l142 216q7 11 9 11l2 -1q4 0 20 -10q115 -68 115 -151q0 -42 -30 -87zM827 -16q0 -42 -45 -108q-46 -66 -66 -77q-26 -14 -33 -14t-23 15
t-50 44l-71 54q-4 4 -4 9t4 12l142 216q6 10 9 10q5 0 22 -11q115 -68 115 -150zM698 304q0 -42 -53.5 -120.5t-88.5 -78.5q-9 0 -25 15t-50 44l-71 54q-4 4 -4 9t4 12l142 216q6 10 9 10q5 0 22 -11q115 -68 115 -150zM992 321q0 -43 -36 -95q-70 -103 -107 -103h-1
q-10 0 -24 14.5t-49 43.5l-71 54q-4 4 -4 9.5t4 11.5l142 216q7 11 9 11l2 -1q4 0 20 -10q115 -68 115 -151zM784 934q0 28 -199 28q-79 0 -107 -5t-35 -5t-7 7q0 34 105 166q71 88 198 182t273 94h20q16 0 52.5 -21.5t58.5 -21.5t36.5 19t45.5 75q18 31 33 31t15 -14v-1
q0 -28 -34.5 -99.5t-79.5 -124.5t-80 -53t-76.5 22.5t-83.5 22.5q-193 0 -368 -184q87 14 191.5 14t181.5 -13q37 -7 37 -35q0 -12 -7 -29q-25 -51 -104 -98t-246.5 -183t-280 -333.5t-112.5 -365t105 -263.5t326 -96q157 0 293 49t229 117q66 43 118 96.5t99 105.5
q36 45 51 45q1 -1 4 -1.5t3 -9.5t-34 -53q-34 -52 -78 -113q-375 -533 -843 -544q-221 10 -325 129t-104 314q7 266 176 564q143 230 353 410q84 72 136 114.5t58 49t6 11.5z" />
    <glyph glyph-name="Panj" unicode="&#xfb58;&#xfee8;&#xfe9e;" horiz-adv-x="1439" 
d="M1036 273q0 -43 -40 -105t-78 -87.5t-47.5 -25.5t-28.5 16t-54.5 45.5t-59.5 45t-24 20t6 14.5l160 244q6 8 14 8t16 -4q111 -65 133 -148q3 -11 3 -23zM998 2075q0 -43 -40 -105t-78 -87.5t-47.5 -25.5t-64 45.5t-78.5 61t-24 20t6 14.5l160 244q5 7 14 7t22 -7
q106 -64 127 -144q3 -11 3 -23zM920 -771l7 -2l23 -13q16 -10 36 -25l22 -18l17 -18q29 -33 39 -85v-15l-2 -15l-12 -36l-8 -16l-12 -19q-3 -3 -9.5 -14.5t-11.5 -16.5t-7 -8l-19 -25q-18 -19 -20.5 -21t-16.5 -16t-20 -14l-14 -5q-7 0 -18 8l-98 81q-12 9 -29.5 21
t-17.5 16.5t5 12.5l153 233q8 10 13 10zM1130 -1450q-55 -67 -88 -71q-9 0 -61.5 45.5t-92.5 70.5q-5 7 -5 10.5t5 11.5l152 234q7 8 14.5 8t39.5 -19q84 -51 104 -133q2 -7 2 -16q0 -51 -70 -141zM1373 -921q-1 -71 -105 -181q-29 -30 -53 -31q-9 0 -61.5 45.5t-92.5 70.5
q-5 7 -5 10.5t5 11.5l152 234q6 8 13.5 8t39.5 -19q85 -52 105 -133q2 -7 2 -16zM784 934q0 28 -199 28q-79 0 -107 -5t-35 -5t-7 7q0 34 105 166q71 88 198 182t273 94h20q16 0 52.5 -21.5t58.5 -21.5t36.5 19t39 62.5t40 43.5t15.5 -20.5t-44 -102.5q-90 -169 -158 -169
q-28 0 -69.5 22.5t-83.5 22.5q-193 0 -368 -184q87 14 191.5 14t181.5 -13q37 -7 37 -35q0 -12 -7 -29q-25 -51 -104 -98t-246.5 -183t-280 -333.5t-112.5 -365t105 -263.5t326 -96q157 0 293 49t229 117q66 43 118 96.5t99 105.5q36 45 51 45q1 -1 4 -1.5t3 -9.5t-34 -53
q-34 -52 -78 -113q-375 -533 -843 -544q-221 10 -325 129t-104 314q7 266 176 564q119 191 257 326t211 188t79 59.5t6 11.5z" />
    <glyph glyph-name="Peya" unicode="&#xfb58;&#xfbff;&#xfe8e;" horiz-adv-x="1043" 
d="M194 -735q0 -38 -46.5 -106t-69.5 -81t-30.5 -13t-23.5 15t-50 44l-71 54q-4 4 -4 9.5t4 11.5l142 216q6 10 10 10h1q4 -1 20 -11q118 -70 118 -149zM488 -718q0 -38 -55.5 -119t-87.5 -81q-11 0 -27 15t-50 44l-71 54q-8 8 0 21l142 216q6 10 10 10h1q4 0 20 -10
q118 -70 118 -150zM973 -658q0 -42 -45 -108t-68 -78.5t-30.5 -12.5t-23.5 15t-50 44l-71 54q-8 8 0 21l142 216q6 10 10 10h1q4 -1 20 -11q115 -68 115 -150zM844 -338q0 -42 -45.5 -108.5t-67.5 -78.5t-30 -12t-24 15t-50 44l-71 54q-8 8 0 21l142 216q6 10 10 10h1
q4 -1 20 -11q115 -68 115 -150zM1138 -321q0 -42 -36 -94.5t-62 -78.5t-39 -26t-29.5 15t-50.5 44l-71 54q-8 8 0 21l142 216q7 11 11 11t20 -11q115 -68 115 -151zM245 608v-20q0 -157 76 -225q60 -50 135 -50q106 0 177 93q51 67 84.5 88.5t68.5 21.5t69 -10
q27 -2 47.5 17.5t47 71t35.5 51.5t9 -14t-25.5 -96.5t-60.5 -128.5q-58 -80 -108 -80q-20 5 -46.5 5t-35.5 -3q-79 -26 -167.5 -176t-204 -150t-175.5 99t-60 239q2 57 26.5 255.5t39.5 285t39 231t101 323.5q6 10 11.5 10t7.5 -18q-83 -531 -91 -820z" />
    <glyph glyph-name="Hich" unicode="&#x6be;&#xfbff;&#xfb7b;" horiz-adv-x="1567" 
d="M1061 -851l2 -14v-14l-1 -9l-3 -12l-1 -6l-8 -20q-9 -24 -15 -30.5t-6 -8.5l-12 -18q-8 -12 -10 -15.5t-9 -10.5l-16 -20q-2 -1 -8 -10l-28 -27q-17 -14 -30 -18h-7q-9 0 -57 41.5t-73.5 58t-28 19.5t-2.5 7t5 12l153 233q0 1 4 6t8 5l8 -4l7 -3q2 -2 4 -2.5t4 -2t5 -3
t10 -6.5t28 -17.5t47.5 -48t26.5 -46t3 -16.5zM1302 -994q-55 -67 -88 -71q-9 0 -61.5 45.5t-92.5 70.5q-5 7 -5 10.5t5 11.5l152 234q6 8 13.5 8t39.5 -20q85 -53 105 -132q2 -7 2 -16q0 -51 -70 -141zM744 611l7 -2l23 -13q16 -10 36 -25l22 -18l17 -18q29 -33 39 -85v-15
l-2 -15l-12 -36l-8 -16l-12 -19q-3 -3 -9.5 -14.5t-11.5 -16.5t-7 -8l-19 -25q-18 -20 -20 -21.5t-12.5 -12t-16.5 -14t-7.5 -4t-6 -2.5t-10.5 -2t-16 8l-98 81q-12 9 -29.5 21t-17.5 16.5t5 12.5l153 233q7 10 13 10zM954 -68q-55 -67 -88 -71q-9 0 -61.5 45.5t-92.5 70.5
q-5 7 -5 10.5t5 11.5l152 234q6 8 13.5 8t39.5 -20q85 -53 105 -132q2 -7 2 -16q0 -51 -70 -141zM1197 461q-1 -71 -105 -181q-29 -31 -53 -31q-9 0 -61.5 45.5t-92.5 70.5q-5 7 -5 10.5t5 11.5l152 234q6 8 13.5 8t39.5 -20q85 -53 105 -132q2 -7 2 -16zM1501 519
q-73 0 -73 114.5t90 299t124 184.5h3q-19 -30 -84.5 -170t-65.5 -187v-7q0 -9 47 -32q48 -19 48 -71t-26 -92q-28 -39 -63 -39zM219 87q0 -411 481 -411q156 0 255 38q220 84 374 250q51 60 114 144q66 102 83 102q6 0 6 -12.5t-52 -125.5q-57 -105 -117 -197
q-205 -288 -484 -429q-170 -81 -377 -81t-318 132t-111 332q0 73 10 150.5t62.5 225t138 273.5t167.5 213q67 78 255 219q30 23 30 33q0 35 -195 35q-58 0 -133 -3q62 157 171 261.5t208 136.5t130 32l1 -1q87 0 132.5 -20.5t67.5 -20.5t42 16t66 86.5t61 85.5q51 58 106 58
q29 0 45.5 -18.5t22.5 -18.5q15 0 30.5 30.5t24.5 30.5q17 0 30.5 -27.5t13.5 -66t-41.5 -94.5t-88.5 -56q-18 0 -50.5 18t-61 18t-69.5 -50q-45 -66 -67 -96q-56 -72 -139 -72q-38 0 -83 15q-44 10 -97 10q-184 0 -326 -151q117 4 213 4t133.5 -10t37.5 -60.5t-74 -104.5
q-219 -134 -381 -304q-42 -42 -104 -132q-142 -208 -143 -387z" />
    <glyph glyph-name="Iiz" unicode="&#xfef3;&#xfbff;&#xfeb0;" horiz-adv-x="1398" 
d="M236 -704q0 -38 -55.5 -119t-87.5 -81q-11 0 -27 15t-50 44l-71 54q-4 4 -4 9.5t4 11.5l142 216q6 10 10 10h1q4 0 20 -10q118 -70 118 -150zM527 -688q0 -42 -45 -108t-68 -78.5t-30.5 -12.5t-23.5 15t-50 44l-71 54q-4 4 -4 9t4 12l142 216q6 10 10 10h1q4 -1 20 -11
q115 -68 115 -150zM1000 -463q0 -42 -36 -94.5t-62 -78.5t-39 -26t-29.5 15t-50.5 44l-71 54q-4 4 -4 9.5t4 11.5l142 216q7 11 11 11t20 -11q115 -68 115 -151zM1294 -446q0 -42 -45.5 -108.5t-67.5 -78.5t-30 -12t-24 15t-50 44l-71 54q-4 4 -4 9t4 12l142 216q6 10 10 10
h1q4 -1 20 -11q115 -68 115 -150zM645 1745q124 -73 124 -153q0 -52 -37 -108q-73 -113 -115 -113h-1q-9 0 -33 22t-47 40q-22 18 -42 33q-40 30 -40 34.5t6 13.5l152 232q7 10 11 10h1q4 -1 21 -11zM1037 519l-115 4q-50 0 -115 -20.5t-122 -59.5q-116 -79 -266 -295
q-39 -56 -119 -170q-169 -238 -559 -468q-138 -82 -183 -82q-19 0 -19 8.5t17 28t73.5 61t101.5 71t97 67.5q118 86 257 243q88 91 229 299.5t195 275.5q113 139 242 223q176 125 351 129h114q48 0 68 30l97 144q26 35 39.5 35t13.5 -13v-15q-6 -27 -18 -51.5t-25 -51.5
t-38.5 -72t-69.5 -112.5t-96.5 -122.5t-76.5 -68q-32 -18 -73 -18z" />
    <glyph glyph-name="Pichid" unicode="&#xfb58;&#xfbff;&#xfb7d;&#xfbff;&#xfeaa;" horiz-adv-x="2022" 
d="M1891 -680q0 -42 -45 -108t-65.5 -77t-25.5 -12q-8 -2 -11 -2q-6 0 -20 15q-16 15 -50 44l-71 54q-4 4 -4 9t4 12l142 216q6 10 10 10h1q4 -1 20 -11q115 -68 115 -150zM1762 -360q0 -42 -53.5 -120.5t-88.5 -78.5q-9 0 -25 15t-50 44l-71 54q-4 4 -4 9t4 12l142 216
q6 10 10 10h1q4 -1 20 -11q115 -68 115 -150zM2056 -343q0 -43 -36 -95q-70 -103 -107 -103h-1q-10 0 -24 14.5t-49 43.5l-71 54q-4 4 -4 9.5t4 11.5l142 216q7 11 11 11t20 -11q115 -68 115 -151zM950 -777q0 -43 -36 -95q-70 -103 -107 -103h-1q-10 0 -24 14.5t-49 43.5
l-71 54q-4 4 -4 9.5t4 11.5l142 216q7 11 9 11l2 -1q4 0 20 -10q115 -68 115 -151zM821 -457q0 -43 -36 -95q-70 -103 -107 -103h-1q-11 0 -25 14.5t-48 43.5l-71 54q-4 4 -4 9.5t4 11.5l142 216q7 11 9 11q5 0 22 -11q115 -68 115 -151zM1115 -440q0 -42 -45 -108
q-46 -66 -66 -77q-26 -14 -33 -14t-23 15t-50 44l-71 54q-4 4 -4 9t4 12l142 216q6 10 9 10q5 0 22 -11q115 -68 115 -150zM130 -799q0 -38 -46.5 -106t-67 -79.5t-25.5 -12.5q-8 -2 -11 -2q-6 0 -20 15q-16 15 -50 44l-71 54q-4 4 -4 9.5t4 11.5l142 216q6 10 9 10
q5 0 22 -11q118 -70 118 -149zM424 -782q0 -38 -55.5 -119.5t-89.5 -81.5q-9 0 -25 15.5t-50 44.5l-71 54q-4 4 -4 9.5t4 11.5l142 216q6 10 9 10q6 0 22 -10q118 -70 118 -150zM1323 -1123q0 -38 -47 -106.5t-69 -81t-30 -12.5t-24 15t-50 44l-71 54q-4 4 -4 9t4 12
l142 216q6 10 9 10q5 0 22 -11q118 -70 118 -149zM1583 -1194q-77 -112 -111 -112q-9 0 -25 15t-50 44l-71 54q-4 4 -4 9.5t4 11.5l142 216q6 10 9 10q6 0 22 -10q118 -70 118 -150q0 -38 -34 -88zM608 618q20 31 35 31t15 -19q0 -5 -2 -12q-42 -84 -42 -156t42 -114
q5 -6 44.5 -29.5t105.5 -23.5t102 20.5t77 70.5t88.5 82.5t83.5 32.5h2l63 -8q33 0 187 176q9 12 18 21q-6 0 -276 3q-30 3 -30 26q0 7 3.5 24t58.5 94l15 19q62 86 130 135q75 59 176 96q100 42 160 42t86 -15q41 -24 58 -24t31 12t43.5 61.5t43.5 49.5t14 -19.5t-16 -56.5
q-53 -105 -97 -159t-86 -57h-2q-3 0 -62 21.5t-101 21.5t-120 -21t-146 -69q-7 -4 -70 -67l372 21h4q12 0 12 -14.5t-17 -58t-29 -53.5q-63 -42 -133 -118.5t-102 -117t-63.5 -77.5t-55.5 -50t-37 -13t-25 2l-46 8q-32 0 -51 -14q-20 -10 -51.5 -54.5t-106.5 -159.5
q-54 -63 -102 -87t-109 -24q-102 0 -150 67.5t-55 97.5t-10 48q-32 -60 -74.5 -118t-115.5 -89l-123 -36l-96 -18q-30 -3 -47 -3t-21 3q0 18 44.5 47t87 57t87.5 55q116 78 171 147q55 62 114 172l62 129q31 59 34 62z" />
    <glyph glyph-name="Pichad" unicode="&#xfb58;&#xfbff;&#xfb7d;&#xfeaa;" horiz-adv-x="1760" 
d="M447 -911q0 -38 -55.5 -119t-89.5 -81q-9 0 -25 15t-50 44l-71 54q-4 4 -4 9t4 12l142 216q6 10 10 10h1q4 -1 20 -11q118 -70 118 -149zM318 -591q0 -38 -47 -105.5t-70 -80.5t-30 -13.5t-23 14.5t-50 44l-71 54q-4 4 -4 9t4 12l142 216q6 10 10 10h1q4 -1 20 -11
q118 -70 118 -149zM609 -575q0 -43 -36 -95q-70 -103 -107 -103h-1q-11 0 -25 14.5t-48 43.5l-71 54q-4 4 -4 9.5t4 11.5l142 216q7 11 11 11t20 -11q115 -68 115 -151zM890 -1042q0 -38 -55.5 -119t-87.5 -81q-11 0 -27 15t-50 44l-71 54q-4 4 -4 9.5t4 11.5l142 216
q6 10 10.5 10t20.5 -10q118 -70 118 -150zM1184 -1025q0 -38 -46.5 -106t-69.5 -81t-30.5 -13t-23.5 15t-50 44l-71 54q-4 4 -4 9t4 12l142 216q6 10 10 10t21 -11q118 -70 118 -149zM1560 -666q0 -42 -45.5 -108.5t-67.5 -78.5t-30 -12t-24 15t-50 44l-71 54q-4 4 -4 9
t4 12l142 216q6 10 10 10t21 -11q115 -68 115 -150zM1431 -346q0 -42 -45 -108t-68 -78.5t-30.5 -12.5t-23.5 15t-50 44l-71 54q-4 4 -4 9t4 12l142 216q6 10 10 10h1q4 -1 20 -11q115 -68 115 -150zM1725 -329q0 -42 -36 -94.5t-62.5 -78.5t-39 -26t-29 15t-50.5 44l-71 54
q-4 4 -4 9.5t4 11.5l142 216q7 11 11 11t20 -11q115 -68 115 -151zM972.5 582q-2.5 -2 -2.5 -5t13 -3t114 14t155 27.5t71 13.5t17 -13q0 -40 -35 -99l-23 -21l-51 -87q-48 -72 -65.5 -99.5t-87.5 -115.5q-152 -192 -357 -193q-81 0 -126.5 30.5t-75.5 71.5
q-17 18 -26.5 54.5t-17.5 36.5q-27 -68 -55 -103q-48 -66 -128 -90q-24 -15 -71 -24t-59 -12l-98 -24q-36 -8 -50 -8t-23 3q0 17 49 53q78 49 189 122.5t166 139t89 125.5q14 19 38 64l64 132q51 101 77 101h3q9 -4 9 -14t-21 -74.5t-21 -88.5v-26q0 -171 217 -171
q106 0 198.5 60t124.5 131l-296 -21q-28 0 -28 16q0 65 114.5 190t272.5 187q106 42 154 42t77 -14.5t44 -20.5t28 -6t27.5 10t45 61t45.5 51t15 -12t-1 -17q-27 -102 -111 -205q-47 -57 -89 -57v4q-1 -1 -1 -4q-8 0 -64 21.5t-98 21.5t-96.5 -14t-121 -48.5t-114.5 -87.5
q-1 -3 -3.5 -5z" />
    <glyph glyph-name="Eich" unicode="&#xfbfe;&#xfb7b;" horiz-adv-x="1639" 
d="M868 -818l7 -2l23 -13q16 -10 36 -25l22 -18l17 -18q29 -33 39 -85v-15l-2 -15l-12 -36l-8 -16l-12 -19q-6 -6 -11 -15.5t-10 -15t-7 -8.5l-19 -25q-18 -20 -20 -21.5t-12.5 -12t-16.5 -14t-7.5 -4t-6 -2.5t-10.5 -2t-16 8l-98 81q-12 9 -29.5 21t-17.5 16.5t5 12.5
l153 233q7 10 13 10zM1078 -1498q-51 -62 -79 -70h-9q-8 0 -61 45.5t-93 70.5q-5 7 -5 10.5t5 11.5l152 234q6 8 13.5 8t39.5 -20q85 -53 105 -132q2 -7 2 -16q0 -52 -70 -142zM1172 -1180h-9q-8 0 -61 45.5t-93 70.5q-5 7 -5 10.5t5 11.5l152 234q6 8 13.5 8t39.5 -20
q85 -53 105 -132q2 -7 2 -16q-1 -52 -61.5 -128t-87.5 -84zM1270 634l5 -30v-14l-1 -9l-3 -12l-1 -6l-8 -20q-9 -24 -15 -30.5t-6 -8.5l-12 -18q-8 -12 -10 -15.5t-9 -10.5l-16 -20q-2 -2 -8 -11t-18 -16q-28 -28 -53 -28q-5 0 -52 41.5t-72.5 58t-28 19.5t-2.5 7t5 12
l153 233q0 1 4 6t8 5l8 -4l7 -3q2 -2 4 -2.5t4 -2t6 -3.5t31 -18.5t53.5 -53t26.5 -46.5zM1514 474q-51 -62 -79 -70h-9q-8 0 -61 45.5t-93 70.5q-5 7 -5 10.5t5 11.5l152 234q6 8 13.5 8t39.5 -20q85 -53 105 -132q2 -7 2 -16q0 -52 -70 -142zM232 60q0 -411 480 -411
q156 0 285 49q74 27 167.5 88.5t177.5 150.5q45 51 113 144q69 102 87 102q3 -1 3 -17v-1q0 -17 -53 -120q-137 -269 -346 -453q-129 -111 -255 -174q-171 -80 -376 -80t-316 130.5t-111 333.5q0 66 10 147.5t65.5 232.5t157.5 304q148 210 302 324q127 93 127 103
q-5 15 -56 24l-129 6l-144 3q6 36 39 92q89 130 230 246.5t532 336.5q74 38 161 77l21 7q12 0 12 -5t-3 -13.5t-46.5 -82.5t-72.5 -104q-24 -30 -57 -47q-21 -16 -114.5 -58t-279 -144t-293.5 -197l185 9q112 0 156 -13q42 -14 42 -63.5t-74 -104.5q-72 -46 -171.5 -117.5
t-207.5 -185.5q-48 -48 -106.5 -134.5t-100 -191.5t-41.5 -193z" />
    <glyph glyph-name="Eiich" unicode="&#xfbfe;&#xfbff;&#xfb7b;" horiz-adv-x="1779" 
d="M843 276q0 -42 -45 -108q-62 -91 -102 -91q-6 0 -21 15t-49 44l-71 54q-4 4 -4 9t4 12l142 216q6 10 10 10h1q4 -1 20 -11q115 -68 115 -150zM1137 293q0 -43 -36 -95q-70 -103 -107 -103h-1q-11 0 -25 14.5t-48 43.5l-71 54q-4 4 -4 9.5t4 11.5l142 216q7 11 11 11
t20 -11q115 -68 115 -151zM1411 766q0 -42 -45.5 -108t-68.5 -78.5t-30 -12.5t-23 15t-50 44l-71 54q-4 4 -4 9t4 12l142 216q6 10 10 10h1q4 -1 20 -11q115 -68 115 -150zM1705 783q0 -43 -36 -95q-70 -103 -107 -103h-1q-11 0 -25 14.5t-48 43.5l-71 54q-4 4 -4 9.5
t4 11.5l142 216q7 11 11 11t20 -11q115 -68 115 -151zM850 -793l7 -2l23 -13q16 -10 36 -25l22 -18l17 -18q29 -33 39 -85v-15l-2 -15l-12 -36l-8 -16l-12 -19q-3 -3 -9.5 -14.5t-11.5 -16.5t-7 -8l-19 -25q-18 -19 -20.5 -21t-16.5 -16t-20 -14l-14 -5q-7 0 -18 8l-98 81
q-12 9 -29.5 21t-17.5 16.5t5 12.5l153 233q8 10 13 10zM1060 -1472q-55 -67 -88 -71q-9 0 -61.5 45.5t-92.5 70.5q-5 7 -5 10.5t5 11.5l152 234q7 8 14.5 8t39.5 -19q84 -51 104 -133q2 -7 2 -16q0 -51 -70 -141zM1303 -943q-1 -71 -105 -181q-29 -30 -53 -31
q-9 0 -61.5 45.5t-92.5 70.5q-5 7 -5 10.5t5 11.5l152 234q6 8 13.5 8t39.5 -19q85 -52 105 -133q2 -7 2 -16zM589 969l-112 -3q-32 0 -32 3v3q62 186 236.5 307.5t336.5 121.5q30 0 66.5 -21.5t58.5 -21.5t36.5 19t39 62.5t39.5 43.5t15 -14v-1q0 -28 -34.5 -99.5
t-79.5 -124.5t-80 -53t-76.5 22.5t-83.5 22.5q-205 0 -345 -158l185 9q118 0 158 -13.5t40 -52.5q0 -61 -74 -114q-60 -39 -166.5 -114.5t-212.5 -189.5q-47 -45 -107 -131q-113 -162 -135 -312q-7 -60 -7 -75q0 -231 154 -331q122 -80 302.5 -80t309.5 50q63 22 159 84
q166 106 299 298q66 102 84 102h1q3 -2 3 -11t-9 -33q-52 -132 -157 -284.5t-235.5 -265t-276 -181t-352 -68.5t-321.5 138q-105 120 -105 326q13 367 234 682q58 86 144 179q13 16 87 80t136 112t62 55q-8 32 -151 32h-34z" />
    <glyph glyph-name="Ntez" unicode="&#xfee7;&#xfe98;&#xfeb0;" horiz-adv-x="1579" 
d="M504 1453q0 -43 -40 -105t-84 -92q-32 -21 -41.5 -21t-28.5 16t-54.5 45.5t-59.5 45t-24 20t6 14.5l160 244q6 8 14 8t16 -4q111 -65 133 -148q3 -11 3 -23zM1703 1609q0 -43 -40 -105t-78 -87.5t-47.5 -25.5t-28.5 16t-54 46t-59.5 45.5t-24.5 19.5q1 4 6 14l160 244
q6 8 14.5 8t16.5 -4q111 -65 132 -148q3 -11 3 -23zM964 1871l2 -14v-14l-1 -9l-3 -12l-1 -6l-7 -20q-12 -26 -17 -31.5t-5 -7.5l-12 -18q-8 -12 -10 -15.5t-9 -10.5l-16 -20q-2 -1 -8 -10l-28 -27q-17 -14 -30 -18h-7q-10 0 -57 41.5t-73 58t-28.5 19.5t-2.5 7t5 12
l153 233q0 1 4.5 6t8 5t7.5 -4l7 -3q2 -2 4 -2.5t4 -2t5 -3t10 -6.5t28 -17.5t47.5 -48t26.5 -46t3 -16.5zM1275 1869q-1 -71 -105 -181q-29 -30 -53 -31q-9 0 -61.5 45.5t-92.5 70.5q-5 7 -5 10.5t5 11.5l152 234q6 8 13.5 8t40 -20.5t62 -50t42.5 -81.5q2 -7 2 -16z
M1037 519l-115 4q-50 0 -115 -20.5t-122 -59.5q-116 -79 -266 -295q-39 -56 -119 -170q-169 -238 -559 -468q-138 -82 -183 -82q-19 0 -19 8.5t17 28t73.5 61t101.5 71t97 67.5q118 86 257 243q88 91 229 299.5t195 275.5q113 139 242 223q176 125 351 129h114q48 0 68 30
l97 144q26 35 39.5 35t13.5 -13v-15q-6 -27 -18 -51.5t-25 -51.5t-38.5 -72t-69.5 -112.5t-96.5 -122.5t-76.5 -68q-32 -18 -73 -18z" />
    <glyph glyph-name="Dar" unicode="&#x62f;&#x631;" horiz-adv-x="944" 
d="M498 43q300 252 300 399q0 51 -38 92q-82 85 -187 139q-11 7 -6 15l104 262q15 37 20 37t9 -3q132 -74 207 -186q38 -57 38 -149q0 -88 -35 -209q-38 -132 -123 -239q-84 -111 -276 -185q-10 -3 -17 -3q-6 1 -10 3q-2 1 -2 4q0 7 16 23zM268 98q-174 -100 -274 -100
q-12 0 -12 6q0 13 58 55.5t185.5 150t208.5 245.5q27 48 35.5 48t8.5 -17.5t-28 -94.5t-57 -140t-52 -93t-73 -60z" />
    <glyph glyph-name="Zar" unicode="&#x630;&#x631;" horiz-adv-x="958" 
d="M830 1593q0 -43 -40 -105t-84 -92q-32 -21 -46 -21q-5 0 -7 3q-36 29 -71 59q-36 29 -60 45q-24 15 -24 20q0 4 6 14l160 244q6 9 14 9q8 -1 22 -9q106 -64 127 -144q3 -11 3 -23zM498 43q300 252 300 399q0 51 -38 92q-82 85 -187 139q-11 7 -6 15l104 262q15 37 20 37
t9 -3q132 -74 207 -186q38 -57 38 -149q0 -88 -35 -209q-38 -132 -123 -239q-84 -111 -276 -185q-10 -3 -17 -3q-6 1 -10 3q-2 1 -2 4q0 7 16 23zM268 98q-174 -100 -274 -100q-12 0 -12 6q0 13 58 55.5t185.5 150t208.5 245.5q27 48 35.5 48t8.5 -17.5t-28 -94.5t-57 -140
t-52 -93t-73 -60z" />
    <glyph glyph-name="Daz" unicode="&#x62f;&#x632;" horiz-adv-x="956" 
d="M522 1309q-40 -61 -84 -91q-32 -21 -46 -22q-5 0 -7 3q-36 29 -71 59q-36 30 -60 46q-24 15 -24 19t6 14l160 244q6 9 16 9t43 -23t70 -59.5t37 -86.5t-40 -112zM498 43q300 252 300 399q0 51 -38 92q-82 85 -187 139q-11 7 -6 15l104 262q15 37 20 37t9 -3
q132 -74 207 -186q38 -57 38 -149q0 -88 -35 -209q-38 -132 -123 -239q-84 -111 -276 -185q-10 -3 -17 -3q-6 1 -10 3q-8 6 14 27zM268 98q-174 -100 -274 -100q-12 0 -12 6q0 13 58 55.5t185.5 150t208.5 245.5q27 48 35.5 48t8.5 -17.5t-28 -94.5t-57 -140t-52 -93
t-73 -60z" />
    <glyph glyph-name="Dezh" unicode="&#x62f;&#x698;" horiz-adv-x="970" 
d="M261 1496q132 -69 132 -181q0 -12 -6 -24t-6.5 -15t-2.5 -5l-6 -12l-29 -44q-8 -12 -24 -31q-52 -63 -79 -63q-8 0 -14 6l-93 76q-44 31 -49 35t-5 8.5t5 12.5l153 233q5 7 11 7t13 -3zM565 1713q-1 -71 -105 -181q-29 -30 -53 -31q-9 0 -61.5 45.5t-92.5 70.5
q-5 7 -5 10.5t5 11.5l152 234q6 8 13.5 8t40 -20.5t62 -50t42.5 -81.5q2 -7 2 -16zM554 1140h-9q-8 0 -61 45.5t-93 70.5q-5 7 -5 10.5t5 11.5l152 234q6 8 13.5 8t40 -20.5t62 -50t42.5 -81.5q2 -7 2 -16q-1 -52 -61.5 -128t-87.5 -84zM511 16q-13 -4 -21 -4t-8 5
q0 10 16 26q300 252 300 399q0 51 -38 92q-82 85 -187 139q-8 5 -8 9t2 6l104 262q15 37 20 37t9 -3q132 -74 207 -186q38 -57 38 -147t-36.5 -216.5t-121.5 -233.5q-84 -111 -276 -185zM268 98q-174 -100 -274 -100q-12 0 -12 6q0 13 58 55.5t185.5 150t208.5 245.5
q27 48 35.5 48t8.5 -17.5t-28 -94.5t-57 -140t-52 -93t-73 -60z" />
    <glyph glyph-name="Koma" unicode="&#xfb90;&#xfee4;&#xfe8e;" horiz-adv-x="871" 
d="M619 656q0 16 -64.5 35t-111.5 19l-74 -8q-84 -20 -149 -69q-3 -44 -3 -51q0 -194 39 -222q6 24 21 63q50 102 161 148l156 63q25 14 25 22zM981 1365q249 191 509 424.5t278 239.5h1q10 0 10 -10q0 -33 -104 -173q-46 -58 -203.5 -210.5t-555 -457.5t-420.5 -322
q215 -40 271 -62.5t56 -54.5q0 -22 -35 -73.5t-66.5 -72t-48 -30.5t-82 -29.5t-143.5 -53t-78 -51.5q0 -30 98 -35q12 0 19 -1h26q30 -3 30 -30t-33 -126t-102 -168t-151 -69t-126.5 79t-44.5 185t39.5 431t51.5 400q1 9 50 129.5t71 167.5q8 16 12 7q3 -10 -3 -49l-63 -453
q-7 -54 -12 -105q80 49 749 573z" />
    <glyph glyph-name="Goma" unicode="&#xfb94;&#xfee4;&#xfe8e;" horiz-adv-x="871" 
d="M1475 1878q-66 -70 -386 -313h-1q-2 0 -2 3q0 4 5 16q9 20 34 54q114 99 379 304q6 3 8 3q3 0 3 -3q0 -11 -40 -64zM619 656q0 16 -64.5 35t-111.5 19l-74 -8q-84 -20 -149 -69q-3 -44 -3 -51q0 -194 39 -222q6 24 21 63q50 102 161 148l156 63q25 14 25 22zM981 1365
q249 191 509 424.5t278 239.5h1q10 0 10 -10q0 -33 -104 -173q-46 -58 -203.5 -210.5t-555 -457.5t-420.5 -322q215 -40 271 -62.5t56 -54.5q0 -22 -35 -73.5t-66.5 -72t-48 -30.5t-82 -29.5t-143.5 -53t-78 -51.5q0 -30 98 -35q12 0 19 -1h26q30 -3 30 -30t-33 -126
t-102 -168t-151 -69t-126.5 79t-44.5 185t39.5 431t51.5 400q1 9 50 129.5t71 167.5q8 16 12 7q3 -10 -3 -49l-63 -453q-7 -54 -12 -105q80 49 749 573z" />
    <glyph glyph-name="Gom" unicode="&#xfb95;&#xfee4;&#xfe8e;" horiz-adv-x="781" 
d="M1171 2088q-45 -83 -296 -399q-1 -1 -2 -1q-3 0 -2 7q0 5 1 13q4 22 20 60q69 101 291 390q5 5 8 5t3 -9.5t-23 -65.5zM555 633q0 27 -105 58q-62 15 -122 15t-77 -20t-23 -44v-2q-5 -78 -5 -96q3 -175 47 -189q40 93 118 179q38 42 102.5 63t64.5 36zM485 489
q-46 -3 -71 -24t-25 -33q0 -37 68 -39h62q30 -3 30 -30t-33 -126t-102 -168t-151 -69t-127 80t-45 196q13 147 43 403t49 372q1 9 50 130t71 167q8 17 12 8q3 -11 -3 -50l-63 -445q162 154 590 663q51 64 275 359.5t298 397.5q9 0 9 -23.5t-27 -105.5q-50 -135 -155 -288.5
t-341 -441t-517 -587.5q69 -2 188.5 -34.5t160 -51.5t50.5 -19q-10 -22 -12 -33q-18 -36 -40 -57q-5 2 -10 2q-23 0 -53 -39q-21 6 -38 -14q-49 -62 -81 -87q-16 -10 -62 -13z" />
    <glyph glyph-name="Kom" unicode="&#xfb91;&#xfee4;&#xfe8e;" horiz-adv-x="781" 
d="M555 633q0 27 -105 58q-62 15 -122 15t-77 -20t-23 -44v-2q-5 -78 -5 -96q3 -175 47 -189q40 93 118 179q38 42 102.5 63t64.5 36zM485 489q-46 -3 -71 -24t-25 -33q0 -37 68 -39h62q30 -3 30 -30t-33 -126t-102 -168t-151 -69t-127 80t-45 196q13 147 43 403t49 372
q1 9 50 130t71 167q8 17 12 8q3 -11 -3 -50l-63 -445q162 154 590 663q51 64 275 359.5t298 397.5q9 0 9 -23.5t-27 -105.5q-50 -135 -155 -288.5t-341 -441t-517 -587.5q69 -2 188.5 -34.5t160 -51.5t50.5 -19q-10 -22 -12 -33q-18 -36 -40 -57q-5 2 -10 2q-23 0 -53 -39
q-21 6 -38 -14q-49 -62 -81 -87q-16 -10 -62 -13z" />
    <glyph glyph-name="Sa" unicode="&#xfe9b;&#xfe8e;" horiz-adv-x="542" 
d="M489 1863q132 -69 132 -181q0 -12 -6 -24t-6.5 -15t-2.5 -5l-6 -12l-29 -44q-10 -16 -24 -32q-51 -62 -78 -62h-1q-8 0 -14 6l-93 76q-44 31 -49 35t-5 8.5t5 12.5l153 233q5 7 11 7t13 -3zM644 1868h-9q-8 0 -61 45.5t-93 70.5q-5 7 -5 10.5t5 11.5l152 234q6 8 13.5 8
t40 -20.5t62 -50t42.5 -81.5q2 -7 2 -16q-1 -52 -61.5 -128t-87.5 -84zM931 1719q-1 -71 -105 -181q-29 -30 -53 -31q-9 0 -61.5 45.5t-92.5 70.5q-5 7 -5 10.5t5 11.5l152 234q6 8 13.5 8t40 -20.5t62 -50t42.5 -81.5q2 -7 2 -16zM300 1372q-81 -545 -87 -787v-66
q0 -126 67 -176q32 -20 52 -20q63 0 88 38.5t40 83t29 44.5q14 -1 14 -19v-24q-3 -42 -35 -164q-73 -274 -222 -282q-81 3 -122 86t-41 201q0 14 1 29q0 170 90 710q16 96 31 155q71 207 87 207q6 0 8 -16z" />
    <glyph glyph-name="Ta" unicode="&#xfe97;&#xfe8e;" horiz-adv-x="544" 
d="M641 1807l2 -14v-14l-1 -9l-3 -12l-1 -6l-8 -20q-9 -24 -15 -30.5t-6 -8.5l-12 -18q-8 -12 -10 -15.5t-9 -10.5l-16 -20q-2 -1 -8 -10l-28 -27q-17 -14 -30 -18h-7q-9 0 -57 41.5t-73.5 58t-28 19.5t-2.5 7t5 12l153 233q0 1 4.5 6t8 5t7.5 -4l7 -3q2 -2 4 -2.5t4 -2
t5 -3t10 -6.5t28 -17.5t47.5 -48t26.5 -46t3 -16.5zM882 1664q-55 -67 -88 -71q-9 0 -61.5 45.5t-92.5 70.5q-5 7 -5 10.5t5 11.5l152 234q6 8 13.5 8t40 -20.5t62 -50t42.5 -81.5q2 -7 2 -16q0 -51 -70 -141zM300 1372q-81 -545 -87 -787v-66q0 -126 67 -176q32 -20 52 -20
q63 0 88 38.5t40 83t29 44.5q14 -1 14 -19v-24q-3 -42 -35 -164q-73 -274 -222 -282q-81 3 -122 86t-41 201q0 14 1 29q0 170 90 710q16 96 31 155q71 207 87 207q6 0 8 -16z" />
    <glyph glyph-name="Na" unicode="&#xfee7;&#xfe8e;" horiz-adv-x="545" 
d="M708 1579q-40 -61 -84 -91q-32 -21 -46 -22q-5 0 -7 3q-36 29 -71 59q-36 30 -60 46q-24 15 -24 19t6 14l160 244q6 9 16 9t43 -23t70 -59.5t37 -86.5t-40 -112zM300 1372q-81 -545 -87 -787v-66q0 -126 67 -176q32 -20 52 -20q63 0 88 38.5t40 83t29 44.5q14 -1 14 -19
v-24q-3 -42 -35 -164q-73 -274 -222 -282q-81 3 -122 86t-41 201q0 14 1 29q0 170 90 710q16 96 31 155q71 207 87 207q6 0 8 -16z" />
    <glyph glyph-name="Fak" unicode="&#xfed3;&#xfb8f;" horiz-adv-x="2638" 
d="M2722 1247q-40 -62 -98 -101q-19 -13 -27.5 -13t-28 16.5t-54.5 46.5t-59.5 45.5t-24.5 19.5v1q1 4 6 13l160 244q6 8 16.5 8t43 -22.5t69.5 -59t37 -86.5t-40 -112zM2166 1452h-1q-7 1 -7 18t45 86.5t88 112.5l288 252q98 77 418 346t514.5 462.5t202.5 199t12 5.5
t4 -7.5t-2 -16.5q-30 -53 -71 -128q-101 -184 -373 -438q-102 -96 -407 -345q-670 -547 -711 -547zM2593 633v-7q0 -100 -51 -239q-73 -202 -206 -320q-79 -67 -196.5 -67t-174 91t-56.5 217v20q2 124 28 312q0 14 -4.5 14t-10.5 -6q-28 -39 -58 -81t-66 -92
q-90 -114 -229.5 -216.5t-296.5 -160.5q-380 -142 -766 -142h-45q-316 0 -395 97q-47 58 -48 165v62q0 54 11 154.5t36 100.5q3 0 6 -1q9 0 14 -60t45 -107q84 -91 402 -91q697 0 1099 252q149 87 223 193.5t113 244.5l42 175q8 32 71 156q18 41 31 68l20 39q9 20 20 20
t11 -11.5t-7.5 -43t-54.5 -287.5t-61 -512v-21q0 -100 28.5 -147.5t76 -68t90.5 -20.5q188 0 242 135q-8 27 -23.5 42.5t-26.5 15.5t-16 -1t-32.5 -17t-45.5 -16q-74 6 -99 56q-6 12 -6 26t5 30q35 113 94 208q46 70 98 70t110.5 -63.5t58.5 -165.5z" />
    <glyph glyph-name="Ghak" unicode="&#xfed7;&#xfb8f;" horiz-adv-x="2708" 
d="M2714 1296l5 -30v-14l-1 -9l-3 -12l-1 -6l-8 -20q-9 -24 -15 -30.5t-6 -8.5l-12 -18q-8 -12 -10 -15.5t-9 -10.5l-16 -20q-2 -2 -8 -11t-18 -16q-23 -23 -40 -28h-8q-11 0 -57.5 41.5t-72 58t-28 19.5t-2.5 7t5 12l153 233q0 1 4.5 6t8 5t7.5 -4l7 -3q2 -2 4 -2.5t4 -2
t6 -3.5t31 -18.5t53.5 -53t26.5 -46.5zM2958 1136q-51 -62 -79 -70h-9q-8 0 -61 45.5t-93 70.5q-5 7 -5 10.5t5 11.5l152 234q6 8 14 8t40 -20q84 -53 104 -132q2 -7 2 -16q0 -52 -70 -142zM2331 1509q-119 -75 -122 -75h-4q-17 0 -17 12.5t54 84t106 111t114 78.5
t530 354.5t615.5 430.5t154.5 124q10 7 15 7t5 -8t-12 -39t-143 -190q-398 -360 -1296 -890zM1921 308v20q2 124 28 312q0 14 -4.5 14t-10.5 -6q-28 -39 -58 -81t-66 -92q-90 -114 -229.5 -216.5t-296.5 -160.5q-380 -142 -766 -142h-45q-316 0 -395 97q-47 58 -48 165v62
q0 54 11 154.5t36 100.5q3 0 6 -1q9 0 14 -60t45 -107q84 -91 402 -91q697 0 1099 252q149 87 223 193.5t113 244.5l42 175q8 32 71 156q18 41 31 68l20 39q9 20 20 20t11 -11.5t-7.5 -43t-54.5 -287.5t-61 -512v-21q0 -100 28.5 -147.5t76 -68t90.5 -20.5q188 0 242 135
q-8 27 -23.5 42.5t-26.5 15.5t-16 -1t-32.5 -17t-45.5 -16q-74 6 -99 56q-6 12 -6 26t5 30q35 113 94 208q46 70 98 70t110.5 -64.5t58.5 -167.5v-4q0 -100 -51 -239q-73 -202 -206 -320q-79 -67 -196.5 -67t-174 91t-56.5 217z" />
    <glyph glyph-name="Shak" unicode="&#xfeb7;&#xfb8f;" horiz-adv-x="2922" 
d="M2611 1171q132 -69 132 -181q0 -12 -6 -24t-6.5 -15t-2.5 -5l-6 -12l-29 -44q-10 -16 -24 -32q-51 -62 -78 -62h-1q-8 0 -14 6l-93 76q-44 31 -49 35t-5 8.5t5 12.5l153 233q5 7 11 7t13 -3zM2766 1176h-9q-8 0 -61 45.5t-93 70.5q-5 7 -5 10.5t5 11.5l152 234
q6 8 13.5 8t39.5 -20q85 -53 105 -132q2 -7 2 -16q-1 -52 -61.5 -128t-87.5 -84zM3053 1027q-1 -71 -105 -181q-29 -30 -53 -31q-9 0 -61.5 45.5t-92.5 70.5q-5 7 -5 10.5t5 11.5l152 234q6 8 13.5 8t39.5 -19q85 -52 105 -133q2 -7 2 -16zM2348 1509q-120 -76 -132 -76
q-10 1 -11 13q0 12 55 84q54 72 105.5 111.5t113.5 78.5t530 354.5t615.5 430.5t155.5 123t13 8t5 -7t-12 -39t-142 -191q-398 -360 -1296 -890zM2674 541l66 -12q20 0 38 35q8 12 24.5 59t27 47t10.5 -27q0 -102 -60 -198t-123 -96q-41 -58 -47 -64q-40 -47 -73 -47
q-33 6 -55 6t-47 -12q-30 -12 -114 -122t-186 -110t-152 94q-45 92 -46 227l-2 1q3 130 29 312q0 14 -4.5 14t-10.5 -6q-29 -39 -59 -81t-66 -92q-90 -114 -230 -216.5t-296 -160.5q-379 -141 -765 -142h-45q-316 0 -396 97q-48 58 -50 173q6 309 50 309q3 0 6 -1
q9 0 13.5 -60t44.5 -107q84 -91 402 -91q698 0 1100 252q148 87 235 211q62 89 101 227l42 175q7 32 70 156q18 41 32 68l19 39q9 20 20.5 20t11.5 -19q0 -3 -7.5 -35t-61.5 -312t-54 -491q0 -53 0.5 -83.5t17.5 -89.5q40 -106 180 -106q80 0 143.5 59t81.5 66.5t32 7.5
l49 -4h10q27 0 51 61.5t30.5 65t12.5 3.5z" />
    <glyph glyph-name="Shag" unicode="&#xfeb7;&#xfb93;" horiz-adv-x="2958" 
d="M2707 1213q132 -69 132 -181q0 -12 -6 -24t-6.5 -15t-2.5 -5l-6 -12l-29 -44q-10 -16 -24 -32q-51 -62 -78 -62h-1q-8 0 -14 6l-93 76q-44 31 -49 35t-5 8.5t5 12.5l153 233q5 7 11 7t13 -3zM2862 1218h-9q-8 0 -61 45.5t-93 70.5q-5 7 -5 10.5t5 11.5l152 234
q6 8 13.5 8t39.5 -20q85 -53 105 -132q2 -7 2 -16q-1 -52 -61.5 -128t-87.5 -84zM3149 1069q-1 -71 -105 -181q-29 -30 -53 -31q-9 0 -61.5 45.5t-92.5 70.5q-5 7 -5 10.5t5 11.5l152 234q6 8 13.5 8t39.5 -19q85 -52 105 -133q2 -7 2 -16zM2350 1503q-120 -76 -132 -76
q-10 1 -11 13q0 12 55 84q54 72 105.5 111.5t113.5 78.5t530 354.5t615.5 430.5t155.5 123t13 8t5 -7t-12 -39t-142 -191q-398 -360 -1296 -890zM3474 2489q-71 -67 -405 -289h-1q-2 0 -2 9.5t44 60.5q88 69 245 176.5t160 107.5t3 -6.5t-44 -58.5zM2674 541l66 -12
q20 0 38 35q8 12 24.5 59t27 47t10.5 -27q0 -102 -60 -198t-123 -96q-41 -58 -47 -64q-40 -47 -73 -47q-33 6 -55 6t-47 -12q-30 -12 -114 -122t-186 -110t-152 94q-45 92 -46 227l-2 1q3 130 29 312q0 14 -4.5 14t-10.5 -6q-29 -39 -59 -81t-66 -92q-90 -114 -230 -216.5
t-296 -160.5q-379 -141 -765 -142h-45q-316 0 -396 97q-48 58 -50 173q6 309 50 309q3 0 6 -1q9 0 13.5 -60t44.5 -107q84 -91 402 -91q698 0 1100 252q148 87 235 211q62 89 101 227l42 175q7 32 70 156q18 41 32 68l19 39q9 20 20.5 20t11.5 -19q0 -3 -7.5 -35t-61.5 -312
t-54 -491q0 -53 0.5 -83.5t17.5 -89.5q40 -106 180 -106q80 0 143.5 59t81.5 66.5t32 7.5l49 -4h10q27 0 51 61.5t30.5 65t12.5 3.5z" />
    <glyph glyph-name="Lellah" unicode="&#xfedf;&#xfee0;&#xfeea;" horiz-adv-x="1503" 
d="M17 11q-14 0 -14 6q1 5 44 36t238.5 213.5t268.5 283.5q10 8 18 3.5t10 -11.5q-3 -20 -3 -38q1 -94 87 -132q40 -18 65 -18t57 5q63 10 118.5 71.5t83.5 150.5q6 18 17 17q22 -2 18 -20q-8 -43 -8 -91t34.5 -77.5t89.5 -29.5h29q26 0 64 23q75 48 86 103q2 30 2 81t2 67
t38 84q71 135 84 135q3 0 3 -6q0 -120 -31 -271q-59 -280 -220 -434q-79 -61 -162 -61h-4q-84 3 -116 41t-39 66q-121 -155 -250 -155q-12 0 -24 1q-124 18 -181 126q-17 32 -23 69q-30 -19 -178 -128.5t-204 -109.5z" />
    <glyph glyph-name="Fa" unicode="&#xfed3;&#xfe8e;" horiz-adv-x="766" 
d="M733 1455q-40 -61 -84 -91q-32 -21 -46 -22q-5 0 -7 3q-36 29 -71 59t-59 46q-24 15 -25 19q0 4 6 14l160 244q6 9 16 9t43 -23t70 -59.5t37 -86.5t-40 -112zM200 562q0 -96 56.5 -168t165.5 -72q162 0 222 118q3 6 -5.5 22t-28 29t-46 -3.5t-62.5 -16.5q-80 0 -107 57
q-12 22 -1.5 56t40.5 95.5t65 122t87 60.5t112 -66q57 -63 57 -169q0 -100 -51 -240q-50 -138 -110 -213t-96 -106q-79 -68 -196.5 -68t-174 91t-56.5 217v17q3 101 49.5 430.5t71.5 425.5q71 207 87 207q6 0 8 -16q-87 -578 -87 -810z" />
    <glyph glyph-name="Gha" unicode="&#xfed7;&#xfe8e;" horiz-adv-x="952" 
d="M686 1686l2 -14v-14l-1 -9l-3 -12l-1 -6l-7 -20q-12 -26 -17 -31.5t-5 -7.5l-12 -18q-8 -12 -10 -15.5t-9 -10.5l-16 -20q-2 -2 -8 -11t-18 -16q-23 -23 -40 -28h-7q-10 0 -57 41.5t-73 58t-28.5 19.5t-2.5 7t5 12l153 233q0 1 6 8q3 3 6 3q4 0 8 -4l7 -3q2 -2 4 -2.5
t4 -2t6 -3.5t31 -18.5t53.5 -52.5t26.5 -46.5t3 -16.5zM848 1472h-9q-8 0 -61 45.5t-93 70.5q-5 7 -5 10.5t5 11.5l152 234q6 8 13.5 8t40 -20.5t62 -50t42.5 -81.5q2 -7 2 -16q-1 -52 -61.5 -128t-87.5 -84zM200 562q0 -96 56.5 -168t165.5 -72q162 0 222 118q3 6 -5.5 22
t-28 29t-46 -3.5t-62.5 -16.5q-80 0 -107 57q-12 22 -1.5 56t40.5 95.5t65 122t87 60.5t112 -66q57 -63 57 -169q0 -100 -51 -240q-50 -138 -110 -213t-96 -106q-79 -68 -196.5 -68t-174 91t-56.5 217v17q3 101 49.5 430.5t71.5 425.5q71 207 87 207q6 0 8 -16
q-87 -578 -87 -810z" />
    <glyph glyph-name="Komak" unicode="&#xfb90;&#xfee4;&#xfb8f;" horiz-adv-x="2841" 
d="M2568 652q0 17 -62.5 37t-104.5 20q-122 0 -244 -102q-3 -19 -3 -37q0 -203 45 -218q3 3 7.5 16.5t24 57t61.5 82t94 60.5l156 63q26 14 26 21zM2280 1459q-7 1 -7 18.5t44.5 86.5t104 127.5t214.5 186t475.5 397t514.5 463.5t203 200t12.5 6t3.5 -8t-2 -19
q-29 -52 -80.5 -145t-186.5 -245q-75 -76 -178 -170.5t-407.5 -346.5t-499 -401.5t-210.5 -149.5h-1zM130 234q6 309 50 309q3 0 6 -2q9 0 13.5 -60t44.5 -106q84 -92 402 -92q698 0 1100 252q148 87 235 212q62 88 101 226l42 176q11 47 102 223l19 39q8 21 21 21t11 -25
q-15 -62 -56.5 -275.5t-56.5 -356.5q42 27 474 361t559 440.5t343.5 303t234.5 202.5h1q8 0 8 -9q0 -38 -153 -248q-113 -141 -767 -647q-398 -308 -419 -325q214 -40 270.5 -62.5t56.5 -54.5q0 -22 -35 -73.5t-67 -72t-48.5 -30.5t-81.5 -29.5t-138 -51t-82 -49.5
q-3 -13 10.5 -26t55.5 -14h62q30 -3 30 -30t-33 -126t-102 -168t-151 -69t-127 80t-45 196q4 170 32 375q0 10 -3 12q-6 1 -12 -5q-29 -39 -59 -81t-66 -91q-90 -113 -230 -217t-296 -162q-376 -140 -765 -140h-45q-316 0 -396 96q-48 58 -50 174z" />
    <glyph glyph-name="SadHa" unicode="&#xfebb;&#xfeea;" horiz-adv-x="1575" 
d="M1296 327q-105 -74 -224.5 -74t-207.5 65q-33 0 -80 -74q-57 -81 -99 -126q-87 -102 -211 -102q-51 0 -105 31t-102 31t-113.5 -39t-158.5 -99q-7 4 -7 22t37 75q62 86 145 173.5t122 116.5q84 61 167 61q42 0 73 -12q83 -37 107 -37q63 0 104 24.5t84.5 78.5t51.5 59
q40 40 63.5 40t56.5 -16.5t61 -16.5l104 144q81 108 99 126q94 107 161 107t106 -39q27 -32 27 -71q0 -114 -85 -252t-176 -196zM1465 670q2 15 -43 32.5t-81 17.5t-87 -47q-23 -18 -135 -168q0 -7 33.5 -7t76.5 5t94 28.5t93 64t49 74.5z" />
    <glyph glyph-name="EinHa" unicode="&#xfecb;&#xfeea;" horiz-adv-x="1127" 
d="M823 172q-193 -163 -337 -163q-59 0 -125 30.5t-129 30.5t-141 -43t-88 -43t-10 16q0 49 226 243q37 36 116 82.5t132 46.5t96 -17.5t49 -17.5q43 114 131.5 265.5t202.5 151.5q51 0 83 -24q30 -25 30 -52q0 -65 -51 -65q-8 0 -35 14.5t-77 14.5t-92 -39t-42 -87
q-1 -8 -1 -17q0 -31 40 -55q41 -24 79 -25q63 0 128 83q63 87 75 87h1q7 -4 7 -26t-50 -112q-113 -193 -218 -279z" />
    <glyph glyph-name="FeHa" unicode="&#xfed3;&#xfeea;" horiz-adv-x="966" 
d="M823 1681q0 -43 -40 -105t-84 -92q-32 -21 -41.5 -21t-28.5 16t-54 45.5t-59 45t-25 20.5q0 4 6 14l160 244q5 7 14 7t22 -7q106 -64 127 -144q3 -11 3 -23zM56 -77q-34 0 -34 30q0 18 57 105.5t113 146.5q133 155 267 155q40 0 80 -10t49 -10q75 0 143 43t68 77
q0 19 -61 68q-45 -27 -91.5 -27t-80.5 27t-34 85q0 6 49.5 123t79 154t59.5 37q78 0 151 -75q72 -77 72 -192q0 -101 -55 -230q-100 -231 -242 -354q-94 -76 -190 -76q-38 0 -89 18.5t-97 18.5q-80 0 -170 -85q-32 -29 -44 -29z" />
    <glyph glyph-name="KafHa" unicode="&#xfb90;&#xfeea;" horiz-adv-x="964" 
d="M899.5 1603.5q54.5 71.5 106 111.5t113.5 79t530 354.5t615.5 430.5t154.5 124q9 7 17 7q2 0 3 -4q0 -9 -10 -35q-15 -39 -145 -198q-398 -360 -1296 -890q-50 -34 -97 -61q-24 -14 -35 -14t-11 12t54.5 83.5zM58 -72q-11 -10 -24 -10q-2 0 -4 1q-16 2 -16 13.5t8 29.5
t14.5 27t26 46t57.5 83.5t76.5 97.5t95.5 85q59 30 92 30t72.5 -10.5t53.5 -10.5q73 6 114.5 41.5t57.5 81.5q15 29 15 98v79q-3 18 -3 29l-3 285q0 223 17.5 264.5t49 132t62.5 161.5q12 13 20.5 13t8.5 -15.5t-8 -42.5l-12 -231q-4 -104 -9 -230l-3 -249v-7
q0 -100 -27 -208q-61 -248 -187 -398q-99 -117 -212 -117q-27 0 -69.5 15.5t-78.5 15.5t-68.5 -17t-75.5 -47z" />
    <glyph glyph-name="MimHa" unicode="&#xfee3;&#xfeea;" horiz-adv-x="1345" 
d="M69 40q142 177 288 270q96 56 138.5 56t92 -20.5t97.5 -20.5q104 0 167 56q39 33 103 138q80 112 152 153q18 17 51.5 67t42.5 68q21 0 75 -84t54 -155.5t-47 -130.5t-90.5 -59t-83.5 9t-58 9q-46 0 -117 -77q-9 -10 -97.5 -122.5t-125.5 -138.5q-81 -58 -197 -58
q-60 0 -120 27.5t-113 27.5t-122 -46q-136 -89 -148 -89h-1q-6 4 -6 13q0 29 65 107z" />
    <glyph glyph-name="Mod" unicode="&#xfee3;&#xfeaa;" horiz-adv-x="919" 
d="M-1.5 -51q-11.5 0 -11.5 7t22 22q122 72 242.5 142.5t183.5 150t116 187.5t96 202q9 16 19 16q3 0 6 -2q14 -6 2 -36q-36 -86 -43 -142q1 -94 40 -143t89 -49q9 3 30 66q22 63 37 96q44 -9 63.5 -42.5t21.5 -66.5q0 -114 -70.5 -235.5t-184.5 -121.5q-78 3 -129 78
q-33 48 -35 135q-47 -76 -75 -108q-73 -92 -222 -124t-167.5 -32h-30z" />
    <glyph glyph-name="Moz" unicode="&#xfee3;&#xfeac;" horiz-adv-x="919" 
d="M765 1257q0 -43 -40 -105t-84 -92q-32 -21 -46 -21q-5 0 -7 3q-36 29 -71 59q-35 29 -59 45q-24 15 -25 20q0 4 6 14l160 244q6 9 14 9q8 -1 22 -9q106 -64 127 -144q3 -11 3 -23zM-1.5 -51q-11.5 0 -11.5 7t22 22q122 72 242.5 142.5t183.5 150t116 187.5t96 202
q9 16 19 16q3 0 6 -2q14 -6 2 -36q-36 -86 -43 -142q1 -94 40 -143t89 -49q9 3 30 66q22 63 37 96q44 -9 63.5 -42.5t21.5 -66.5q0 -114 -70.5 -235.5t-184.5 -121.5q-78 3 -129 78q-33 48 -35 135q-47 -76 -75 -108q-73 -92 -222 -124t-167.5 -32h-30z" />
    <glyph glyph-name="Pa" unicode="&#xfb58;&#xfe8e;" horiz-adv-x="569" 
d="M241 -972l-14 -5q-7 0 -18 8l-98 81q-12 9 -29.5 21t-17.5 16.5t5 12.5l153 233q7 10 10 10h4q5 -2 6 -2l23 -13q16 -10 36 -25l22 -18l17 -18q29 -33 39 -85v-15q-4 -31 -22 -67l-12 -19q-3 -3 -9.5 -14.5t-11 -16.5t-6.5 -8l-20 -25q-18 -20 -20 -21.5t-12 -11.5
q-18 -18 -25 -18zM515 -1133q-1 -71 -105 -181q-29 -30 -53 -31q-9 0 -61.5 45.5t-92.5 70.5q-5 7 -5 10.5t5 11.5l152 234q6 8 13.5 8t39.5 -19q85 -52 105 -133q2 -7 2 -16zM618 -886q-55 -67 -88 -71q-9 0 -61.5 45.5t-92.5 70.5q-5 7 -5 10.5t5 11.5l152 234q6 8 16 8
q50 -19 90 -59q54 -56 54 -108t-70 -142zM325 1372q-81 -545 -87 -787v-66q0 -126 67 -176q31 -20 51 -20q63 0 88.5 38.5t40.5 83t29 44.5q14 -1 14 -19v-24q-2 -42 -34 -164q-73 -274 -223 -282q-81 3 -122 86t-41 201q0 14 1 29q0 170 90 710q16 96 31 155q71 207 87 207
q6 0 8 -16z" />
    <glyph glyph-name="BeHe" unicode="&#xfe91;&#xfba5;" horiz-adv-x="684" 
d="M262.5 1011q38.5 21 43 21t4.5 -4.5t-1 -10.5t-76.5 -51.5t-130 -95.5t-60.5 -50q-21 -15 -26.5 -15t-5.5 4q0 24 79 103v3q-68 27 -68 44q0 24 75 98q61 68 82 68v-1q34 -1 48.5 -13t14.5 -27t-10.5 -24.5t-14.5 -9.5h-4q-7 1 -20.5 10t-29 9t-33.5 -12.5t-18 -26
t23.5 -27t56.5 -13.5t71.5 21zM422 -707q-40 -62 -98 -101q-19 -13 -27.5 -13t-28 16.5t-54.5 46.5t-59.5 45.5t-24.5 17.5v3q1 4 6 13l160 244q6 8 16.5 8t43 -22.5t69.5 -59t37 -86.5t-40 -112zM360 307q75 -12 112 -12q85 0 123 68q9 13 19 27.5t25.5 36t27.5 21.5
t12 -24q0 -57 -67 -187q-83 -177 -219 -225q-21 -9 -65 -9l-112 12q-65 0 -125 -51q-11 -12 -35 -31t-32 -19h-9q-7 2 -7 14q0 43 71 152t120 150q92 77 154 77h7z" />
    <glyph glyph-name="TeHe" unicode="&#xfe97;&#xfba5;" horiz-adv-x="684" 
d="M260 1352q38 21 43 21t5 -4.5t-1 -10.5t-76.5 -51.5t-130 -95.5t-60.5 -50q-21 -15 -26.5 -15t-5.5 4q0 24 79 103v3q-68 27 -68 44q0 24 75 98q62 68 82 68h14q22 -2 35.5 -13.5t13.5 -27t-10.5 -25t-14.5 -9.5h-4q-7 1 -20.5 10t-29 9t-33.5 -12.5t-18 -26t23.5 -27
t56.5 -13.5t71 21zM624 990l2 -14v-14l-1 -9l-3 -12l-1 -6l-7 -20q-12 -26 -17 -31.5t-5 -7.5l-12 -18q-8 -12 -10 -15.5t-9 -10.5l-16 -20q-2 -2 -8 -11t-18 -16q-23 -23 -40 -28h-7q-10 0 -57 41.5t-73 58t-28.5 19.5t-2.5 7t5 12l153 233q0 1 4 6t8 5l8 -4l7 -3
q2 -2 4 -2.5t4 -2t6 -3.5t31 -18.5t53.5 -52.5t26.5 -46.5t3 -16.5zM786 776h-9q-8 0 -61 45.5t-93 70.5q-5 7 -5 10.5t5 11.5l152 234q6 8 13.5 8t40 -20.5t62 -50t42.5 -81.5q2 -7 2 -16q-1 -52 -61.5 -128t-87.5 -84zM15 -85q-10 3 -10 24t63 125q150 242 282 242h11
q69 -10 108.5 -10t72 15t58.5 54.5t40.5 61t26.5 21.5t12 -40.5t-51.5 -144t-103.5 -163.5t-96 -78.5t-100 -18.5l-112 12q-64 0 -123.5 -50t-77.5 -50z" />
    <glyph glyph-name="SeHe" unicode="&#xfe9b;&#xfba5;" horiz-adv-x="684" 
d="M253.5 1257q38.5 21 43 21t4.5 -4.5t-1 -10.5t-76.5 -51.5t-130 -95.5t-60.5 -50q-21 -15 -26.5 -15t-5.5 4q0 24 79 103v3q-68 27 -68 44q0 24 75 98q62 68 89 68t41.5 -13t14.5 -28t-10.5 -24.5t-14.5 -9.5h-4q-7 1 -20.5 10t-29 9t-33.5 -12.5t-18 -26t23.5 -27
t56.5 -13.5t71.5 21zM670 920q0 -25 -6 -37.5t-6.5 -15.5t-2.5 -5l-6 -12l-29 -44q-10 -16 -24 -32q-51 -62 -78 -62h-1q-8 0 -14 6l-93 76q-44 31 -49 35t-5 8.5t5 12.5l153 233q5 7 11.5 7t12.5 -3q132 -68 132 -167zM772 1162q-51 -62 -79 -70h-9q-8 0 -61 45.5t-93 70.5
q-5 7 -5 10.5t5 11.5l152 234q6 8 13.5 8t40 -20.5t62 -50t42.5 -81.5q2 -7 2 -16q0 -52 -70 -142zM910 802q-55 -67 -88 -71q-9 0 -61.5 45.5t-92.5 70.5q-5 7 -5 10.5t5 11.5l152 234q6 8 13.5 8t40 -20.5t62 -50t42.5 -81.5q2 -7 2 -16q0 -51 -70 -141zM15 -85
q-10 3 -10 24t63 125q150 242 282 242h11q69 -10 108.5 -10t72 15t58.5 54.5t40.5 61t26.5 21.5t12 -40.5t-51.5 -144t-103.5 -163.5t-96 -78.5t-100 -18.5l-112 12q-64 0 -123.5 -50t-77.5 -50z" />
    <glyph glyph-name="PeHe" unicode="&#xfb58;&#xfba5;" horiz-adv-x="684" 
d="M324.5 1011q38.5 21 43 21t4.5 -4.5t-1 -10.5t-76.5 -51.5t-130 -95.5t-60.5 -50q-21 -15 -26.5 -15t-5.5 4q0 24 79 103v3q-68 27 -68 44q0 24 75 98q61 68 82 68v-1q34 -1 48.5 -13t14.5 -27t-10.5 -24.5t-14.5 -9.5h-4q-7 1 -20.5 10t-29 9t-33.5 -12.5t-18 -26
t23.5 -27t56.5 -13.5t71.5 21zM365 -520l7 -2l23 -13q16 -10 36 -25l22 -18l17 -18q29 -33 39 -85v-15q-4 -31 -22 -67l-12 -19q-1 -2 -3 -4t-7.5 -11t-10 -15t-6.5 -9l-20 -25q-18 -20 -20 -21.5t-12.5 -12t-16.5 -14t-7.5 -4t-6 -2.5t-10.5 -2t-16 8l-98 81
q-12 9 -29.5 21t-17.5 16.5t5 12.5l153 233q7 10 13 10zM496 -1270h-9q-8 0 -61 45.5t-93 70.5q-5 7 -5 10.5t5 11.5l152 234q6 8 13.5 8t39.5 -20q85 -53 105 -132q2 -7 2 -16q-1 -52 -61.5 -128t-87.5 -84zM748 -812q-51 -62 -79 -70h-9q-8 0 -61 45.5t-93 70.5
q-5 7 -5 10.5t5 11.5l152 234q6 8 13.5 8t39.5 -20q85 -53 105 -132q2 -7 2 -16q0 -52 -70 -142zM15 -85q-10 3 -10 24t63 125q150 242 282 242h11q69 -10 108.5 -10t72 15t58.5 54.5t40.5 61t26.5 21.5t12 -40.5t-51.5 -144t-103.5 -163.5t-96 -78.5t-100 -18.5l-112 12
q-64 0 -123.5 -50t-77.5 -50z" />
    <glyph glyph-name="NeHe" unicode="&#xfee7;&#xfba5;" horiz-adv-x="684" 
d="M263.5 1267q38.5 21 43 21t4.5 -4.5t-1 -10.5t-76.5 -51.5t-130 -95.5t-60.5 -50q-21 -15 -26.5 -15t-5.5 4q0 24 79 103v3q-68 27 -68 44q0 24 75 98q61 68 82 68l1 -1q35 -1 48.5 -13t13.5 -27t-10.5 -24.5t-14.5 -9.5h-4q-7 1 -20.5 10t-29 9t-33.5 -12.5t-18 -26
t23.5 -27t56.5 -13.5t71.5 21zM677 865q-40 -62 -98 -101q-19 -13 -27.5 -13t-28 16.5t-54.5 46.5t-59.5 45.5t-24.5 17.5v3q1 4 6 13l160 244q6 9 16 9t43 -23t70 -59.5t37 -86.5t-40 -112zM15 -85q-10 3 -10 24t63 125q150 242 282 242h11q69 -10 108.5 -10t72 15
t58.5 54.5t40.5 61t26.5 21.5t12 -40.5t-51.5 -144t-103.5 -163.5t-96 -78.5t-100 -18.5l-112 12q-64 0 -123.5 -50t-77.5 -50z" />
    <glyph glyph-name="YeHe" unicode="&#xfbfe;&#xfba5;" horiz-adv-x="684" 
d="M342.5 949q38.5 21 43 21t4.5 -4.5t-1 -10.5t-76.5 -51.5t-130 -95.5t-60.5 -50q-21 -15 -26.5 -15t-5.5 4q0 24 79 103v3q-68 27 -68 44q0 24 75 98q61 68 82 68v-1q34 -1 48.5 -13t14.5 -27t-10.5 -24.5t-14.5 -9.5h-4q-7 1 -20.5 10t-29 9t-33.5 -12.5t-18 -26
t23.5 -27t56.5 -13.5t71.5 21zM421 -764l2 -14v-14l-1 -9l-3 -12l-1 -6l-8 -20q-9 -24 -15 -30.5t-6 -8.5l-12 -18q-8 -12 -10 -15.5t-9 -10.5l-16 -20q-2 -2 -8 -11t-18 -16q-23 -23 -40 -28h-7h-6t-52 41.5t-72.5 58t-28 19.5t-2.5 7t5 12l153 233q0 1 4 6t8 5l8 -4l7 -3
q2 -2 4 -2.5t4 -2t6 -3.5t31 -18.5t53.5 -52.5t26.5 -46.5t3 -16.5zM662 -908q-51 -62 -79 -70h-9q-8 0 -61 45.5t-93 70.5q-5 7 -5 10.5t5 11.5l152 234q6 8 13.5 8t39.5 -20q85 -53 105 -132q2 -7 2 -16q0 -52 -70 -142zM15 -85q-10 3 -10 24t63 125q150 242 282 242h11
q69 -10 108.5 -10t72 15t58.5 54.5t40.5 61t26.5 21.5t12 -40.5t-51.5 -144t-103.5 -163.5t-96 -78.5t-100 -18.5l-112 12q-64 0 -123.5 -50t-77.5 -50z" />
    <glyph glyph-name="Eshgh" unicode="&#xfecb;&#x640;&#xfeb8;&#xfed6;" horiz-adv-x="3922" 
d="M850 1486l2 -14v-14l-1 -9l-3 -12l-1 -6l-7 -20q-12 -26 -17 -31.5t-5 -7.5l-12 -18q-8 -12 -10 -15.5t-9 -10.5l-16 -20q-2 -2 -8 -11t-18 -16q-23 -23 -40 -28h-7q-10 0 -57 41.5t-73 58t-28.5 19.5t-2.5 7t5 12l153 233q0 1 4.5 6t8 5t7.5 -4l7 -3q2 -2 4 -2.5t4 -2
t6 -3.5t31 -18.5t53.5 -52.5t26.5 -46.5t3 -16.5zM1012 1272h-9q-8 0 -61 45.5t-93 70.5q-5 7 -5 10.5t5 11.5l152 234q6 8 13.5 8t39.5 -20q85 -53 105 -132q2 -7 2 -16q-1 -52 -61.5 -128t-87.5 -84zM2376 1993v-18q0 -12 -6 -24.5t-6.5 -15.5t-2.5 -5l-6 -12l-29 -44
q-10 -16 -24 -32q-51 -62 -78 -62h-1q-8 0 -14 6l-93 76q-44 31 -49 35t-5 8.5t5 12.5l153 233q5 7 11 7t13 -3q125 -64 132 -162zM2478 2230q-51 -62 -79 -70h-9q-8 0 -61 45.5t-93 70.5q-5 7 -5 10.5t5 11.5l152 234q6 8 13.5 8t40 -20.5t62 -50t42.5 -81.5q2 -7 2 -16
q0 -52 -70 -142zM2616 1870q-55 -67 -88 -71q-9 0 -61.5 45.5t-92.5 70.5q-5 7 -5 10.5t5 11.5l152 234q6 8 13.5 8t40 -20.5t62 -50t42.5 -81.5q2 -7 2 -16q0 -51 -70 -141zM273 530q12 24 23.5 24t11.5 -13.5t-9 -34.5q-169 -384 -169 -526v-28q0 -116 50 -192
q80 -119 266 -123q280 6 465 154q147 119 217 313q45 125 45 236q0 25 -2 49q-32 -8 -68.5 -8t-80.5 14q-74 24 -77 102q0 19 6 39l60 161q46 113 131 113q23 0 60.5 -30t50.5 -73t18 -68q129 -12 261 -12q593 1 1240 243q356 134 672 323q-72 36 -82.5 51t-10.5 34.5
t16 43.5q68 99 127 164q95 104 192 114h11q53 0 76 -45q7 -15 7 -27q0 -42 -34 -50q-6 -1 -16 -1.5t-23.5 9t-33 16t-35.5 6.5t-49.5 -11.5t-55 -43t-21.5 -53.5q0 -29 50 -46.5t95.5 -17.5t149 41t118.5 41t15 -2q0 -24 -48 -63q-115 -61 -258.5 -163t-223.5 -158
q-272 -194 -567 -326q-732 -329 -1391 -329h-4q-93 0 -184 6q-92 -559 -358 -823q-250 -243 -509 -243q-27 0 -54 3q-245 34 -303 258q-16 62 -16 105v55q6 355 249 792z" />
    <glyph glyph-name="KafChasbanKeshideh5" unicode="&#x640;&#xfb8f;" horiz-adv-x="2549" 
d="M2756 1536q54 72 105.5 111.5t113.5 78.5t530 354.5t615.5 430.5t154.5 124q9 7 17 7q2 0 3 -4q0 -9 -10 -35q-15 -39 -145 -198q-398 -360 -1296 -890q-50 -34 -97 -61q-24 -14 -35 -14t-11 12q1 13 55 84zM2009 294q-220 -121 -504 -190q-399 -102 -871 -102
q-288 0 -402 49q-144 60 -144 230q0 110 29 229t49 119q12 0 12 -45q0 -111 97 -168q141 -86 535 -86t820 99q231 53 379 119q246 105 386 249q67 71 114 192l52 183q26 84 106 246q10 24 20.5 24t10.5 -15q-52 -230 -100.5 -465.5t-48.5 -412.5l-18 -72q-9 -51 -18 -69
q-47 -73 -93 -97q0 70 16 179t21 155.5t9.5 75t-5.5 28.5q-72 -142 -180 -251.5t-272 -203.5z" />
    <glyph glyph-name="KafChasbanKeshideh7" unicode="&#x640;&#x640;&#xfb8f;" horiz-adv-x="2915" 
d="M3122 1516q54 72 106 112t114 79t530 354.5t615.5 430.5t154.5 124q10 7 15 7t5 -7.5t-12 -38.5t-143 -191q-398 -360 -1296 -890q-50 -34 -97 -61q-24 -14 -35 -14t-11 12t54 83zM589 347q185 -21 293 -21h118q538 1 986 89q314 72 530 182q174 99 266 220q60 69 88 152
l52 183q56 144 92.5 205t43 61t6.5 -11q-52 -230 -100.5 -465.5t-48.5 -412.5l-18 -72q-9 -51 -18 -69q-47 -73 -93 -97q0 70 16 179t21 155.5t9.5 75t-5.5 28.5q-119 -211 -311 -346q-269 -174 -665 -268q-467 -104 -1012 -113q-338 5 -523 70q-109 37 -152.5 113
t-43.5 244q0 64 16 64q4 1 20 -12q113 -89 433 -134z" />
    <glyph glyph-name="KafChasbanKeshideh9" unicode="&#x640;&#x640;&#x640;&#xfb8f;" horiz-adv-x="3721" 
d="M3873 1458q0 11 54.5 82.5t106 111.5t113.5 79t530 354.5t615.5 430.5t154.5 124q11 7 15 7q5 0 5 -7q-1 -7 -13 -38q-12 -32 -142 -192q-398 -360 -1296 -890q-110 -75 -126.5 -75t-16.5 12v1zM662 374q315 -52 723 -52q90 0 289 2q929 9 1532 252q118 47 225 112
q183 127 247 293l52 183q29 74 107 244q12 24 21 24h1q9 -1 9 -6.5t-10 -51.5l-30 -138q-107 -476 -107 -691v-4q-9 -21 -18 -72t-18 -69q-47 -73 -93 -97q0 115 46 409q3 29 -5 29l-32 -56q-77 -123 -212 -213q-336 -229 -787 -326q-634 -145 -1235 -145h-45q-45 0 -90 1
q-624 15 -843 92q-109 37 -152.5 113t-43.5 250q0 64 16 64h3q2 0 17 -12q113 -89 433 -134v-1z" />
    <glyph glyph-name="KafChasbanKeshideh11" unicode="&#x640;&#x640;&#x640;&#x640;&#xfb8f;" horiz-adv-x="4067" 
d="M4233 1474q0 11 54.5 82.5t106 111.5t113.5 79t530 354.5t615.5 430.5t154.5 124q11 7 15 7q5 0 5 -7q-1 -7 -13 -38q-12 -32 -142 -192q-398 -360 -1296 -890q-110 -75 -126.5 -75t-16.5 12v1zM156 424q222 -175 1238 -175q1349 0 2192 352q226 97 357 252q49 59 78 152
l52 183q33 84 78 176t54 92q9 -1 9 -6.5t-10 -51.5l-30 -138q-107 -476 -107 -691v-4q-9 -21 -18 -72t-18 -69q-47 -73 -93 -97q0 115 46 409q3 29 -5 29q-98 -212 -433 -394q-423 -215 -1037 -333.5t-1275 -118.5t-918 90q-109 37 -152.5 113t-43.5 250q0 64 16 64h2
q2 0 18 -12z" />
    <glyph glyph-name="GafChasbanKeshideh5" unicode="&#x640;&#xfb93;" horiz-adv-x="2549" 
d="M3853 2411q-85 -61 -285 -194h-1q-2 0 -2 3q0 4 6 16q11 20 38 51q88 69 245 176.5t160 107.5t3 -6.5t-44 -58.5zM2756 1536q54 72 105.5 111.5t113.5 78.5t530 354.5t615.5 430.5t154.5 124q9 7 17 7q2 0 3 -4q0 -9 -10 -35q-15 -39 -145 -198q-398 -360 -1296 -890
q-50 -34 -97 -61q-24 -14 -35 -14t-11 12q1 13 55 84zM2009 294q-220 -121 -504 -190q-399 -102 -871 -102q-288 0 -402 49q-144 60 -144 230q0 110 29 229t49 119q12 0 12 -45q0 -111 97 -168q141 -86 535 -86t820 99q231 53 379 119q246 105 386 249q67 71 114 192l52 183
q26 84 106 246q10 24 20.5 24t10.5 -15q-52 -230 -100.5 -465.5t-48.5 -412.5l-18 -72q-9 -51 -18 -69q-47 -73 -93 -97q0 70 16 179t21 155.5t9.5 75t-5.5 28.5q-72 -142 -180 -251.5t-272 -203.5z" />
    <glyph glyph-name="GafChasbanKeshideh7" unicode="&#x640;&#x640;&#xfb93;" horiz-adv-x="2915" 
d="M4244 2383q-85 -61 -285 -194h-1q-2 0 -2 3q0 4 6 16q11 20 38 51q88 69 245 176.5t160 107.5t3 -6.5t-44 -58.5zM3122 1516q54 72 106 112t114 79t530 354.5t615.5 430.5t154.5 124q10 7 15 7t5 -7.5t-12 -38.5t-143 -191q-398 -360 -1296 -890q-50 -34 -97 -61
q-24 -14 -35 -14t-11 12t54 83zM589 347q185 -21 293 -21h118q538 1 986 89q314 72 530 182q174 99 266 220q60 69 88 152l52 183q56 144 92.5 205t43 61t6.5 -11q-52 -230 -100.5 -465.5t-48.5 -412.5l-18 -72q-9 -51 -18 -69q-47 -73 -93 -97q0 70 16 179t21 155.5t9.5 75
t-5.5 28.5q-119 -211 -311 -346q-269 -174 -665 -268q-467 -104 -1012 -113q-338 5 -523 70q-109 37 -152.5 113t-43.5 244q0 64 16 64q4 1 20 -12q113 -89 433 -134z" />
    <glyph glyph-name="GafChasbanKeshideh9" unicode="&#x640;&#x640;&#x640;&#xfb93;" horiz-adv-x="3721" 
d="M5038 2411q-85 -61 -185 -127.5t-101.5 -66.5t-1.5 10t44 60q88 69 245 176.5t160 107.5t3 -6.5t-44 -58.5zM3873 1458q0 11 54.5 82.5t106 111.5t113.5 79t530 354.5t615.5 430.5t154.5 124q11 7 15 7q5 0 5 -7q-1 -7 -13 -38q-12 -32 -142 -192q-398 -360 -1296 -890
q-110 -75 -126.5 -75t-16.5 12v1zM662 374q315 -52 723 -52q90 0 289 2q929 9 1532 252q118 47 225 112q183 127 247 293l52 183q29 74 107 244q12 24 21 24h1q9 -1 9 -6.5t-10 -51.5l-30 -138q-107 -476 -107 -691v-4q-9 -21 -18 -72t-18 -69q-47 -73 -93 -97q0 115 46 409
q3 29 -5 29l-32 -56q-77 -123 -212 -213q-336 -229 -787 -326q-634 -145 -1235 -145h-45q-45 0 -90 1q-624 15 -843 92q-109 37 -152.5 113t-43.5 250q0 64 16 64h3q2 0 17 -12q113 -89 433 -134v-1z" />
    <glyph glyph-name="GafChasbanKeshideh11" unicode="&#x640;&#x640;&#x640;&#x640;&#xfb93;" horiz-adv-x="4067" 
d="M5377 2439q-85 -61 -185 -127.5t-101.5 -66.5t-1.5 10t44 60q88 69 245 176.5t160 107.5t3 -6.5t-44 -58.5zM4233 1474q0 11 54.5 82.5t106 111.5t113.5 79t530 354.5t615.5 430.5t154.5 124q11 7 15 7q5 0 5 -7q-1 -7 -13 -38q-12 -32 -142 -192q-398 -360 -1296 -890
q-110 -75 -126.5 -75t-16.5 12v1zM156 424q222 -175 1238 -175q1349 0 2192 352q226 97 357 252q49 59 78 152l52 183q33 84 78 176t54 92q9 -1 9 -6.5t-10 -51.5l-30 -138q-107 -476 -107 -691v-4q-9 -21 -18 -72t-18 -69q-47 -73 -93 -97q0 115 46 409q3 29 -5 29
q-98 -212 -433 -394q-423 -215 -1037 -333.5t-1275 -118.5t-918 90q-109 37 -152.5 113t-43.5 250q0 64 16 64h2q2 0 18 -12z" />
    <glyph glyph-name="BeChasbanKeshideh5" unicode="&#x640;&#xfe90;" horiz-adv-x="2167" 
d="M994 -640q0 -43 -40 -105t-98 -101q-19 -13 -27.5 -13t-62.5 46t-78.5 61.5t-25.5 20.5q0 4 6 14l160 244q6 9 14 9q8 -1 22 -9q106 -64 127 -144q3 -11 3 -23zM2122 594h45q18 -35 18 -67t-18 -62q-43 9 -65 9t-45 -15t-59 -69q-121 -182 -438 -286t-889 -104
q-216 0 -366 23q-279 43 -279 244q0 100 19 206t24 115.5t11 11.5q13 3 19.5 -31t13.5 -61q16 -65 87 -97q182 -88 720 -88h12q494 15 755 85q158 41 255.5 94.5t135.5 105.5q12 21 25 21h2q25 -3 20 -22z" />
    <glyph glyph-name="BeChasbanKeshideh7" unicode="&#x640;&#x640;&#xfe90;" horiz-adv-x="2878" 
d="M1146 -678q0 -43 -40 -105t-98 -101q-19 -13 -27.5 -13t-62.5 46t-78.5 61.5t-25.5 20.5q0 4 6 14l160 244q6 9 14 9q8 -1 22 -9q106 -64 127 -144q3 -11 3 -23zM2833 743h45q18 -35 18 -67t-18 -62q-51 11 -66.5 11t-26 -4t-18 -9t-25.5 -26t-67 -78
q-133 -154 -444 -271q-175 -76 -517 -155t-887 -82q-513 12 -689 129q-83 60 -83 213v26q0 18 8.5 67.5t15.5 52t51 -25.5t164 -64q252 -76 732 -76h12q616 1 1190 160q258 71 421 153q87 52 140 122q12 21 25 21h2q25 -3 20 -22z" />
    <glyph glyph-name="BeChasbanKeshideh9" unicode="&#x640;&#x640;&#x640;&#xfe90;" horiz-adv-x="3537" 
d="M1523 -738q0 -43 -40 -105t-98 -101q-19 -13 -27.5 -13t-62.5 46t-78.5 61.5t-25.5 20.5q0 4 6 14l160 244q6 9 14 9q8 -1 22 -9q106 -64 127 -144q3 -11 3 -23zM1188 322l212 -1q246 0 610 33q792 71 1298 313q87 52 140 122q12 21 25 21h2q21 -2 21 -16q0 -2 -4 -19h45
q18 -35 18 -67t-18 -62q-51 11 -66.5 11t-26 -4t-18 -9t-64.5 -70.5t-82 -87.5q-67 -69 -284 -168t-499 -165q-448 -113 -1215 -150q-43 -2 -110 -2q-371 0 -677 45v1q-138 21 -237 55t-142.5 110t-43.5 250q0 64 16 64h1q5 0 19 -12q104 -82 374 -125q420 -67 706 -67z" />
    <glyph glyph-name="BeChasbanKeshideh11" unicode="&#x640;&#x640;&#x640;&#x640;&#xfe90;" horiz-adv-x="3810" 
d="M1813 -698q0 -43 -40 -105t-98 -101q-19 -13 -27.5 -13t-62.5 46t-78.5 61.5t-25.5 20.5q0 4 6 14l160 244q6 9 14 9q8 -1 22 -9q106 -64 127 -144q3 -11 3 -23zM3765 820h45q18 -35 18 -67t-18 -62q-51 11 -66.5 11t-25.5 -4q-20 -8 -44 -35q-92 -108 -121 -132
q-67 -69 -302 -178t-481 -167q-242 -64 -583 -120.5t-1001 -65.5q-663 0 -920 90q-109 37 -152.5 113t-43.5 250q0 64 16 64q4 1 20 -12q223 -175 1249 -183h57q546 0 1193.5 113t975.5 277q87 52 140 122q12 21 25 21h2q25 -3 20 -22z" />
    <glyph glyph-name="TeChasbanKeshideh5" unicode="&#x640;&#xfe96;" horiz-adv-x="2167" 
d="M996 1126l2 -14v-14l-1 -9l-3 -12l-1 -6l-7 -20q-12 -26 -17 -31.5t-5 -7.5l-12 -18q-8 -12 -10 -15.5t-9 -10.5l-16 -20q-2 -1 -8 -10l-28 -27q-17 -14 -30 -18h-7q-10 0 -57 41.5t-73 58t-28.5 19.5t-2.5 7t5 12l153 233q0 1 4.5 6t8 5t7.5 -4l7 -3q2 -2 4 -2.5t4 -2
t5 -3t10 -6.5t28 -17.5t47.5 -48t26.5 -46t3 -16.5zM1307 1124q-1 -70 -105 -181q-29 -31 -53 -31h-5q-5 0 -55.5 44.5t-93.5 71.5q-5 7 -5 10.5t5 11.5l152 234q6 8 13.5 8t40 -20.5t62 -50t42.5 -81.5q2 -7 2 -16zM2122 594h45q18 -35 18 -67t-18 -62q-43 9 -65 9t-45 -15
t-59 -69q-121 -182 -438 -286t-889 -104q-216 0 -366 23q-279 43 -279 244q0 100 19 206t24 115.5t11 11.5q13 3 19.5 -31t13.5 -61q16 -65 87 -97q182 -88 720 -88h12q494 15 755 85q158 41 255.5 94.5t135.5 105.5q12 21 25 21h2q25 -3 20 -22z" />
    <glyph glyph-name="TeChasbanKeshideh7" unicode="&#x640;&#x640;&#xfe96;" horiz-adv-x="2878" 
d="M1325.47 1208.61l2.16016 -14.0996v-14.1006l-1.08008 -9.06445l-3.24023 -12.085l-1.08008 -6.04297l-7.55859 -20.1426q-12.959 -26.1855 -18.3584 -31.7256q-5.39941 -5.53906 -5.39941 -7.55273l-12.959 -18.1289q-8.63965 -12.0859 -10.7988 -15.6104
q-2.16016 -3.52539 -9.71973 -10.5752l-17.2783 -20.1426q-2.15918 -1.00781 -8.63867 -10.0723l-30.2373 -27.1924q-18.3584 -14.0996 -32.3975 -18.1279h-7.55859q-10.7988 0 -61.5547 41.7959q-50.7549 41.7959 -78.833 58.4141q-28.0771 16.6182 -30.7764 19.6396
q-2.7002 3.02148 -2.7002 7.0498t5.39941 12.085l165.225 234.664q0 1.00684 4.85938 6.04297q4.85938 5.03516 8.63965 5.03516q3.7793 0 8.09863 -4.02832l7.55957 -3.02148q2.16016 -2.01367 4.31934 -2.51758q2.16016 -0.503906 4.32031 -2.01465
q2.15918 -1.51074 5.39941 -3.02148q3.23926 -1.50977 10.7988 -6.5459t30.2373 -17.625t51.2949 -48.3428t28.6172 -46.3281q0 -10.5752 3.24023 -16.6182zM1661.32 1206.59q-1.08008 -70.499 -113.39 -182.292q-31.3164 -31.2217 -57.2344 -31.2217h-5.39941
q-5.39941 0 -59.9346 44.8184q-54.5352 44.8174 -100.971 72.0098q-5.39941 7.05078 -5.39941 10.5752q0 3.52539 5.39941 11.582l164.145 235.671q6.47949 8.05762 14.5791 8.05762q8.09863 0 43.1963 -20.6465q35.0967 -20.6465 66.9531 -50.3574
q31.8574 -29.71 45.8965 -82.082q2.15918 -7.0498 2.15918 -16.1143zM2833 743h45q18 -35 18 -67t-18 -62q-51 11 -66.5 11t-26 -4t-18 -9t-25.5 -26t-67 -78q-133 -154 -444 -271q-175 -76 -517 -155t-887 -82q-513 12 -689 129q-83 60 -83 213v26q0 18 8.5 67.5t15.5 52
t51 -25.5t164 -64q252 -76 732 -76h12q616 1 1190 160q258 71 421 153q87 52 140 122q12 21 25 21h2q25 -3 20 -22z" />
    <glyph glyph-name="TeChasbanKeshideh9" unicode="&#x640;&#x640;&#x640;&#xfe96;" horiz-adv-x="3537" 
d="M1544 1212l2 -14v-14l-1 -9l-3 -12l-1 -6l-7 -20q-12 -26 -17 -31.5t-5 -7.5l-12 -18q-8 -12 -10 -15.5t-9 -10.5l-16 -20q-2 -1 -8 -10l-28 -27q-17 -14 -30 -18h-7q-10 0 -57 41.5t-73 58t-28.5 19.5t-2.5 7t5 12l153 233q0 1 4.5 6t8 5t7.5 -4l7 -3q2 -2 4 -2.5t4 -2
t5 -3t10 -6.5t28 -17.5t47.5 -48t26.5 -46t3 -16.5zM1855 1210q-1 -70 -105 -181q-29 -31 -53 -31h-5q-5 0 -55.5 44.5t-93.5 71.5q-5 7 -5 10.5t5 11.5l152 234q6 8 13.5 8t40 -20.5t62 -50t42.5 -81.5q2 -7 2 -16zM1188 322l212 -1q246 0 610 33q792 71 1298 313
q87 52 140 122q12 21 25 21h2q21 -2 21 -16q0 -2 -4 -19h45q18 -35 18 -67t-18 -62q-51 11 -66.5 11t-26 -4t-18 -9t-64.5 -70.5t-82 -87.5q-67 -69 -284 -168t-499 -165q-448 -113 -1215 -150q-43 -2 -110 -2q-371 0 -677 45v1q-138 21 -237 55t-142.5 110t-43.5 250
q0 64 16 64h1q5 0 19 -12q104 -82 374 -125q420 -67 706 -67z" />
    <glyph glyph-name="TeChasbanKeshideh11" unicode="&#x640;&#x640;&#x640;&#x640;&#xfe96;" horiz-adv-x="3810" 
d="M1723 1256l2 -14v-14l-1 -9l-3 -12l-1 -6l-7 -20q-12 -26 -17 -31.5t-5 -7.5l-12 -18q-8 -12 -10 -15.5t-9 -10.5l-16 -20q-2 -1 -8 -10l-28 -27q-17 -14 -30 -18h-7q-10 0 -57 41.5t-73 58t-28.5 19.5t-2.5 7t5 12l153 233q0 1 4.5 6t8 5t7.5 -4l7 -3q2 -2 4 -2.5t4 -2
t5 -3t10 -6.5t28 -17.5t47.5 -48t26.5 -46t3 -16.5zM2034 1254q-1 -70 -105 -181q-29 -31 -53 -31h-5q-5 0 -55.5 44.5t-93.5 71.5q-5 7 -5 10.5t5 11.5l152 234q6 8 13.5 8t40 -20.5t62 -50t42.5 -81.5q2 -7 2 -16zM3765 820h45q18 -35 18 -67t-18 -62q-51 11 -66.5 11
t-25.5 -4q-20 -8 -44 -35q-92 -108 -121 -132q-67 -69 -302 -178t-481 -167q-242 -64 -583 -120.5t-1001 -65.5q-663 0 -920 90q-109 37 -152.5 113t-43.5 250q0 64 16 64q4 1 20 -12q223 -175 1249 -183h57q546 0 1193.5 113t975.5 277q87 52 140 122q12 21 25 21h2
q25 -3 20 -22z" />
    <glyph glyph-name="SeChasbanKeshideh5" unicode="&#x640;&#xfe9a;" horiz-adv-x="2167" 
d="M1004 1110q0 -25 -6 -37t-6.5 -15t-2.5 -5l-6 -12l-29 -44q-10 -16 -24 -32q-51 -62 -78 -62h-1q-8 0 -14 6l-93 76q-44 31 -49 35t-5 8.5t5 12.5l153 233q5 7 11 7t13 -3q132 -68 132 -168zM1027 1283h-9q-8 0 -61 45.5t-93 70.5q-5 7 -5 10.5t5 11.5l152 234
q6 8 13.5 8t40 -20.5t62 -50t42.5 -81.5q2 -7 2 -16q-1 -52 -61.5 -128t-87.5 -84zM1314 1134q-1 -70 -105 -181q-28 -31 -46 -32h-1q-19 0 -64 42t-96 75q-5 7 -5 10.5t5 11.5l152 234q6 8 13.5 8t40 -20.5t62 -50t42.5 -81.5q2 -7 2 -16zM2122 594h45q18 -35 18 -67
t-18 -62q-43 9 -65 9t-45 -15t-59 -69q-121 -182 -438 -286t-889 -104q-216 0 -366 23q-279 43 -279 244q0 100 19 206t24 115.5t11 11.5q13 3 19.5 -31t13.5 -61q16 -65 87 -97q182 -88 720 -88h12q494 15 755 85q158 41 255.5 94.5t135.5 105.5q12 21 25 21h2
q25 -3 20 -22z" />
    <glyph glyph-name="SeChasbanKeshideh7" unicode="&#x640;&#x640;&#xfe9a;" horiz-adv-x="2878" 
d="M1275 1156q0 -25 -6 -37t-6.5 -15t-2.5 -5l-6 -12l-29 -44q-10 -16 -24 -32q-51 -62 -78 -62h-1q-8 0 -14 6l-93 76q-44 31 -49 35t-5 8.5t5 12.5l153 233q5 7 11 7t13 -3q132 -68 132 -168zM1298 1329h-9q-8 0 -61 45.5t-93 70.5q-5 7 -5 10.5t5 11.5l152 234
q6 8 13.5 8t40 -20.5t62 -50t42.5 -81.5q2 -7 2 -16q-1 -52 -61.5 -128t-87.5 -84zM1585 1180q-1 -70 -105 -181q-28 -31 -46 -32h-1q-19 0 -64 42t-96 75q-5 7 -5 10.5t5 11.5l152 234q6 8 13.5 8t40 -20.5t62 -50t42.5 -81.5q2 -7 2 -16zM2833 743h45q18 -35 18 -67
t-18 -62q-51 11 -66.5 11t-26 -4t-18 -9t-25.5 -26t-67 -78q-133 -154 -444 -271q-175 -76 -517 -155t-887 -82q-513 12 -689 129q-83 60 -83 213v26q0 18 8.5 67.5t15.5 52t51 -25.5t164 -64q252 -76 732 -76h12q616 1 1190 160q258 71 421 153q87 52 140 122q12 21 25 21
h2q25 -3 20 -22z" />
    <glyph glyph-name="SeChasbanKeshideh9" unicode="&#x640;&#x640;&#x640;&#xfe9a;" horiz-adv-x="3537" 
d="M1527 1247q0 -25 -6 -37t-6.5 -15t-2.5 -5l-6 -12l-29 -44q-10 -16 -24 -32q-51 -62 -78 -62h-1q-8 0 -14 6l-93 76q-44 31 -49 35t-5 8.5t5 12.5l153 233q5 7 11 7t13 -3q132 -68 132 -168zM1550 1420h-9q-8 0 -61 45.5t-93 70.5q-5 7 -5 10.5t5 11.5l152 234
q6 8 13.5 8t40 -20.5t62 -50t42.5 -81.5q2 -7 2 -16q-1 -52 -61.5 -128t-87.5 -84zM1837 1271q-1 -70 -105 -181q-28 -31 -46 -32h-1q-19 0 -64 42t-96 75q-5 7 -5 10.5t5 11.5l152 234q6 8 13.5 8t40 -20.5t62 -50t42.5 -81.5q2 -7 2 -16zM1188 322l212 -1q246 0 610 33
q792 71 1298 313q87 52 140 122q12 21 25 21h2q21 -2 21 -16q0 -2 -4 -19h45q18 -35 18 -67t-18 -62q-51 11 -66.5 11t-26 -4t-18 -9t-64.5 -70.5t-82 -87.5q-67 -69 -284 -168t-499 -165q-448 -113 -1215 -150q-43 -2 -110 -2q-371 0 -677 45v1q-138 21 -237 55t-142.5 110
t-43.5 250q0 64 16 64h1q5 0 19 -12q104 -82 374 -125q420 -67 706 -67z" />
    <glyph glyph-name="SeChasbanKeshideh11" unicode="&#x640;&#x640;&#x640;&#x640;&#xfe9a;" horiz-adv-x="3810" 
d="M1695 1279q0 -25 -6 -37t-6.5 -15t-2.5 -5l-6 -12l-29 -44q-10 -16 -24 -32q-51 -62 -78 -62h-1q-8 0 -14 6l-93 76q-44 31 -49 35t-5 8.5t5 12.5l153 233q5 7 11 7t13 -3q132 -68 132 -168zM1718 1452h-9q-8 0 -61 45.5t-93 70.5q-5 7 -5 10.5t5 11.5l152 234
q6 8 13.5 8t40 -20.5t62 -50t42.5 -81.5q2 -7 2 -16q-1 -52 -61.5 -128t-87.5 -84zM2005 1303q-1 -70 -105 -181q-28 -31 -46 -32h-1q-19 0 -64 42t-96 75q-5 7 -5 10.5t5 11.5l152 234q6 8 13.5 8t40 -20.5t62 -50t42.5 -81.5q2 -7 2 -16zM3765 820h45q18 -35 18 -67
t-18 -62q-51 11 -66.5 11t-25.5 -4q-20 -8 -44 -35q-92 -108 -121 -132q-67 -69 -302 -178t-481 -167q-242 -64 -583 -120.5t-1001 -65.5q-663 0 -920 90q-109 37 -152.5 113t-43.5 250q0 64 16 64q4 1 20 -12q223 -175 1249 -183h57q546 0 1193.5 113t975.5 277
q87 52 140 122q12 21 25 21h2q25 -3 20 -22z" />
    <glyph glyph-name="PeChasbanKeshideh5" unicode="&#x640;&#xfb57;" horiz-adv-x="2167" 
d="M742.216 -797.763l-15.3203 -4.95801q-7.66016 0 -19.6973 7.93359l-107.242 80.3271q-13.1309 8.92578 -32.2812 20.8262t-19.1504 16.3623q0 4.46289 5.47168 12.3965l167.428 231.066q7.66016 9.91602 10.9434 9.91602h4.37695q5.47168 -1.98242 6.56543 -1.98242
l25.1689 -12.8926q17.5088 -9.91699 39.3945 -24.793l24.0752 -17.8496l18.6025 -17.8506q31.7354 -32.7266 42.6777 -84.2949v-14.875l-2.18848 -14.876l-13.1318 -35.7012l-8.75391 -15.8672l-13.1318 -18.8418q-3.2832 -2.97559 -10.3955 -14.3799
q-7.11328 -11.4043 -12.585 -16.3633q-5.47168 -4.95801 -7.66016 -7.93359l-20.791 -24.792q-19.6973 -19.834 -21.8867 -21.3223q-2.18848 -1.4873 -17.5088 -15.3711t-22.9795 -13.8838zM965.453 -1097.26q-60.1875 -66.4434 -96.2988 -70.4102
q-10.9434 0 -70.0352 46.1133q-59.0928 46.1143 -98.4873 68.9238q-5.47168 6.94141 -5.47168 10.4121q0 3.47168 5.47168 11.4053l166.334 232.058q6.56543 7.93359 15.3203 7.93359q8.75391 0 43.7715 -19.3389q35.0176 -19.3379 75.5068 -57.5186
q40.4893 -38.1797 40.4893 -89.2529q0 -51.0723 -76.6006 -140.325zM1231.37 -572.646q-1.09375 -70.4111 -114.901 -179.498q-31.7344 -29.751 -57.998 -30.7422q-9.84863 0 -67.2988 45.1221q-57.4512 45.1221 -101.223 69.915q-5.47168 6.94141 -5.47168 10.4121
q0 3.47168 5.47168 11.4053l166.333 232.058q6.56641 7.93359 14.7734 7.93359t43.7715 -20.3301q35.5654 -20.3301 67.8467 -49.585q32.2822 -29.2549 46.5078 -80.8232q2.18848 -6.94238 2.18848 -15.8672zM2122 594h45q18 -35 18 -67t-18 -62q-43 9 -65 9t-45 -15
t-59 -69q-121 -182 -438 -286t-889 -104q-216 0 -366 23q-279 43 -279 244q0 100 19 206t24 115.5t11 11.5q13 3 19.5 -31t13.5 -61q16 -65 87 -97q182 -88 720 -88h12q494 15 755 85q158 41 255.5 94.5t135.5 105.5q12 21 25 21h2q25 -3 20 -22z" />
    <glyph glyph-name="PeChasbanKeshideh7" unicode="&#x640;&#x640;&#xfb57;" horiz-adv-x="2878" 
d="M1081.22 -891.763l-15.3203 -4.95801q-7.66016 0 -19.6982 7.93359l-107.241 80.3271q-13.1309 8.92578 -32.2812 20.8262t-19.1504 16.3623q0 4.46289 5.47168 12.3965l167.428 231.066q7.66016 9.91602 10.9434 9.91602h4.37695q5.47168 -1.98242 6.56543 -1.98242
l25.1689 -12.8926q17.5088 -9.91699 39.3945 -24.793l24.0752 -17.8496l18.6025 -17.8516q31.7354 -32.7256 42.6777 -84.2939v-14.875l-2.18848 -14.876l-13.1318 -35.7012l-8.75391 -15.8672l-13.1318 -18.8418q-3.28223 -2.97559 -10.3955 -14.3799t-12.585 -16.3633
q-5.47168 -4.95801 -7.66016 -7.93359l-20.791 -24.792q-19.6982 -19.834 -21.8867 -21.3223q-2.18848 -1.4873 -17.5088 -15.3711t-22.9795 -13.8838zM1304.45 -1191.26q-60.1875 -66.4434 -96.2988 -70.4102q-10.9434 0 -70.0352 46.1133
q-59.0918 46.1143 -98.4873 68.9238q-5.47168 6.94141 -5.47168 10.4121q0 3.47168 5.47168 11.4053l166.334 232.058q6.56543 7.93359 15.3203 7.93359q8.75391 0 43.7715 -19.3389q35.0176 -19.3379 75.5068 -57.5186q40.4893 -38.1797 40.4893 -89.2529
q0 -51.0723 -76.6006 -140.325zM1570.37 -666.646q-1.09375 -70.4111 -114.901 -179.498q-31.7344 -29.751 -57.998 -30.7422q-9.84863 0 -67.2988 45.1221q-57.4512 45.1221 -101.223 69.915q-5.47168 6.94141 -5.47168 10.4121q0 3.47168 5.47168 11.4053l166.333 232.058
q6.56641 7.93359 14.7734 7.93359t43.7715 -20.3301q35.5654 -20.3301 67.8467 -49.585q32.2822 -29.2549 46.5078 -80.8232q2.18848 -6.94238 2.18848 -15.8672zM2833 743h45q18 -35 18 -67t-18 -62q-51 11 -66.5 11t-26 -4t-18 -9t-25.5 -26t-67 -78q-133 -154 -444 -271
q-175 -76 -517 -155t-887 -82q-513 12 -689 129q-83 60 -83 213v26q0 18 8.5 67.5t15.5 52t51 -25.5t164 -64q252 -76 732 -76h12q616 1 1190 160q258 71 421 153q87 52 140 122q12 21 25 21h2q25 -3 20 -22z" />
    <glyph glyph-name="PeChasbanKeshideh9" unicode="&#x640;&#x640;&#x640;&#xfb57;" horiz-adv-x="3537" 
d="M1230.22 -945.763l-15.3203 -4.95801q-7.66016 0 -19.6982 7.93359l-107.241 80.3271q-13.1309 8.92578 -32.2812 20.8262t-19.1504 16.3623q0 4.46289 5.47168 12.3965l167.428 231.066q7.66016 9.91602 10.9434 9.91602h4.37695q5.47168 -1.98242 6.56543 -1.98242
l25.1689 -12.8926q17.5088 -9.91699 39.3945 -24.793l24.0752 -17.8496l18.6025 -17.8516q31.7354 -32.7256 42.6777 -84.2939v-14.875l-2.18848 -14.876l-13.1318 -35.7012l-8.75391 -15.8672l-13.1318 -18.8418q-3.28223 -2.97559 -10.3955 -14.3799t-12.585 -16.3633
q-5.47168 -4.95801 -7.66016 -7.93359l-20.791 -24.792q-19.6982 -19.834 -21.8867 -21.3223q-2.18848 -1.4873 -17.5088 -15.3711t-22.9795 -13.8838zM1453.45 -1245.26q-60.1875 -66.4434 -96.2988 -70.4102q-10.9434 0 -70.0352 46.1133
q-59.0918 46.1143 -98.4873 68.9238q-5.47168 6.94141 -5.47168 10.4121q0 3.47168 5.47168 11.4053l166.334 232.058q6.56543 7.93359 15.3203 7.93359q8.75391 0 43.7715 -19.3389q35.0176 -19.3379 75.5068 -57.5186q40.4893 -38.1797 40.4893 -89.2529
q0 -51.0723 -76.6006 -140.325zM1719.37 -720.646q-1.09375 -70.4111 -114.901 -179.498q-31.7344 -29.751 -57.998 -30.7422q-9.84863 0 -67.2988 45.1221q-57.4512 45.1221 -101.223 69.915q-5.47168 6.94141 -5.47168 10.4121q0 3.47168 5.47168 11.4053l166.333 232.058
q6.56641 7.93359 14.7734 7.93359t43.7715 -20.3301q35.5654 -20.3301 67.8467 -49.585q32.2822 -29.2549 46.5078 -80.8232q2.18848 -6.94238 2.18848 -15.8672zM1188 322l212 -1q246 0 610 33q792 71 1298 313q87 52 140 122q12 21 25 21h2q21 -2 21 -16q0 -2 -4 -19h45
q18 -35 18 -67t-18 -62q-51 11 -66.5 11t-26 -4t-18 -9t-64.5 -70.5t-82 -87.5q-67 -69 -284 -168t-499 -165q-448 -113 -1215 -150q-43 -2 -110 -2q-371 0 -677 45v1q-138 21 -237 55t-142.5 110t-43.5 250q0 64 16 64h1q5 0 19 -12q104 -82 374 -125q420 -67 706 -67z" />
    <glyph glyph-name="PeChasbanKeshideh11" unicode="&#x640;&#x640;&#x640;&#x640;&#xfb57;" horiz-adv-x="3810" 
d="M1423 -942l-14 -5q-7 0 -18 8l-98 81q-12 9 -29.5 21t-17.5 16.5t5 12.5l153 233q7 10 10 10h4q5 -2 6 -2l23 -13q16 -10 36 -25l22 -18l17 -18q29 -33 39 -85v-15l-2 -15l-12 -36l-8 -16l-12 -19q-3 -3 -9.5 -14.5t-11.5 -16.5t-7 -8l-19 -25q-18 -20 -20 -21.5
t-16 -15.5t-21 -14zM1627 -1244q-55 -67 -88 -71q-10 0 -64 46.5t-90 69.5q-5 7 -5 10.5t5 11.5l152 234q6 8 14 8t40 -19.5t69 -58t37 -90t-70 -141.5zM1870 -715q-1 -71 -105 -181q-29 -30 -53 -31q-9 0 -61.5 45.5t-92.5 70.5q-5 7 -5 10.5t5 11.5l152 234q6 8 13.5 8
t40 -20.5t62 -50t42.5 -81.5q2 -7 2 -16zM3765 820h45q18 -35 18 -67t-18 -62q-51 11 -66.5 11t-25.5 -4q-20 -8 -44 -35q-92 -108 -121 -132q-67 -69 -302 -178t-481 -167q-242 -64 -583 -120.5t-1001 -65.5q-663 0 -920 90q-109 37 -152.5 113t-43.5 250q0 64 16 64
q4 1 20 -12q223 -175 1249 -183h57q546 0 1193.5 113t975.5 277q87 52 140 122q12 21 25 21h2q25 -3 20 -22z" />
    <glyph glyph-name="FeChasbanKeshideh5" unicode="&#x640;&#xfed2;" horiz-adv-x="2606" 
d="M1414 1321q0 -43 -40 -105t-84 -92q-32 -21 -46 -21q-5 0 -7 3q-36 29 -71 59q-36 29 -60 45q-24 15 -24 20q0 4 6 14l160 244q6 9 14 9q8 -1 22 -9q106 -64 127 -144q3 -11 3 -23zM2422 737q-38 93 -104 93t-108 -52q-30 -35 -30 -60.5t41 -49.5q42 -22 75 -22t81 31
q45 33 45 60zM2606 686q12 -29 12 -72.5t-14 -55t-33.5 -27.5t-46 -26.5t-128.5 -37.5q-76 -15 -136 -28l-184 -108l-2 -1q-205 -122 -554 -228q-399 -102 -871 -102q-288 0 -402 49q-144 60 -144 230q0 110 29 229t49 119q12 0 11 -45q0 -111 98 -168q141 -86 535 -86
t820 99q262 62 430 136q-1 6 -1 23.5t16 59.5q60 138 96 199q95 162 180 162q62 0 98 -43q34 -44 34 -114t-39 -195q10 -4 27.5 -4t56.5 8t63 27z" />
    <glyph glyph-name="FeChasbanKeshideh7" unicode="&#x640;&#x640;&#xfed2;" horiz-adv-x="2932" 
d="M1635 1397q0 -43 -40 -105t-84 -92q-32 -21 -46 -21q-5 0 -7 3q-36 29 -71 59q-35 29 -59 45q-24 15 -25 20q0 4 6 14l160 244q6 9 14 9q8 -1 22 -9q106 -64 127 -144q3 -11 3 -23zM2748 705q-38 93 -104 93t-108 -52q-30 -35 -30 -60.5t41 -49.5q42 -22 75 -22t81 31
q45 33 45 60zM2932 654q12 -29 12 -72.5t-14 -55t-33.5 -26.5t-98.5 -46.5t-208 -49.5q-275 -184 -740 -289.5t-1010 -112.5h-30q-92 0 -241.5 16t-255.5 52.5t-149.5 112.5t-43.5 243q0 64 16 64q4 1 20 -12q113 -90 433 -133q183 -22 293 -22h119q538 1 986 89
q254 50 414 119q-1 6 -1 22.5t16 60.5q60 138 96 199q95 162 180 162q62 0 98 -43q34 -44 34 -114t-39 -195q10 -4 27.5 -4t56.5 8t63 27z" />
    <glyph glyph-name="FeChasbanKeshideh9" unicode="&#x640;&#x640;&#x640;&#xfed2;" horiz-adv-x="3586" 
d="M2136 1447q0 -43 -40 -105t-84 -92q-32 -21 -46 -21q-5 0 -7 3q-36 29 -71 59q-36 29 -60 45q-24 15 -24 20q0 4 6 14l160 244q6 9 14 9q8 -1 22 -9q106 -64 127 -144q3 -11 3 -23zM3402 709q0 73 -114 73q-42 0 -83 -45q-40 -48 -40 -71t33 -40.5t69 -17.5t85.5 33
t49.5 68zM159 508q167 -132 819 -177q162 -11 304 -11h204q306 4 562 24q440 34 793 133q108 29 238 79q-11 9 -3 52q15 56 43.5 103t80.5 126.5t83 105t81 26.5h2q49 0 79 -47.5t30 -127t-36 -159.5q126 17 147 32q5 -12 11.5 -25t6.5 -36t-18 -65q-78 -69 -293 -97
q-383 -210 -893 -327.5t-1112 -117.5h-55q-33 0 -79 1q-612 15 -835 93q-109 37 -152.5 113t-43.5 250q0 64 16 64q4 1 20 -12z" />
    <glyph glyph-name="FeChasbanKeshideh11" unicode="&#x640;&#x640;&#x640;&#x640;&#xfed2;" horiz-adv-x="4398" 
d="M2732 1417q-40 -61 -84 -91q-32 -21 -46 -22q-5 0 -7 3q-36 29 -71 59q-36 30 -60 46q-24 15 -24 19t6 14l160 244q6 9 16 9t43 -23t70 -59.5t37 -86.5t-40 -112zM4213 810q-41 90 -105 92h-4q-61 0 -96.5 -43t-35.5 -68.5t40 -49.5q42 -22 75 -22t81 31q45 33 45 60z
M4398 759q15 -45 15 -77t-5.5 -38t-34 -30.5t-56 -35.5t-117 -35t-149.5 -42q-236 -115 -491.5 -188t-473.5 -121t-522 -92q-706 -102 -1347 -102t-899 91q-109 37 -152.5 113t-43.5 250q0 64 16 64q4 1 20 -12q221 -176 1256 -176q406 0 774 24t919.5 112.5t759.5 174.5
q0 43 15 83q60 135 96 196q94 162 180 162q61 0 97 -43q35 -44 35 -114t-39 -195q10 -4 27.5 -4t56.5 8t63 27z" />
    <glyph glyph-name="afii57369" unicode="&#x6a4;" horiz-adv-x="583" arabic-form="medial" 
d="M483 435q-17 79 -89 79q-46 0 -83 -35t-45 -78q46 -42 82.5 -42t60.5 9q24 3 47 31t27 36zM445 668q97 0 97 -139q0 -74 -34 -160l2 -2q22 5 73 29q18 -12 18 -41t-8.5 -53.5t-9.5 -31.5q-76 -52 -145 -60q-185 -209 -345 -209h-12q-112 5 -166 111q-44 85 -44 215
q58 171 129 238q0 -121 25.5 -163.5t58.5 -60t84 -19.5q65 172 156 283q54 63 121 63zM410 1343q0 -25 -6 -37t-6.5 -15t-2.5 -5l-6 -12l-29 -44q-10 -16 -24 -32q-51 -62 -78 -62h-1q-8 0 -14 6l-93 76q-44 31 -49 35t-5 8.5t5 12.5l153 233q5 7 11 7t13 -3
q132 -68 132 -168zM433 1516h-9q-8 0 -61 45.5t-93 70.5q-5 7 -5 10.5t5 11.5l152 234q6 8 13.5 8t40 -20.5t62 -50t42.5 -81.5q2 -7 2 -16q-1 -52 -61.5 -128t-87.5 -84zM720 1367q-1 -70 -105 -181q-28 -31 -46 -32h-1q-19 0 -64 42t-96 75q-5 7 -5 10.5t5 11.5l152 234
q6 8 13.5 8t40 -20.5t62 -50t42.5 -81.5q2 -7 2 -16z" />
    <glyph glyph-name="afii57371" unicode="&#x6a4;" horiz-adv-x="2223" arabic-form="final" 
d="M2039 661q-38 93 -104 93t-108 -52q-30 -35 -30 -60.5t41 -49.5q42 -22 75 -22t81 31q45 33 45 60zM2223 610q13 -31 13 -73.5t-13 -52.5q-72 -42 -185.5 -74t-160.5 -47l-184 -108l-2 -1q-428 -255 -1102 -255q-169 1 -261 15q-160 25 -228 96q-61 56 -61 150
q1 100 35 292q7 37 19 42q13 3 20 -31.5t13 -61.5q16 -65 87 -97q177 -76 505 -78q6 0 13 -1q321 0 659 74q175 38 302 88q-1 6 -1 23.5t16 59.5q60 138 96 199q95 162 180 162q62 0 98 -43q34 -44 34 -114t-39 -195q80 0 147 31zM1222 1259q0 -25 -6 -37t-6.5 -15t-2.5 -5
l-6 -12l-29 -44q-10 -16 -24 -32q-51 -62 -78 -62h-1q-8 0 -14 6l-93 76q-44 31 -49 35t-5 8.5t5 12.5l153 233q5 7 11 7t13 -3q132 -68 132 -168zM1245 1432h-9q-8 0 -61 45.5t-93 70.5q-5 7 -5 10.5t5 11.5l152 234q6 8 13.5 8t40 -20.5t62 -50t42.5 -81.5q2 -7 2 -16
q-1 -52 -61.5 -128t-87.5 -84zM1532 1283q-1 -70 -105 -181q-28 -31 -46 -32h-1q-19 0 -64 42t-96 75q-5 7 -5 10.5t5 11.5l152 234q6 8 13.5 8t40 -20.5t62 -50t42.5 -81.5q2 -7 2 -16z" />
    <glyph glyph-name="afii57372" unicode="&#x6a4;" horiz-adv-x="589" arabic-form="initial" 
d="M-129 308v17q78 192 129 245q0 -158 112 -220q50 -28 110 -28q162 0 222 118q2 5 -6 21.5t-23.5 26.5t-24 10t-30.5 -13.5t-58 -13.5q-80 0 -107 57q-4 8 -4 21q0 67 108 253q35 60 87 60t112 -66q57 -63 57 -169q0 -100 -51 -240q-50 -138 -110 -213t-96 -106
q-79 -68 -196.5 -68t-174 91t-56.5 217zM518 1480q0 -25 -6 -37t-6.5 -15t-2.5 -5l-6 -12l-29 -44q-10 -16 -24 -32q-51 -62 -78 -62h-1q-8 0 -14 6l-93 76q-44 31 -49 35t-5 8.5t5 12.5l153 233q5 7 11 7t13 -3q132 -68 132 -168zM541 1653h-9q-8 0 -61 45.5t-93 70.5
q-5 7 -5 10.5t5 11.5l152 234q6 8 13.5 8t40 -20.5t62 -50t42.5 -81.5q2 -7 2 -16q-1 -52 -61.5 -128t-87.5 -84zM828 1504q-1 -70 -105 -181q-28 -31 -46 -32h-1q-19 0 -64 42t-96 75q-5 7 -5 10.5t5 11.5l152 234q6 8 13.5 8t40 -20.5t62 -50t42.5 -81.5q2 -7 2 -16z" />
    <glyph glyph-name="afii62958" unicode="&#x67e;" horiz-adv-x="2062" arabic-form="final" 
d="M2062 429q-54 12 -78 12t-38.5 -13t-41.5 -50q-144 -216 -514 -296q-256 -55 -602 -78q-114 -7 -210 -7q-375 0 -482 111q-61 56 -61 150q1 100 35 292q7 37 19 42q13 3 20 -31.5t13 -61.5q16 -65 87 -97q192 -82 617.5 -82t755 87t403.5 189q12 21 25 21h2q25 -3 20 -22
l-15 -37h45q18 -35 18 -67t-18 -62zM760 -702l-14 -5q-7 0 -18 8l-98 81q-12 9 -29.5 21t-17.5 16.5t5 12.5l153 233q7 10 10 10h4q5 -2 6 -2l23 -13q16 -10 36 -25l22 -18l17 -18q29 -33 39 -85v-15l-2 -15l-12 -36l-8 -16l-12 -19q-3 -3 -9.5 -14.5t-11.5 -16.5t-7 -8
l-19 -25q-18 -20 -20 -21.5t-16 -15.5t-21 -14zM964 -1004q-55 -67 -88 -71q-10 0 -64 46.5t-90 69.5q-5 7 -5 10.5t5 11.5l152 234q6 8 14 8t40 -19.5t69 -58t37 -90t-70 -141.5zM1207 -475q-1 -71 -105 -181q-29 -30 -53 -31q-9 0 -61.5 45.5t-92.5 70.5q-5 7 -5 10.5
t5 11.5l152 234q6 8 13.5 8t40 -20.5t62 -50t42.5 -81.5q2 -7 2 -16z" />
    <glyph glyph-name="afii62956" unicode="&#x67e;" horiz-adv-x="327" arabic-form="initial" 
d="M-129 325q41 177 101 240q16 17 28 20v-66q0 -126 67 -176q31 -20 51 -20q63 0 88.5 38.5t40.5 83t29 44.5q14 -1 14 -19v-24q-2 -42 -34 -164q-73 -274 -223 -282q-81 3 -122 86t-41 201q0 14 1 29v9zM28 -1058l-14 -5q-7 0 -18 8l-98 81q-12 9 -29.5 21t-17.5 16.5
t5 12.5l153 233q7 10 10 10h4q5 -2 6 -2l23 -13q16 -10 36 -25l22 -18l17 -18q29 -33 39 -85v-15l-2 -15l-12 -36l-8 -16l-12 -19q-3 -3 -9.5 -14.5t-11.5 -16.5t-7 -8l-19 -25q-18 -20 -20 -21.5t-16 -15.5t-21 -14zM232 -1360q-55 -67 -88 -71q-10 0 -64 46.5t-90 69.5
q-5 7 -5 10.5t5 11.5l152 234q6 8 14 8t40 -19.5t69 -58t37 -90t-70 -141.5zM475 -831q-1 -71 -105 -181q-29 -30 -53 -31q-9 0 -61.5 45.5t-92.5 70.5q-5 7 -5 10.5t5 11.5l152 234q6 8 13.5 8t40 -20.5t62 -50t42.5 -81.5q2 -7 2 -16z" />
    <glyph glyph-name="afii52957" unicode="&#x67e;" horiz-adv-x="502" arabic-form="medial" 
d="M502 286q-22 4 -39 4q-73 0 -177 -159q-86 -131 -193 -131h-1q-108 0 -164.5 96t-56.5 229q60 199 129 239v-9q0 -233 197 -233h3q80 0 140 52t89 80q40 28 71 28h2q22 -24 23 -92v-5q0 -64 -23 -99zM149 -845l-14 -5q-7 0 -18 8l-98 81q-12 9 -29.5 21t-17.5 16.5
t5 12.5l153 233q7 10 10 10h4q5 -2 6 -2l23 -13q16 -10 36 -25l22 -18l17 -18q29 -33 39 -85v-15l-2 -15l-12 -36l-8 -16l-12 -19q-3 -3 -9.5 -14.5t-11.5 -16.5t-7 -8l-19 -25q-18 -20 -20 -21.5t-16 -15.5t-21 -14zM353 -1147q-55 -67 -88 -71q-10 0 -64 46.5t-90 69.5
q-5 7 -5 10.5t5 11.5l152 234q6 8 14 8t40 -19.5t69 -58t37 -90t-70 -141.5zM596 -618q-1 -71 -105 -181q-29 -30 -53 -31q-9 0 -61.5 45.5t-92.5 70.5q-5 7 -5 10.5t5 11.5l152 234q6 8 13.5 8t40 -20.5t62 -50t42.5 -81.5q2 -7 2 -16z" />
    <glyph glyph-name="afii57459" unicode="&#x6a1;" horiz-adv-x="589" 
d="M-129 308v17q78 192 129 245q0 -158 112 -220q50 -28 110 -28q162 0 222 118q2 5 -6 21.5t-23.5 26.5t-24 10t-30.5 -13.5t-58 -13.5q-80 0 -107 57q-4 8 -4 21q0 67 108 253q35 60 87 60t112 -66q57 -63 57 -169q0 -100 -51 -240q-50 -138 -110 -213t-96 -106
q-79 -68 -196.5 -68t-174 91t-56.5 217z" />
    <glyph glyph-name="afii57374" unicode="&#x6a1;" horiz-adv-x="583" 
d="M483 435q-17 79 -89 79q-46 0 -83 -35t-45 -78q46 -42 82.5 -42t60.5 9q24 3 47 31t27 36zM445 668q97 0 97 -139q0 -74 -34 -160l2 -2q22 5 73 29q18 -12 18 -41t-8.5 -53.5t-9.5 -31.5q-76 -52 -145 -60q-185 -209 -345 -209h-12q-112 5 -166 111q-44 85 -44 215
q58 171 129 238q0 -121 25.5 -163.5t58.5 -60t84 -19.5q65 172 156 283q54 63 121 63z" />
    <glyph glyph-name="afii52258" unicode="&#x6a1;" horiz-adv-x="2223" 
d="M2039 661q-38 93 -104 93t-108 -52q-30 -35 -30 -60.5t41 -49.5q42 -22 75 -22t81 31q45 33 45 60zM2223 610q13 -31 13 -73.5t-13 -52.5q-72 -42 -185.5 -74t-160.5 -47l-184 -108l-2 -1q-428 -255 -1102 -255q-169 1 -261 15q-160 25 -228 96q-61 56 -61 150
q1 100 35 292q7 37 19 42q13 3 20 -31.5t13 -61.5q16 -65 87 -97q177 -76 505 -78q6 0 13 -1q321 0 659 74q175 38 302 88q-1 6 -1 23.5t16 59.5q60 138 96 199q95 162 180 162q62 0 98 -43q34 -44 34 -114t-39 -195q80 0 147 31z" />
    <glyph glyph-name="afii62961" unicode="&#x686;" horiz-adv-x="544" arabic-form="final" 
d="M507 1030q89 14 184 14t196 -17q37 -7 37 -35q0 -12 -7 -29q-25 -51 -110 -96.5t-248 -182t-277 -324.5q-117 -209 -117 -375.5t105 -262.5t326 -96q157 0 293 49t229 117q66 43 118 96.5t99 105.5q36 45 51 45q1 -1 4 -1.5t3 -9.5t-34 -53q-34 -52 -78 -113
q-375 -533 -843 -544q-221 10 -325 129t-104 314q7 266 176 564q161 261 446 490q36 29 66 53t35 30q3 3 3 6q0 17 -121 23q-38 2 -95 2t-105 -8q-35 -6 -17 30.5t61.5 101.5t85.5 112q15 -23 15 -46.5t-15 -47.5zM934 38q0 -38 -55.5 -119t-87.5 -81q-11 0 -27 15t-50 44
l-71 54q-4 4 -4 9.5t4 11.5l142 216q6 10 10 10h1q4 0 20 -10q118 -70 118 -150zM802 357q0 -42 -36 -94.5t-62.5 -78.5t-39 -26t-29 15t-50.5 44l-71 54q-4 4 -4 9.5t4 11.5l142 216q7 11 11 11t20 -11q115 -68 115 -151zM1096 374q0 -42 -36 -94.5t-61.5 -78.5t-39.5 -26
t-30 15t-50 44l-71 54q-4 4 -4 9.5t4 11.5l142 216q6 10 10 10h1q4 -1 20 -11q115 -68 115 -150z" />
    <glyph glyph-name="afii62959" unicode="&#x686;" horiz-adv-x="846" arabic-form="initial" 
d="M257 322q115 11 178 41q125 60 211 197q-23 5 -50 14t-75 23q-15 4 -29 4q-33 0 -67 -22q-48 -32 -77.5 -88t-49.5 -91.5t-41 -77.5zM166 0q-157 3 -225.5 99.5t-69.5 225.5q11 42 21 83q42 145 108 157q0 -114 56.5 -178.5t144.5 -64.5q14 17 39 65l33 67q7 12 22 42
q119 234 248 234q26 0 79.5 -19t96 -19t65.5 7q19 0 19 -10q0 -58 -70 -135q-44 -57 -117 -186.5t-115 -182.5q-140 -176 -335 -185zM182 -914l-14 -5q-7 0 -18 8l-98 81q-12 9 -29.5 21t-17.5 16.5t5 12.5l153 233q7 10 10 10h4q5 -2 6 -2l23 -13q16 -10 36 -25l22 -18
l17 -18q29 -33 39 -85v-15l-2 -15l-12 -36l-8 -16l-12 -19q-3 -3 -9.5 -14.5t-11.5 -16.5t-7 -8l-19 -25q-18 -20 -20 -21.5t-16 -15.5t-21 -14zM386 -1216q-55 -67 -88 -71q-10 0 -64 46.5t-90 69.5q-5 7 -5 10.5t5 11.5l152 234q6 8 14 8t40 -19.5t69 -58t37 -90
t-70 -141.5zM629 -687q-1 -71 -105 -181q-29 -30 -53 -31q-9 0 -61.5 45.5t-92.5 70.5q-5 7 -5 10.5t5 11.5l152 234q6 8 13.5 8t40 -20.5t62 -50t42.5 -81.5q2 -7 2 -16z" />
    <glyph glyph-name="afii62960" unicode="&#x686;" horiz-adv-x="306" arabic-form="medial" 
d="M223 469q-37 0 -37 26q0 8 3 19q35 106 117 194q14 -24 14 -47t-14 -46q-16 -16 -20 -33q3 -2 32.5 -2t152.5 31t147 38q16 5 27 5q27 0 27 -27q0 -38 -22.5 -66t-40 -59t-46 -85.5t-84.5 -149.5t-138 -174.5t-193 -92.5h-15q-159 0 -217 112q-39 75 -45 209q5 87 95 224
q22 34 34 20q18 -245 186 -245q94 0 186 54.5t131 121.5q9 15 -5 15q-135 -42 -275 -42zM98 -814l-14 -5q-7 0 -18 8l-98 81q-12 9 -29.5 21t-17.5 16.5t5 12.5l153 233q7 10 10 10h4q5 -2 6 -2l23 -13q16 -10 36 -25l22 -18l17 -18q29 -33 39 -85v-15l-2 -15l-12 -36
l-8 -16l-12 -19q-3 -3 -9.5 -14.5t-11.5 -16.5t-7 -8l-19 -25q-18 -20 -20 -21.5t-16 -15.5t-21 -14zM302 -1116q-55 -67 -88 -71q-10 0 -64 46.5t-90 69.5q-5 7 -5 10.5t5 11.5l152 234q6 8 14 8t40 -19.5t69 -58t37 -90t-70 -141.5zM545 -587q-1 -71 -105 -181
q-29 -30 -53 -31q-9 0 -61.5 45.5t-92.5 70.5q-5 7 -5 10.5t5 11.5l152 234q6 8 13.5 8t40 -20.5t62 -50t42.5 -81.5q2 -7 2 -16z" />
    <glyph glyph-name="afii62962" unicode="&#x698;" horiz-adv-x="855" arabic-form="final" 
d="M-312 -310q-23 -9 -32.5 -9t-9.5 6t24 21.5t112 72t157 113t154.5 152.5t214.5 280t172 242q172 232 375 303q45 -61 45 -136t-45 -165q-187 -28 -333 -168q-84 -80 -176.5 -204.5t-176 -208t-227 -172.5t-254.5 -127zM616 1399q0 -25 -6 -37t-6.5 -15t-2.5 -5l-6 -12
l-29 -44q-10 -16 -24 -32q-51 -62 -78 -62h-1q-8 0 -14 6l-93 76q-44 31 -49 35t-5 8.5t5 12.5l153 233q5 7 11 7t13 -3q132 -68 132 -168zM639 1572h-9q-8 0 -61 45.5t-93 70.5q-5 7 -5 10.5t5 11.5l152 234q6 8 13.5 8t40 -20.5t62 -50t42.5 -81.5q2 -7 2 -16
q-1 -52 -61.5 -128t-87.5 -84zM926 1423q-1 -70 -105 -181q-28 -31 -46 -32h-1q-19 0 -64 42t-96 75q-5 7 -5 10.5t5 11.5l152 234q6 8 13.5 8t40 -20.5t62 -50t42.5 -81.5q2 -7 2 -16z" />
    <glyph glyph-name="afii62964" unicode="&#x6a9;" horiz-adv-x="2129" arabic-form="final" 
d="M1387 80q-359 -130 -795 -130q-167 0 -264 14q-160 25 -228 96q-61 56 -61 150q1 100 35 292q7 37 19 42q13 3 20 -31.5t13 -61.5q16 -65 87 -97q180 -77 550 -80h4q61 2 132 6q501 42 726.5 145t307 201.5t112.5 220.5l76 290q8 31 42 113t56 123q23 41 29 45l1 1
q3 0 3 -13v-11q-15 -62 -61.5 -302.5t-53.5 -358.5t-8 -172q-9 -36 -18 -73.5t-30 -85.5t-45 -67q-24 -24 -37 -12q1 76 10 161.5t12 87.5q0 10 -3 12q-6 1 -12 -5q-94 -136 -159.5 -205.5t-181 -152.5t-278.5 -142zM2402 1615q32 27 308 213q702 471 876 598.5t219 173.5
q9 6 14 6t5 -10t-14.5 -49t-123.5 -174q-237 -183 -649 -465t-745 -474q-19 -11 -25 -11t-8 2q0 11 49 82q49 62 94 108z" />
    <glyph glyph-name="afii52305" unicode="&#x6a9;" horiz-adv-x="543" arabic-form="initial" 
d="M288 342q52 31 52 89.5t-54 90.5t-106 32q-8 0 -15 -1q-56 0 -110.5 -36t-54.5 -88.5t45 -85.5q42 -36 115.5 -36t127.5 35zM241 829q209 0 209 -196q0 -123 -46 -260.5t-107 -230.5q-100 -142 -224 -142q-102 0 -151 85q-51 81 -51 240q9 135 30 257q15 55 44 103
t43.5 71.5t23.5 38.5q66 62 559.5 535t563.5 573q6 3 11.5 3t5.5 -10q0 -40 -123 -245q-34 -84 -836 -825q36 3 48 3z" />
    <glyph glyph-name="afii52306" unicode="&#x6a9;" horiz-adv-x="175" arabic-form="medial" 
d="M478 546q-12 0 -28.5 -64t-26.5 -94q-69 -180 -110 -244q-94 -144 -243 -144q-91 0 -144 84.5t-55 239.5q0 3 11.5 120t24.5 154q12 75 50 127t43 59q33 27 449.5 436.5t539.5 591.5q24 39 32 39q3 -1 3 -9t-6 -35t-36 -101t-93 -174.5t-714 -750.5q21 -4 80.5 -26.5
t105 -60t72.5 -78t31.5 -49.5t13.5 -21zM64 628q-61 -28 -61 -106t33.5 -136.5t123.5 -58.5t154 69t64 134t-108 92q-57 15 -120 15t-86 -9z" />
    <glyph glyph-name="afii62967" unicode="&#x6af;" horiz-adv-x="2129" arabic-form="final" 
d="M1387 80q-359 -130 -795 -130q-167 0 -264 14q-160 25 -228 96q-61 56 -61 150q1 100 35 292q7 37 19 42q13 3 20 -31.5t13 -61.5q16 -65 87 -97q180 -77 550 -80h4q61 2 132 6q501 42 726.5 145t307 201.5t112.5 220.5l76 290q8 31 42 113t56 123q23 41 29 45l1 1
q3 0 3 -13v-11q-15 -62 -61.5 -302.5t-53.5 -358.5t-8 -172q-9 -36 -18 -73.5t-30 -85.5t-45 -67q-24 -24 -37 -12q1 76 10 161.5t12 87.5q0 10 -3 12q-6 1 -12 -5q-94 -136 -159.5 -205.5t-181 -152.5t-278.5 -142zM2402 1615q32 27 308 213q702 471 876 598.5t219 173.5
q9 6 14 6t5 -10t-14.5 -49t-123.5 -174q-237 -183 -649 -465t-745 -474q-19 -11 -25 -11t-8 2q0 11 49 82q49 62 94 108zM3531 2487q-33 -35 -119 -96.5t-284 -195.5h-1q-1 0 -1 9.5t42 59.5q101 82 251.5 184t152.5 102t2 -5t-43 -58z" />
    <glyph glyph-name="afii62965" unicode="&#x6af;" horiz-adv-x="543" arabic-form="initial" 
d="M927 1847q-46 -68 -344 -359h-1q-2 0 -2 3q0 5 4 15q6 22 26 57q80 92 338 350q6 4 8 4t2 -7t-31 -63zM288 342q52 31 52 89.5t-54 90.5t-106 32q-8 0 -15 -1q-56 0 -110.5 -36t-54.5 -88.5t45 -85.5q42 -36 115.5 -36t127.5 35zM241 829q209 0 209 -196
q0 -123 -46 -260.5t-107 -230.5q-100 -142 -224 -142q-102 0 -151 85q-51 81 -51 240q9 135 30 257q15 55 44 103t43.5 71.5t23.5 38.5q66 62 607.5 587.5t611.5 625.5q7 3 14 3t7 -12q0 -42 -76 -194q-34 -84 -983 -979q36 3 48 3z" />
    <glyph glyph-name="afii62966" unicode="&#x6af;" horiz-adv-x="175" arabic-form="medial" 
d="M836 1754q-46 -68 -344 -359h-1q-2 0 -2 3q-1 6 3 16q6 22 27 56q80 92 338 350q6 4 8 4t2 -7t-31 -63zM478 546q-12 0 -28.5 -64t-26.5 -94q-69 -180 -110 -244q-94 -144 -243 -144q-91 0 -144 84.5t-55 239.5q0 3 11.5 120t24.5 154q12 75 50 127t43 59
q33 27 483.5 475.5t573.5 630.5q24 39 32 39q3 -1 3 -9t-6 -35t-36 -101t-93 -174.5t-782 -828.5q21 -4 80.5 -26.5t105 -60t72.5 -78t31.5 -49.5t13.5 -21zM64 628q-61 -28 -61 -106t33.5 -136.5t123.5 -58.5t154 69t64 134t-108 92q-57 15 -120 15t-86 -9z" />
    <glyph glyph-name="afii52364" unicode="&#x6cc;" horiz-adv-x="925" arabic-form="final" 
d="M406 818q4 -4 -11 -44q-130 -277 -174 -411t-44 -258t91 -199t236.5 -75t253 48.5t178.5 108.5t109.5 124t39 96t-20 46t-49.5 24t-60 18t-64 20q-89 32 -89 151q0 75 54 185q19 25 41 25t28 -25q-3 -15 19.5 -30t84 -37t76.5 -34q49 -33 49 -122q0 -134 -52.5 -307.5
t-145.5 -301.5q-92 -140 -220 -214q-127 -88 -303 -88h-5q-180 2 -279 124q-78 107 -78 238q1 2 1 5q3 227 85.5 447t216.5 454q10 16 15 24.5t10 8.5h1q2 0 5 -1h1z" />
    <glyph glyph-name="afii62882" unicode="&#xfc5e;" arabic-form="isolated" 
d="M151 150q-22 -128 -107 -134q-36 2 -55 29q-31 -46 -82 -46q-64 0 -67 70q3 33 24.5 64.5t27.5 31.5t0.5 -15t-4.5 -30q0 -35 37 -39h7q36 0 55.5 28.5t25.5 44t9.5 4t6.5 -27.5q6 -33 42 -33q48 0 65 87q3 18 9.5 18t6.5 -18.5t-1 -33.5zM45 576q0 -12 13.5 -22
t22.5 -10q8 8 6.5 22t-17.5 18l-8 2q-10 0 -17 -10zM-141 291q85 41 126 79q86 80 90 128q-25 -14 -47 -4q-36 17 -37 45q0 33 51 82q44 42 92 42h5q36 -6 36 -58q-1 -3 -1 -7q-2 -46 -41 -108t-83 -107q-99 -100 -203 -124q-6 0 -5.5 8.5t6.5 12.5t11 11zM36 468
q-11 -46 -61.5 -46t-66.5 46q-3 10 -3 20q0 27 37.5 98.5t102 132.5t100 77.5t39.5 16.5h6q2 0 2 -1t-1.5 -4t-11.5 -8t-32.5 -21t-48.5 -38.5t-51 -49.5t-44.5 -54t-30.5 -54t-10.5 -50t19.5 -41t55 -24z" />
    <glyph glyph-name="afii62883" unicode="&#xfc5f;" arabic-form="isolated" 
d="M151 587q-22 -128 -107 -134q-36 2 -55 29q-31 -46 -82 -46q-64 0 -67 70q3 33 24.5 64.5t27.5 31.5t0.5 -15t-4.5 -30q0 -35 37 -39h7q36 0 55.5 28t25.5 43.5t9.5 4.5t6.5 -27q6 -33 42 -33q48 0 65 87q3 18 9.5 18t6.5 -18.5t-1 -33.5zM-148 89q107 66 211 123.5
t106 57.5t2 -9.5t-35 -72.5q-18 -18 -137.5 -84t-167.5 -102h-1q-6 0 -6 14t28 73zM-148 239q107 66 211 123.5t106 57.5t2 -9.5t-35 -72.5q-18 -18 -137.5 -84t-167.5 -102h-1q-6 0 -6 14t28 73z" />
    <glyph glyph-name="afii62884" unicode="&#xfc60;" arabic-form="isolated" 
d="M151 150q-22 -128 -107 -134q-36 2 -55 29q-31 -46 -82 -46q-64 0 -67 70q3 33 24.5 64.5t27.5 31.5t0 -15t-4 -30q0 -35 37 -39h7q36 1 56 29t25 44q6 16 9.5 4t6.5 -28q6 -33 42 -33q48 0 65 87q3 18 9.5 18t6.5 -18.5t-1 -33.5zM186 475h1q3 -1 3 -9t-29 -62
q-16 -16 -131 -82t-157 -97q-6 0 -6 12t24 63q117 75 295 175z" />
    <glyph glyph-name="afii62885" unicode="&#xfc61;" arabic-form="isolated" 
d="M151 150q-22 -128 -107 -134q-36 2 -55 29q-31 -46 -82 -46q-64 0 -67 70q3 33 24.5 64.5t27.5 31.5t0.5 -15t-4.5 -30q0 -35 37 -39h7q36 0 55.5 28.5t25.5 44t9.5 4t6.5 -27.5q6 -33 42 -33q48 0 65 87q3 18 9.5 18t6.5 -18.5t-1 -33.5zM55 554q0 -13 13 -23t23 -10
q13 19 5 29q-11 14 -22 14q-10 0 -19 -10zM-144 238q-3 0 -3 10.5t54.5 39.5t113 83.5t63.5 104.5q-24 -13 -46 -3.5t-31 21.5q-6 9 -6 20q0 33 55 88q40 39 83 39h9q36 -6 36 -59v-6q-2 -46 -42 -108q-129 -202 -286 -230z" />
    <glyph glyph-name="afii62886" unicode="&#xfc62;" arabic-form="isolated" 
d="M151 420q-22 -128 -107 -134q-36 2 -55 29q-31 -46 -82 -46q-64 0 -67 70q3 33 24.5 64.5t27.5 31.5t0.5 -15t-4.5 -30q0 -35 37 -39h7q36 0 55.5 28.5t25.5 44t9.5 4t6.5 -27.5q6 -33 42 -33q48 0 65 87q3 18 9.5 18t6.5 -18.5t-1 -33.5zM-146 90q105 72 209 129.5
t106 57.5t2 -9.5t-35 -72.5q-18 -18 -136.5 -87t-166.5 -105h-1q-6 0 -6 14t28 73z" />
    <glyph glyph-name="afii52399" unicode="&#x621;" horiz-adv-x="1173" arabic-form="isolated" 
d="M479 216q-138 52 -138 76q0 48 132 204q68 92 72 92q60 55 122 55q31 0 57.5 -21.5t26.5 -50t-16.5 -49t-31.5 -20.5t-40 14.5t-55 14.5t-65 -28t-35 -44q0 -38 45.5 -59.5t90 -21.5t103.5 28.5t96.5 51.5t46 20t8.5 -15q0 -22 -142 -124t-241 -210t-105 -108
q-43 -33 -56 -33t2 42t110 160l13 20v6z" />
    <glyph glyph-name="afii62753" unicode="&#x622;" horiz-adv-x="283" arabic-form="final" 
d="M372 1372q-87 -584 -87 -807q-8 -100 -45 -170t-84 -70q3 101 49.5 430.5t71.5 425.5q71 207 87 207q6 0 8 -16zM32 1789q-8 -2 -15 -2t-7 7.5t14.5 38.5t61.5 87q48 56 124 114q126 96 259 97h7q36 -3 73 -3t81 1q142 3 302 141q12 10 46 46t43.5 36t9.5 -17t-16 -49
q-61 -121 -157 -217.5t-182 -143.5t-151 -48.5t-87 -1.5h-30q-6 -1 -54 1q-21 1 -40 1q-26 0 -48 -1q-116 -6 -234 -87z" />
    <glyph glyph-name="afii62754" unicode="&#x623;" horiz-adv-x="300" arabic-form="final" 
d="M388 1372q-87 -584 -87 -807q-8 -100 -45 -170t-84 -70q3 101 49.5 430.5t71.5 425.5q71 207 87 207q6 0 8 -16zM233 1493q0 24 79 103v3q-68 27 -68 44v2q1 23 75 96q61 68 82 68l1 -1q35 -1 48.5 -13t13.5 -19v-9q-2 -15 -11.5 -24t-16.5 -9h-1q-7 0 -20.5 9.5t-29 9.5
t-33.5 -12t-18 -25.5t24.5 -27.5t54 -14t70 21t43.5 21h4q2 0 2 -4v-8q-2 -10 -77 -55t-129.5 -95t-60.5 -50q-21 -15 -26.5 -15t-5.5 4z" />
    <glyph glyph-name="afii62755" unicode="&#x624;" horiz-adv-x="535" arabic-form="final" 
d="M518 780q41 -52 45 -98.5t4 -89t-19 -109.5t-55.5 -156t-77 -152t-69 -85t-123 -56t-162.5 -34q-13 0 -13 3q0 13 87 67.5t146 101.5q135 108 172 220q-47 -21 -77 -21q-94 0 -134.5 36.5t-40.5 71t12.5 72.5t47.5 111.5t76.5 121.5t77.5 48q62 0 103 -52zM225 942
q0 24 79 103v3q-68 27 -68 44v2q1 23 75 96q61 68 82 68l1 -1q35 -1 48.5 -13t13.5 -19v-9q-2 -15 -11.5 -24t-16.5 -9h-1q-7 0 -20.5 9.5t-29 9.5t-33.5 -12t-18 -25.5t24.5 -27.5t54 -14t70 21t43.5 21h4q2 0 2 -4v-8q-2 -10 -77 -55t-129.5 -95t-60.5 -50
q-21 -15 -26.5 -15t-5.5 4z" />
    <glyph glyph-name="afii62756" unicode="&#x625;" horiz-adv-x="276" arabic-form="final" 
d="M364 1372q-87 -584 -87 -807q-8 -100 -45 -170t-84 -70q3 101 49.5 430.5t71.5 425.5q71 207 87 207q6 0 8 -16zM13 -579q0 24 79 103v3q-68 27 -68 44v2q1 23 75 96q61 68 82 68l1 -1q35 -1 48.5 -13t13.5 -19v-9q-2 -15 -11.5 -24t-16.5 -9h-1q-7 0 -20.5 9.5t-29 9.5
t-33.5 -12t-18 -25.5t24.5 -27.5t54 -14t70 21t43.5 21h4q2 0 2 -4v-8q-2 -10 -77 -55t-129.5 -95t-60.5 -50q-21 -15 -26.5 -15t-5.5 4z" />
    <glyph glyph-name="afii62759" unicode="&#x626;" horiz-adv-x="925" arabic-form="final" 
d="M406 818q4 -4 -11 -44q-130 -277 -174 -411t-44 -258t91 -199t236.5 -75t253 48.5t178.5 108.5t109.5 124t39 96t-20 46t-49.5 24t-60 18t-64 20q-89 32 -89 151q0 75 54 185q19 25 41 25t28 -25q-3 -15 19.5 -30t84 -37t76.5 -34q49 -33 49 -122q0 -134 -52.5 -307.5
t-145.5 -301.5q-92 -140 -220 -214q-127 -88 -303 -88h-5q-180 2 -279 124q-78 107 -78 238q1 2 1 5q3 227 85.5 447t216.5 454q10 16 15 24.5t10 8.5h1q2 0 5 -1h1zM395 975q0 24 79 103v3q-68 27 -68 44v2q1 23 75 96q61 68 82 68l1 -1q35 -1 48.5 -13t13.5 -19v-9
q-2 -15 -11.5 -24t-16.5 -9h-1q-7 0 -20.5 9.5t-29 9.5t-33.5 -12t-18 -25.5t24.5 -27.5t54 -14t70 21t43.5 21h4q2 0 2 -4v-8q-2 -10 -77 -55t-129.5 -95t-60.5 -50q-21 -15 -26.5 -15t-5.5 4z" />
    <glyph glyph-name="afii62757" unicode="&#x626;" horiz-adv-x="379" arabic-form="initial" 
d="M-129 325q41 177 101 240q16 17 28 20v-66q0 -126 67 -176q31 -20 51 -20q63 0 88.5 38.5t40.5 83t29 44.5q14 -1 14 -19v-24q-2 -42 -34 -164q-73 -274 -223 -282q-81 3 -122 86t-41 201q0 14 1 29v9zM167 1060q0 24 79 103v3q-68 27 -68 44v2q1 23 75 96q61 68 82 68
l1 -1q35 -1 48.5 -13t13.5 -19v-9q-2 -15 -11.5 -24t-16.5 -9h-1q-7 0 -20.5 9.5t-29 9.5t-33.5 -12t-18 -25.5t24.5 -27.5t54 -14t70 21t43.5 21h4q2 0 2 -4v-8q-2 -10 -77 -55t-129.5 -95t-60.5 -50q-21 -15 -26.5 -15t-5.5 4z" />
    <glyph glyph-name="afii62758" unicode="&#x626;" horiz-adv-x="502" arabic-form="medial" 
d="M502 286q-22 4 -39 4q-73 0 -177 -159q-86 -131 -193 -131h-1q-108 0 -164.5 96t-56.5 229q60 199 129 239v-9q0 -233 197 -233h3q80 0 140 52t89 80q40 28 71 28h2q22 -24 23 -92v-5q0 -64 -23 -99zM202 937q0 24 79 103v3q-68 27 -68 44v2q1 23 75 96q61 68 82 68l1 -1
q35 -1 48.5 -13t13.5 -19v-9q-2 -15 -11.5 -24t-16.5 -9h-1q-7 0 -20.5 9.5t-29 9.5t-33.5 -12t-18 -25.5t24.5 -27.5t54 -14t70 21t43.5 21h4q2 0 2 -4v-8q-2 -10 -77 -55t-129.5 -95t-60.5 -50q-21 -15 -26.5 -15t-5.5 4z" />
    <glyph glyph-name="afii62763" unicode="&#x628;" horiz-adv-x="2062" arabic-form="final" 
d="M2062 429q-54 12 -78 12t-38.5 -13t-41.5 -50q-144 -216 -514 -296q-256 -55 -602 -78q-114 -7 -210 -7q-375 0 -482 111q-61 56 -61 150q1 100 35 292q7 37 19 42q13 3 20 -31.5t13 -61.5q16 -65 87 -97q192 -82 617.5 -82t755 87t403.5 189q12 21 25 21h2q25 -3 20 -22
l-15 -37h45q18 -35 18 -67t-18 -62zM1064 -502q0 -43 -40 -105t-98 -101q-19 -13 -27.5 -13t-62.5 46t-78.5 61.5t-25.5 20.5q0 4 6 14l160 244q6 9 14 9q8 -1 22 -9q106 -64 127 -144q3 -11 3 -23z" />
    <glyph glyph-name="afii62761" unicode="&#x628;" horiz-adv-x="339" arabic-form="initial" 
d="M-129 325q41 177 101 240q16 17 28 20v-66q0 -126 67 -176q31 -20 51 -20q63 0 88.5 38.5t40.5 83t29 44.5q14 -1 14 -19v-24q-2 -42 -34 -164q-73 -274 -223 -282q-81 3 -122 86t-41 201q0 14 1 29v9zM236 -688q0 -43 -40 -105t-98 -101q-19 -13 -27.5 -13t-62.5 46
t-78.5 61.5t-25.5 20.5q0 4 6 14l160 244q6 9 14 9q8 -1 22 -9q106 -64 127 -144q3 -11 3 -23z" />
    <glyph glyph-name="afii62762" unicode="&#x628;" horiz-adv-x="502" arabic-form="medial" 
d="M502 286q-22 4 -39 4q-73 0 -177 -159q-86 -131 -193 -131h-1q-108 0 -164.5 96t-56.5 229q60 199 129 239v-9q0 -233 197 -233h3q80 0 140 52t89 80q40 28 71 28h2q22 -24 23 -92v-5q0 -64 -23 -99zM271 -961q0 -43 -40 -105t-98 -101q-19 -13 -27.5 -13t-62.5 46
t-78.5 61.5t-25.5 20.5q0 4 6 14l160 244q6 9 14 9q8 -1 22 -9q106 -64 127 -144q3 -11 3 -23z" />
    <glyph glyph-name="afii62764" unicode="&#x629;" horiz-adv-x="475" arabic-form="final" 
d="M234 -59q-14 0 -14 13.5t14.5 47.5t82.5 114t158 131q37 -62 37 -123.5t-37 -123.5q-17 1 -33 1q-105 0 -196 -55q-6 -5 -12 -5zM413.491 716.225l1.82422 -12.7695v-12.7695l-0.912109 -8.20898l-2.73535 -10.9453l-0.912109 -5.47266l-6.38379 -18.2422
q-10.9434 -23.7148 -15.5029 -28.7314t-4.55957 -6.84082l-10.9424 -16.418q-7.2959 -10.9453 -9.12012 -14.1377q-1.82324 -3.19238 -8.20703 -9.57715l-14.5908 -18.2422q-1.82422 -0.912109 -7.29492 -9.12109l-25.5342 -24.627q-15.5029 -12.7695 -27.3584 -16.418
h-6.38281q-9.11914 0 -51.9805 37.8525q-42.8604 37.8525 -66.5703 52.9023t-25.9893 17.7861q-2.28027 2.73633 -2.28027 6.38477t4.55957 10.9453l139.524 212.521q0 0.912109 4.10352 5.47266q4.10449 4.56055 7.2959 4.56055t6.83984 -3.64844l6.38281 -2.73633
q1.82422 -1.82422 3.64746 -2.28027q1.82422 -0.456055 3.64844 -1.82422q1.82324 -1.36816 4.55957 -2.73633q2.73535 -1.36816 9.11914 -5.92871t25.5342 -15.9619t43.3164 -43.7812t24.166 -41.957t2.73535 -15.0498zM697.101 714.4q-0.912109 -63.8477 -95.752 -165.092
q-26.4463 -28.2754 -48.333 -28.2754h-4.55957q-4.55957 0 -50.6113 40.5889q-46.0527 40.5889 -85.2656 65.2158q-4.55957 6.38477 -4.55957 9.57715t4.55957 10.4893l138.613 213.434q5.47168 7.29688 12.3105 7.29688q6.83984 0 36.4775 -18.6982t56.5391 -45.6055
q26.9023 -26.9072 38.7568 -74.3369q1.82422 -6.38477 1.82422 -14.5938z" />
    <glyph glyph-name="afii62767" unicode="&#x62a;" horiz-adv-x="2062" arabic-form="final" 
d="M2062 429q-54 12 -78 12t-38.5 -13t-41.5 -50q-144 -216 -514 -296q-256 -55 -602 -78q-114 -7 -210 -7q-375 0 -482 111q-61 56 -61 150q1 100 35 292q7 37 19 42q13 3 20 -31.5t13 -61.5q16 -65 87 -97q192 -82 617.5 -82t755 87t403.5 189q12 21 25 21h2q25 -3 20 -22
l-15 -37h45q18 -35 18 -67t-18 -62zM911 1154l2 -14v-14l-1 -9l-3 -12l-1 -6l-7 -20q-12 -26 -17 -31.5t-5 -7.5l-12 -18q-8 -12 -10 -15.5t-9 -10.5l-16 -20q-2 -1 -8 -10l-28 -27q-17 -14 -30 -18h-7q-10 0 -57 41.5t-73 58t-28.5 19.5t-2.5 7t5 12l153 233q0 1 4.5 6t8 5
t7.5 -4l7 -3q2 -2 4 -2.5t4 -2t5 -3t10 -6.5t28 -17.5t47.5 -48t26.5 -46t3 -16.5zM1222 1152q-1 -70 -105 -181q-29 -31 -53 -31h-5q-5 0 -55.5 44.5t-93.5 71.5q-5 7 -5 10.5t5 11.5l152 234q6 8 13.5 8t40 -20.5t62 -50t42.5 -81.5q2 -7 2 -16z" />
    <glyph glyph-name="afii62765" unicode="&#x62a;" horiz-adv-x="334" arabic-form="initial" 
d="M-129 325q41 177 101 240q16 17 28 20v-66q0 -126 67 -176q31 -20 51 -20q63 0 88.5 38.5t40.5 83t29 44.5q14 -1 14 -19v-24q-2 -42 -34 -164q-73 -274 -223 -282q-81 3 -122 86t-41 201q0 14 1 29v9zM451 1113l2 -14v-14l-1 -9l-3 -12l-1 -6l-7 -20q-12 -26 -17 -31.5
t-5 -7.5l-12 -18q-8 -12 -10 -15.5t-9 -10.5l-16 -20q-2 -1 -8 -10l-28 -27q-17 -14 -30 -18h-7q-10 0 -57 41.5t-73 58t-28.5 19.5t-2.5 7t5 12l153 233q0 1 4.5 6t8 5t7.5 -4l7 -3q2 -2 4 -2.5t4 -2t5 -3t10 -6.5t28 -17.5t47.5 -48t26.5 -46t3 -16.5zM762 1111
q-1 -70 -105 -181q-29 -31 -53 -31h-5q-5 0 -55.5 44.5t-93.5 71.5q-5 7 -5 10.5t5 11.5l152 234q6 8 13.5 8t40 -20.5t62 -50t42.5 -81.5q2 -7 2 -16z" />
    <glyph glyph-name="afii62766" unicode="&#x62a;" horiz-adv-x="502" arabic-form="medial" 
d="M502 286q-22 4 -39 4q-73 0 -177 -159q-86 -131 -193 -131h-1q-108 0 -164.5 96t-56.5 229q60 199 129 239v-9q0 -233 197 -233h3q80 0 140 52t89 80q40 28 71 28h2q22 -24 23 -92v-5q0 -64 -23 -99zM298 1674l2 -14v-14l-1 -9l-3 -12l-1 -6l-7 -20q-12 -26 -17 -31.5
t-5 -7.5l-12 -18q-8 -12 -10 -15.5t-9 -10.5l-16 -20q-2 -1 -8 -10l-28 -27q-17 -14 -30 -18h-7q-10 0 -57 41.5t-73 58t-28.5 19.5t-2.5 7t5 12l153 233q0 1 4.5 6t8 5t7.5 -4l7 -3q2 -2 4 -2.5t4 -2t5 -3t10 -6.5t28 -17.5t47.5 -48t26.5 -46t3 -16.5zM609 1672
q-1 -70 -105 -181q-29 -31 -53 -31h-5q-5 0 -55.5 44.5t-93.5 71.5q-5 7 -5 10.5t5 11.5l152 234q6 8 13.5 8t40 -20.5t62 -50t42.5 -81.5q2 -7 2 -16z" />
    <glyph glyph-name="afii62770" unicode="&#x62b;" horiz-adv-x="2062" arabic-form="final" 
d="M2062 429q-54 12 -78 12t-38.5 -13t-41.5 -50q-144 -216 -514 -296q-256 -55 -602 -78q-114 -7 -210 -7q-375 0 -482 111q-61 56 -61 150q1 100 35 292q7 37 19 42q13 3 20 -31.5t13 -61.5q16 -65 87 -97q192 -82 617.5 -82t755 87t403.5 189q12 21 25 21h2q25 -3 20 -22
l-15 -37h45q18 -35 18 -67t-18 -62zM934 1123q0 -25 -6 -37t-6.5 -15t-2.5 -5l-6 -12l-29 -44q-10 -16 -24 -32q-51 -62 -78 -62h-1q-8 0 -14 6l-93 76q-44 31 -49 35t-5 8.5t5 12.5l153 233q5 7 11 7t13 -3q132 -68 132 -168zM957 1296h-9q-8 0 -61 45.5t-93 70.5
q-5 7 -5 10.5t5 11.5l152 234q6 8 13.5 8t40 -20.5t62 -50t42.5 -81.5q2 -7 2 -16q-1 -52 -61.5 -128t-87.5 -84zM1244 1147q-1 -70 -105 -181q-28 -31 -46 -32h-1q-19 0 -64 42t-96 75q-5 7 -5 10.5t5 11.5l152 234q6 8 13.5 8t40 -20.5t62 -50t42.5 -81.5q2 -7 2 -16z" />
    <glyph glyph-name="afii62768" unicode="&#x62b;" horiz-adv-x="357" arabic-form="initial" 
d="M-129 325q41 177 101 240q16 17 28 20v-66q0 -126 67 -176q31 -20 51 -20q63 0 88.5 38.5t40.5 83t29 44.5q14 -1 14 -19v-24q-2 -42 -34 -164q-73 -274 -223 -282q-81 3 -122 86t-41 201q0 14 1 29v9zM411 1012q0 -25 -6 -37t-6.5 -15t-2.5 -5l-6 -12l-29 -44
q-10 -16 -24 -32q-51 -62 -78 -62h-1q-8 0 -14 6l-93 76q-44 31 -49 35t-5 8.5t5 12.5l153 233q5 7 11 7t13 -3q132 -68 132 -168zM434 1185h-9q-8 0 -61 45.5t-93 70.5q-5 7 -5 10.5t5 11.5l152 234q6 8 13.5 8t40 -20.5t62 -50t42.5 -81.5q2 -7 2 -16q-1 -52 -61.5 -128
t-87.5 -84zM721 1036q-1 -70 -105 -181q-28 -31 -46 -32h-1q-19 0 -64 42t-96 75q-5 7 -5 10.5t5 11.5l152 234q6 8 13.5 8t40 -20.5t62 -50t42.5 -81.5q2 -7 2 -16z" />
    <glyph glyph-name="afii62769" unicode="&#x62b;" horiz-adv-x="502" arabic-form="medial" 
d="M502 286q-22 4 -39 4q-73 0 -177 -159q-86 -131 -193 -131h-1q-108 0 -164.5 96t-56.5 229q60 199 129 239v-9q0 -233 197 -233h3q80 0 140 52t89 80q40 28 71 28h2q22 -24 23 -92v-5q0 -64 -23 -99zM491 1645q0 -25 -6 -37t-6.5 -15t-2.5 -5l-6 -12l-29 -44
q-10 -16 -24 -32q-51 -62 -78 -62h-1q-8 0 -14 6l-93 76q-44 31 -49 35t-5 8.5t5 12.5l153 233q5 7 11 7t13 -3q132 -68 132 -168zM514 1818h-9q-8 0 -61 45.5t-93 70.5q-5 7 -5 10.5t5 11.5l152 234q6 8 13.5 8t40 -20.5t62 -50t42.5 -81.5q2 -7 2 -16q-1 -52 -61.5 -128
t-87.5 -84zM801 1669q-1 -70 -105 -181q-28 -31 -46 -32h-1q-19 0 -64 42t-96 75q-5 7 -5 10.5t5 11.5l152 234q6 8 13.5 8t40 -20.5t62 -50t42.5 -81.5q2 -7 2 -16z" />
    <glyph glyph-name="afii62773" unicode="&#x62c;" horiz-adv-x="544" arabic-form="final" 
d="M507 1030q89 14 184 14t196 -17q37 -7 37 -35q0 -12 -7 -29q-25 -51 -110 -96.5t-248 -182t-277 -324.5q-117 -209 -117 -375.5t105 -262.5t326 -96q157 0 293 49t229 117q66 43 118 96.5t99 105.5q36 45 51 45q1 -1 4 -1.5t3 -9.5t-34 -53q-34 -52 -78 -113
q-375 -533 -843 -544q-221 10 -325 129t-104 314q7 266 176 564q161 261 446 490q36 29 66 53t35 30q3 3 3 6q0 17 -121 23q-38 2 -95 2t-105 -8q-35 -6 -17 30.5t61.5 101.5t85.5 112q15 -23 15 -46.5t-15 -47.5zM749 424q3 0 44.5 -29.5t79.5 -63t43.5 -58.5t5.5 -40
q0 -76 -76 -161q-56 -62 -80 -62q-9 0 -14 8q-21 26 -71 66l-83 67q-5 4 -5 11t71 133.5t84 128.5h1z" />
    <glyph glyph-name="afii62771" unicode="&#x62c;" horiz-adv-x="879" arabic-form="initial" 
d="M257 322q115 11 178 41q125 60 211 197q-23 5 -50 14t-75 23q-15 4 -29 4q-33 0 -67 -22q-48 -32 -77.5 -88t-49.5 -91.5t-41 -77.5zM166 0q-157 3 -225.5 99.5t-69.5 225.5q11 42 21 83q42 145 108 157q0 -114 56.5 -178.5t144.5 -64.5q14 17 39 65l33 67q7 12 22 42
q119 234 248 234q26 0 79.5 -19t96 -19t65.5 7q19 0 19 -10q0 -58 -70 -135q-44 -57 -117 -186.5t-115 -182.5q-140 -176 -335 -185zM367 -660q0 -43 -40 -105t-98 -101q-19 -13 -27.5 -13t-62.5 46t-78.5 61.5t-25.5 20.5q0 4 6 14l160 244q6 9 14 9q8 -1 22 -9
q106 -64 127 -144q3 -11 3 -23z" />
    <glyph glyph-name="afii62772" unicode="&#x62c;" horiz-adv-x="306" arabic-form="medial" 
d="M223 469q-37 0 -37 26q0 8 3 19q35 106 117 194q14 -24 14 -47t-14 -46q-16 -16 -20 -33q3 -2 32.5 -2t152.5 31t147 38q16 5 27 5q27 0 27 -27q0 -38 -22.5 -66t-40 -59t-46 -85.5t-84.5 -149.5t-138 -174.5t-193 -92.5h-15q-159 0 -217 112q-39 75 -45 209q5 87 95 224
q22 34 34 20q18 -245 186 -245q94 0 186 54.5t131 121.5q9 15 -5 15q-135 -42 -275 -42zM303 -603q0 -43 -40 -105t-98 -101q-19 -13 -27.5 -13t-62.5 46t-78.5 61.5t-25.5 20.5q0 4 6 14l160 244q6 9 14 9q8 -1 22 -9q106 -64 127 -144q3 -11 3 -23z" />
    <glyph glyph-name="afii62776" unicode="&#x62d;" horiz-adv-x="544" arabic-form="final" 
d="M507 1030q89 14 184 14t196 -17q37 -7 37 -35q0 -12 -7 -29q-25 -51 -110 -96.5t-248 -182t-277 -324.5q-117 -209 -117 -375.5t105 -262.5t326 -96q157 0 293 49t229 117q66 43 118 96.5t99 105.5q36 45 51 45q1 -1 4 -1.5t3 -9.5t-34 -53q-34 -52 -78 -113
q-375 -533 -843 -544q-221 10 -325 129t-104 314q7 266 176 564q161 261 446 490q36 29 66 53t35 30q3 3 3 6q0 17 -121 23q-38 2 -95 2t-105 -8q-35 -6 -17 30.5t61.5 101.5t85.5 112q15 -23 15 -46.5t-15 -47.5z" />
    <glyph glyph-name="afii62774" unicode="&#x62d;" horiz-adv-x="826" arabic-form="initial" 
d="M257 322q115 11 178 41q125 60 211 197q-23 5 -50 14t-75 23q-15 4 -29 4q-33 0 -67 -22q-48 -32 -77.5 -88t-49.5 -91.5t-41 -77.5zM166 0q-157 3 -225.5 99.5t-69.5 225.5q11 42 21 83q42 145 108 157q0 -114 56.5 -178.5t144.5 -64.5q14 17 39 65l33 67q7 12 22 42
q119 234 248 234q26 0 79.5 -19t96 -19t65.5 7q19 0 19 -10q0 -58 -70 -135q-44 -57 -117 -186.5t-115 -182.5q-140 -176 -335 -185z" />
    <glyph glyph-name="afii62775" unicode="&#x62d;" horiz-adv-x="306" arabic-form="medial" 
d="M223 469q-37 0 -37 26q0 8 3 19q35 106 117 194q14 -24 14 -47t-14 -46q-16 -16 -20 -33q3 -2 32.5 -2t152.5 31t147 38q16 5 27 5q27 0 27 -27q0 -38 -22.5 -66t-40 -59t-46 -85.5t-84.5 -149.5t-138 -174.5t-193 -92.5h-15q-159 0 -217 112q-39 75 -45 209q5 87 95 224
q22 34 34 20q18 -245 186 -245q94 0 186 54.5t131 121.5q9 15 -5 15q-135 -42 -275 -42z" />
    <glyph glyph-name="afii62779" unicode="&#x62e;" horiz-adv-x="544" arabic-form="final" 
d="M507 1030q89 14 184 14t196 -17q37 -7 37 -35q0 -12 -7 -29q-25 -51 -110 -96.5t-248 -182t-277 -324.5q-117 -209 -117 -375.5t105 -262.5t326 -96q157 0 293 49t229 117q66 43 118 96.5t99 105.5q36 45 51 45q1 -1 4 -1.5t3 -9.5t-34 -53q-34 -52 -78 -113
q-375 -533 -843 -544q-221 10 -325 129t-104 314q7 266 176 564q161 261 446 490q36 29 66 53t35 30q3 3 3 6q0 17 -121 23q-38 2 -95 2t-105 -8q-35 -6 -17 30.5t61.5 101.5t85.5 112q15 -23 15 -46.5t-15 -47.5zM664 1740q0 -43 -40 -105t-98 -101q-19 -13 -27.5 -13
t-62.5 46t-78.5 61.5t-25.5 20.5q0 4 6 14l160 244q6 9 14 9q8 -1 22 -9q106 -64 127 -144q3 -11 3 -23z" />
    <glyph glyph-name="afii62777" unicode="&#x62e;" horiz-adv-x="802" arabic-form="initial" 
d="M257 322q115 11 178 41q125 60 211 197q-23 5 -50 14t-75 23q-15 4 -29 4q-33 0 -67 -22q-48 -32 -77.5 -88t-49.5 -91.5t-41 -77.5zM166 0q-157 3 -225.5 99.5t-69.5 225.5q11 42 21 83q42 145 108 157q0 -114 56.5 -178.5t144.5 -64.5q14 17 39 65l33 67q7 12 22 42
q119 234 248 234q26 0 79.5 -19t96 -19t65.5 7q19 0 19 -10q0 -58 -70 -135q-44 -57 -117 -186.5t-115 -182.5q-140 -176 -335 -185zM663 1409q0 -43 -40 -105t-98 -101q-19 -13 -27.5 -13t-62.5 46t-78.5 61.5t-25.5 20.5q0 4 6 14l160 244q6 9 14 9q8 -1 22 -9
q106 -64 127 -144q3 -11 3 -23z" />
    <glyph glyph-name="afii62778" unicode="&#x62e;" horiz-adv-x="306" arabic-form="medial" 
d="M223 469q-37 0 -37 26q0 8 3 19q35 106 117 194q14 -24 14 -47t-14 -46q-16 -16 -20 -33q3 -2 32.5 -2t152.5 31t147 38q16 5 27 5q27 0 27 -27q0 -38 -22.5 -66t-40 -59t-46 -85.5t-84.5 -149.5t-138 -174.5t-193 -92.5h-15q-159 0 -217 112q-39 75 -45 209q5 87 95 224
q22 34 34 20q18 -245 186 -245q94 0 186 54.5t131 121.5q9 15 -5 15q-135 -42 -275 -42zM453 1372q0 -43 -40 -105t-98 -101q-19 -13 -27.5 -13t-62.5 46t-78.5 61.5t-25.5 20.5q0 4 6 14l160 244q6 9 14 9q8 -1 22 -9q106 -64 127 -144q3 -11 3 -23z" />
    <glyph glyph-name="afii62780" unicode="&#x62f;" horiz-adv-x="513" arabic-form="final" 
d="M-60 -51h-14.5t-11.5 7t22 22q122 72 220.5 142.5t161.5 150t116 187.5t96 202q9 16 21 16t12 -12t-23 -66.5t-27 -113.5v-3q-23 -69 -87 -187q-84 -141 -125 -189q-73 -92 -160.5 -115t-142.5 -32t-58 -9z" />
    <glyph glyph-name="afii62781" unicode="&#x630;" horiz-adv-x="514" arabic-form="final" 
d="M-59 -51h-14.5t-11.5 7t22 22q122 72 220.5 142.5t161.5 150t116 187.5t96 202q9 16 21 16t12 -12t-23 -66.5t-27 -113.5v-3q-23 -69 -87 -187q-84 -141 -125 -189q-73 -92 -160.5 -115t-142.5 -32t-58 -9zM638 1387q0 -43 -40 -105t-98 -101q-19 -13 -27.5 -13t-62.5 46
t-78.5 61.5t-25.5 20.5q0 4 6 14l160 244q6 9 14 9q8 -1 22 -9q106 -64 127 -144q3 -11 3 -23z" />
    <glyph glyph-name="afii62782" unicode="&#x631;" horiz-adv-x="855" arabic-form="final" 
d="M-312 -310q-23 -9 -32.5 -9t-9.5 6t24 21.5t112 72t157 113t154.5 152.5t214.5 280t172 242q172 232 375 303q45 -61 45 -136t-45 -165q-187 -28 -333 -168q-84 -80 -176.5 -204.5t-176 -208t-227 -172.5t-254.5 -127z" />
    <glyph glyph-name="afii62783" unicode="&#x632;" horiz-adv-x="855" arabic-form="final" 
d="M-312 -310q-23 -9 -32.5 -9t-9.5 6t24 21.5t112 72t157 113t154.5 152.5t214.5 280t172 242q172 232 375 303q45 -61 45 -136t-45 -165q-187 -28 -333 -168q-84 -80 -176.5 -204.5t-176 -208t-227 -172.5t-254.5 -127zM750 1521q0 -43 -40 -105t-98 -101
q-19 -13 -27.5 -13t-62.5 46t-78.5 61.5t-25.5 20.5q0 4 6 14l160 244q6 9 14 9q8 -1 22 -9q106 -64 127 -144q3 -11 3 -23z" />
    <glyph glyph-name="afii62786" unicode="&#x633;" horiz-adv-x="1692" arabic-form="final" 
d="M1245 647l-1 111l-5 114q0 75 66 75q42 -6 77 -6q68 0 100 45q25 31 49 7q18 -7 33 -7q42 0 65 53q4 13 12.5 13t19.5 -9q12 -4 31 1q14 -26 14 -57.5t-14 -68.5q-28 -24 -55 -32t-34 -6q-8 -4 -16 -10q-35 -28 -94 -28q-34 -29 -150 -65l-4 -42q-45 -532 -295 -889
q-243 -329 -584 -330q-166 9 -280 114t-120 297q4 306 193 671l36 74q16 5 6.5 -32.5t-35.5 -92t-61.5 -187.5t-35.5 -219v-9q16 -150 123 -220.5t252 -77.5q195 0 375 104q134 89 215 223q117 178 117 486z" />
    <glyph glyph-name="afii62784" unicode="&#x633;" horiz-adv-x="786" arabic-form="initial" 
d="M750.5 587q13.5 -1 33.5 12.5t45 73.5t36 60t11 -14.5t-3 -32.5q-42 -182 -118 -244q-33 -26 -85 -40q-100 -110 -176 -116q-18 -2 -46.5 -4t-57 -22t-107.5 -131q-87 -129 -204.5 -129t-171.5 108q-36 87 -36 195v22q11 167 45 249q36 82 68 82q7 0 16 -13q0 -46 2 -91
t21.5 -103t65.5 -94q48 -32 137 -32h5q93 1 150 66t80 71t43 2t52.5 -4t73.5 36t57 64.5t20.5 33t17 0.5t26 -5z" />
    <glyph glyph-name="afii62785" unicode="&#x633;" horiz-adv-x="862" arabic-form="medial" 
d="M492 270l-45 5h-2q-65 0 -112 -78.5t-114 -137.5t-133 -59h-2q-113 2 -163 98t-50 227q63 225 129 240v-9q0 -184 119 -222q41 -14 63 -14h24q69 0 107.5 24.5t60 43.5t50.5 42.5t54 21.5t38.5 -9.5t33.5 -7.5q63 10 106 84q7 10 10.5 10t9.5 -8t16 -8h12q52 0 92 88
q4 9 8 11h1q5 0 12.5 -6.5t18.5 -6.5t26 10q11 -27 11 -58.5t-11 -67.5q-25 -21 -88 -48q-22 -17 -40 -33q-51 -46 -80.5 -48.5t-71.5 -43t-88 -40.5h-2z" />
    <glyph glyph-name="afii62789" unicode="&#x634;" horiz-adv-x="1692" arabic-form="final" 
d="M1245 647l-1 111l-5 114q0 75 66 75q42 -6 77 -6q68 0 100 45q25 31 49 7q18 -7 33 -7q42 0 65 53q4 13 12.5 13t19.5 -9q12 -4 31 1q14 -26 14 -57.5t-14 -68.5q-28 -24 -55 -32t-34 -6q-8 -4 -16 -10q-35 -28 -94 -28q-34 -29 -150 -65l-4 -42q-45 -532 -295 -889
q-243 -329 -584 -330q-166 9 -280 114t-120 297q4 306 193 671l36 74q16 5 6.5 -32.5t-35.5 -92t-61.5 -187.5t-35.5 -219v-9q16 -150 123 -220.5t252 -77.5q195 0 375 104q134 89 215 223q117 178 117 486zM1098 1606q0 -25 -6 -37t-6.5 -15t-2.5 -5l-6 -12l-29 -44
q-10 -16 -24 -32q-51 -62 -78 -62h-1q-8 0 -14 6l-93 76q-44 31 -49 35t-5 8.5t5 12.5l153 233q5 7 11 7t13 -3q132 -68 132 -168zM1121 1779h-9q-8 0 -61 45.5t-93 70.5q-5 7 -5 10.5t5 11.5l152 234q6 8 13.5 8t40 -20.5t62 -50t42.5 -81.5q2 -7 2 -16q-1 -52 -61.5 -128
t-87.5 -84zM1408 1630q-1 -70 -105 -181q-28 -31 -46 -32h-1q-19 0 -64 42t-96 75q-5 7 -5 10.5t5 11.5l152 234q6 8 13.5 8t40 -20.5t62 -50t42.5 -81.5q2 -7 2 -16z" />
    <glyph glyph-name="afii62787" unicode="&#x634;" horiz-adv-x="786" arabic-form="initial" 
d="M750.5 587q13.5 -1 33.5 12.5t45 73.5t36 60t11 -14.5t-3 -32.5q-42 -182 -118 -244q-33 -26 -85 -40q-100 -110 -176 -116q-18 -2 -46.5 -4t-57 -22t-107.5 -131q-87 -129 -204.5 -129t-171.5 108q-36 87 -36 195v22q11 167 45 249q36 82 68 82q7 0 16 -13q0 -46 2 -91
t21.5 -103t65.5 -94q48 -32 137 -32h5q93 1 150 66t80 71t43 2t52.5 -4t73.5 36t57 64.5t20.5 33t17 0.5t26 -5zM534.331 1282.99q0 -24.2451 -5.64062 -35.8828q-5.63965 -11.6367 -6.11035 -14.5469q-0.469727 -2.90918 -2.34961 -4.84863l-5.64062 -11.6377
l-27.2617 -42.6709q-9.40039 -15.5166 -22.5615 -31.0332q-47.9434 -60.126 -73.3252 -60.126h-0.939453q-7.52051 0 -13.1611 5.81836l-87.4258 73.7041q-41.3633 30.0635 -46.0635 33.9424t-4.7002 8.24316t4.7002 12.1221l143.83 225.961q4.7002 6.78809 10.3408 6.78809
q5.63965 0 12.2207 -2.90918q124.088 -65.9453 124.088 -162.924zM555.953 1450.76h-8.46094q-7.52051 0 -57.3438 44.126q-49.8232 44.125 -87.4258 68.3701q-4.7002 6.78809 -4.7002 10.1826t4.7002 11.1523l142.89 226.931q5.63965 7.75781 12.6904 7.75781
t37.6025 -19.8799q30.5518 -19.8809 58.2842 -48.4902q27.7314 -28.6084 39.9521 -79.0371q1.88086 -6.78906 1.88086 -15.5166q-0.94043 -50.4287 -57.8145 -124.133t-82.2549 -81.4629zM825.751 1306.26q-0.94043 -67.8848 -98.707 -175.531
q-26.3213 -30.0635 -43.2432 -31.0332h-0.939453q-17.8613 0 -60.1641 40.7305q-42.3027 40.7314 -90.2461 72.7344q-4.7002 6.78809 -4.7002 10.1826t4.7002 11.1523l142.89 226.931q5.64062 7.75879 12.6904 7.75879q7.05078 0 37.6025 -19.8809t58.2842 -48.4893
q27.7314 -28.6094 39.9531 -79.0381q1.87988 -6.78809 1.87988 -15.5166z" />
    <glyph glyph-name="afii62788" unicode="&#x634;" horiz-adv-x="862" arabic-form="medial" 
d="M492 270l-45 5h-2q-65 0 -112 -78.5t-114 -137.5t-133 -59h-2q-113 2 -163 98t-50 227q63 225 129 240v-9q0 -184 119 -222q41 -14 63 -14h24q69 0 107.5 24.5t60 43.5t50.5 42.5t54 21.5t38.5 -9.5t33.5 -7.5q63 10 106 84q7 10 10.5 10t9.5 -8t16 -8h12q52 0 92 88
q4 9 8 11h1q5 0 12.5 -6.5t18.5 -6.5t26 10q11 -27 11 -58.5t-11 -67.5q-25 -21 -88 -48q-22 -17 -40 -33q-51 -46 -80.5 -48.5t-71.5 -43t-88 -40.5h-2zM532 1486q0 -25 -6 -37t-6.5 -15t-2.5 -5l-6 -12l-29 -44q-10 -16 -24 -32q-51 -62 -78 -62h-1q-8 0 -14 6l-93 76
q-44 31 -49 35t-5 8.5t5 12.5l153 233q5 7 11 7t13 -3q132 -68 132 -168zM555 1659h-9q-8 0 -61 45.5t-93 70.5q-5 7 -5 10.5t5 11.5l152 234q6 8 13.5 8t40 -20.5t62 -50t42.5 -81.5q2 -7 2 -16q-1 -52 -61.5 -128t-87.5 -84zM842 1510q-1 -70 -105 -181q-28 -31 -46 -32
h-1q-19 0 -64 42t-96 75q-5 7 -5 10.5t5 11.5l152 234q6 8 13.5 8t40 -20.5t62 -50t42.5 -81.5q2 -7 2 -16z" />
    <glyph glyph-name="afii62792" unicode="&#x635;" horiz-adv-x="1498" arabic-form="final" 
d="M1679 1176h-6q-63 -1 -117 -62.5t-128 -171.5h9q214 0 355 179l-14 15q-40 40 -99 40zM1161 767q0 183 114 183l98 -9q55 75 106 148.5t102 138.5q92 117 171 117h3q47 0 80 -33.5t33 -93.5t-54 -167t-110 -178q-97 -114 -217 -150q-96 -22 -155.5 -24.5t-82.5 -18.5
q-30 -290 -108.5 -490t-181.5 -347q-243 -329 -584 -330q-170 9 -284 114t-120 297q4 306 197 671l36 74q2 1 6 1t4 -19.5t-22 -73.5q-114 -283 -114 -434v-14q16 -150 123 -220.5t252 -77.5q195 0 375 104q134 89 215 223q117 178 117 486v54z" />
    </font>
</defs>
</svg>
